%TF.GenerationSoftware,KiCad,Pcbnew,9.0.6*%
%TF.CreationDate,2026-02-23T11:34:12+10:00*%
%TF.ProjectId,ae-tracker-db,61652d74-7261-4636-9b65-722d64622e6b,rev?*%
%TF.SameCoordinates,Original*%
%TF.FileFunction,Copper,L1,Top*%
%TF.FilePolarity,Positive*%
%FSLAX46Y46*%
G04 Gerber Fmt 4.6, Leading zero omitted, Abs format (unit mm)*
G04 Created by KiCad (PCBNEW 9.0.6) date 2026-02-23 11:34:12*
%MOMM*%
%LPD*%
G01*
G04 APERTURE LIST*
G04 Aperture macros list*
%AMRoundRect*
0 Rectangle with rounded corners*
0 $1 Rounding radius*
0 $2 $3 $4 $5 $6 $7 $8 $9 X,Y pos of 4 corners*
0 Add a 4 corners polygon primitive as box body*
4,1,4,$2,$3,$4,$5,$6,$7,$8,$9,$2,$3,0*
0 Add four circle primitives for the rounded corners*
1,1,$1+$1,$2,$3*
1,1,$1+$1,$4,$5*
1,1,$1+$1,$6,$7*
1,1,$1+$1,$8,$9*
0 Add four rect primitives between the rounded corners*
20,1,$1+$1,$2,$3,$4,$5,0*
20,1,$1+$1,$4,$5,$6,$7,0*
20,1,$1+$1,$6,$7,$8,$9,0*
20,1,$1+$1,$8,$9,$2,$3,0*%
%AMFreePoly0*
4,1,23,0.500000,-0.750000,0.000000,-0.750000,0.000000,-0.745722,-0.065263,-0.745722,-0.191342,-0.711940,-0.304381,-0.646677,-0.396677,-0.554381,-0.461940,-0.441342,-0.495722,-0.315263,-0.495722,-0.250000,-0.500000,-0.250000,-0.500000,0.250000,-0.495722,0.250000,-0.495722,0.315263,-0.461940,0.441342,-0.396677,0.554381,-0.304381,0.646677,-0.191342,0.711940,-0.065263,0.745722,0.000000,0.745722,
0.000000,0.750000,0.500000,0.750000,0.500000,-0.750000,0.500000,-0.750000,$1*%
%AMFreePoly1*
4,1,23,0.000000,0.745722,0.065263,0.745722,0.191342,0.711940,0.304381,0.646677,0.396677,0.554381,0.461940,0.441342,0.495722,0.315263,0.495722,0.250000,0.500000,0.250000,0.500000,-0.250000,0.495722,-0.250000,0.495722,-0.315263,0.461940,-0.441342,0.396677,-0.554381,0.304381,-0.646677,0.191342,-0.711940,0.065263,-0.745722,0.000000,-0.745722,0.000000,-0.750000,-0.500000,-0.750000,
-0.500000,0.750000,0.000000,0.750000,0.000000,0.745722,0.000000,0.745722,$1*%
G04 Aperture macros list end*
%TA.AperFunction,EtchedComponent*%
%ADD10C,0.000000*%
%TD*%
%TA.AperFunction,SMDPad,CuDef*%
%ADD11RoundRect,0.225000X-0.225000X-0.250000X0.225000X-0.250000X0.225000X0.250000X-0.225000X0.250000X0*%
%TD*%
%TA.AperFunction,SMDPad,CuDef*%
%ADD12RoundRect,0.200000X0.275000X-0.200000X0.275000X0.200000X-0.275000X0.200000X-0.275000X-0.200000X0*%
%TD*%
%TA.AperFunction,SMDPad,CuDef*%
%ADD13RoundRect,0.150000X-0.150000X0.825000X-0.150000X-0.825000X0.150000X-0.825000X0.150000X0.825000X0*%
%TD*%
%TA.AperFunction,SMDPad,CuDef*%
%ADD14RoundRect,0.225000X0.250000X-0.225000X0.250000X0.225000X-0.250000X0.225000X-0.250000X-0.225000X0*%
%TD*%
%TA.AperFunction,ComponentPad*%
%ADD15R,1.700000X1.700000*%
%TD*%
%TA.AperFunction,SMDPad,CuDef*%
%ADD16RoundRect,0.200000X-0.275000X0.200000X-0.275000X-0.200000X0.275000X-0.200000X0.275000X0.200000X0*%
%TD*%
%TA.AperFunction,SMDPad,CuDef*%
%ADD17RoundRect,0.062500X0.062500X-0.187500X0.062500X0.187500X-0.062500X0.187500X-0.062500X-0.187500X0*%
%TD*%
%TA.AperFunction,SMDPad,CuDef*%
%ADD18R,1.600000X0.900000*%
%TD*%
%TA.AperFunction,ComponentPad*%
%ADD19C,1.700000*%
%TD*%
%TA.AperFunction,SMDPad,CuDef*%
%ADD20RoundRect,0.200000X-0.200000X-0.275000X0.200000X-0.275000X0.200000X0.275000X-0.200000X0.275000X0*%
%TD*%
%TA.AperFunction,SMDPad,CuDef*%
%ADD21RoundRect,0.225000X0.225000X0.250000X-0.225000X0.250000X-0.225000X-0.250000X0.225000X-0.250000X0*%
%TD*%
%TA.AperFunction,SMDPad,CuDef*%
%ADD22RoundRect,0.250000X0.625000X-0.312500X0.625000X0.312500X-0.625000X0.312500X-0.625000X-0.312500X0*%
%TD*%
%TA.AperFunction,SMDPad,CuDef*%
%ADD23FreePoly0,180.000000*%
%TD*%
%TA.AperFunction,SMDPad,CuDef*%
%ADD24FreePoly1,180.000000*%
%TD*%
%TA.AperFunction,SMDPad,CuDef*%
%ADD25RoundRect,0.250000X-1.000000X-0.900000X1.000000X-0.900000X1.000000X0.900000X-1.000000X0.900000X0*%
%TD*%
%TA.AperFunction,SMDPad,CuDef*%
%ADD26RoundRect,0.087500X-0.187500X-0.087500X0.187500X-0.087500X0.187500X0.087500X-0.187500X0.087500X0*%
%TD*%
%TA.AperFunction,SMDPad,CuDef*%
%ADD27RoundRect,0.087500X-0.087500X-0.187500X0.087500X-0.187500X0.087500X0.187500X-0.087500X0.187500X0*%
%TD*%
%TA.AperFunction,SMDPad,CuDef*%
%ADD28RoundRect,0.200000X0.200000X0.275000X-0.200000X0.275000X-0.200000X-0.275000X0.200000X-0.275000X0*%
%TD*%
%TA.AperFunction,SMDPad,CuDef*%
%ADD29RoundRect,0.100000X-0.625000X-0.100000X0.625000X-0.100000X0.625000X0.100000X-0.625000X0.100000X0*%
%TD*%
%TA.AperFunction,HeatsinkPad*%
%ADD30R,1.680000X1.880000*%
%TD*%
%TA.AperFunction,ComponentPad*%
%ADD31RoundRect,0.250000X-0.650000X-1.550000X0.650000X-1.550000X0.650000X1.550000X-0.650000X1.550000X0*%
%TD*%
%TA.AperFunction,ComponentPad*%
%ADD32O,1.800000X3.600000*%
%TD*%
%TA.AperFunction,ViaPad*%
%ADD33C,0.600000*%
%TD*%
%TA.AperFunction,Conductor*%
%ADD34C,0.127000*%
%TD*%
%TA.AperFunction,Conductor*%
%ADD35C,0.254000*%
%TD*%
%TA.AperFunction,Conductor*%
%ADD36C,0.508000*%
%TD*%
%TA.AperFunction,Conductor*%
%ADD37C,0.554000*%
%TD*%
%TA.AperFunction,Conductor*%
%ADD38C,0.354000*%
%TD*%
%TA.AperFunction,Conductor*%
%ADD39C,0.708000*%
%TD*%
G04 APERTURE END LIST*
D10*
%TA.AperFunction,EtchedComponent*%
%TO.C,JP1*%
G36*
X141930777Y-109476007D02*
G01*
X141430777Y-109476007D01*
X141430777Y-108876007D01*
X141930777Y-108876007D01*
X141930777Y-109476007D01*
G37*
%TD.AperFunction*%
%TD*%
D11*
%TO.P,C6,1*%
%TO.N,+3.3V*%
X148306008Y-89704260D03*
%TO.P,C6,2*%
%TO.N,GND*%
X149856008Y-89704260D03*
%TD*%
D12*
%TO.P,R2,1*%
%TO.N,+3.3V*%
X147921489Y-103370000D03*
%TO.P,R2,2*%
%TO.N,SUPPLY_EN*%
X147921489Y-101720000D03*
%TD*%
D13*
%TO.P,U1,1,D*%
%TO.N,ESP_TX*%
X144371888Y-101658414D03*
%TO.P,U1,2,GND*%
%TO.N,GND*%
X143101888Y-101658414D03*
%TO.P,U1,3,VCC*%
%TO.N,+3.3V*%
X141831888Y-101658414D03*
%TO.P,U1,4,R*%
%TO.N,ESP_RX*%
X140561888Y-101658414D03*
%TO.P,U1,5,Vref*%
%TO.N,unconnected-(U1-Vref-Pad5)*%
X140561888Y-106608414D03*
%TO.P,U1,6,CANL*%
%TO.N,CAN_L*%
X141831888Y-106608414D03*
%TO.P,U1,7,CANH*%
%TO.N,CAN_H*%
X143101888Y-106608414D03*
%TO.P,U1,8,Rs*%
%TO.N,RS*%
X144371888Y-106608414D03*
%TD*%
D12*
%TO.P,R16,1*%
%TO.N,Net-(U2-ADC1)*%
X158100000Y-100500000D03*
%TO.P,R16,2*%
%TO.N,GND*%
X158100000Y-98850000D03*
%TD*%
D14*
%TO.P,C3,1*%
%TO.N,Net-(U2-ADC1)*%
X146715547Y-89650912D03*
%TO.P,C3,2*%
%TO.N,GND*%
X146715547Y-88100912D03*
%TD*%
D15*
%TO.P,J2,1,Pin_1*%
%TO.N,BATT_V*%
X139172975Y-80955572D03*
%TD*%
D16*
%TO.P,R13,1*%
%TO.N,Net-(U3-VSET)*%
X146987667Y-83192884D03*
%TO.P,R13,2*%
%TO.N,GND*%
X146987667Y-84842884D03*
%TD*%
D17*
%TO.P,U3,1,IN*%
%TO.N,SUPPLY*%
X142228491Y-84695622D03*
%TO.P,U3,2,ISET*%
%TO.N,Net-(U3-ISET)*%
X142728491Y-84695622D03*
%TO.P,U3,3,TS*%
%TO.N,Net-(U3-TS)*%
X143228491Y-84695622D03*
%TO.P,U3,4,GND*%
%TO.N,GND*%
X143728491Y-84695622D03*
%TO.P,U3,5,STAT*%
%TO.N,STAT*%
X143728491Y-82795622D03*
%TO.P,U3,6,~{PG}*%
%TO.N,PG*%
X143228491Y-82795622D03*
%TO.P,U3,7,VSET*%
%TO.N,Net-(U3-VSET)*%
X142728491Y-82795622D03*
%TO.P,U3,8,OUT*%
%TO.N,BATT_V*%
X142228491Y-82795622D03*
D18*
%TO.P,U3,9,GND*%
%TO.N,GND*%
X142978491Y-83745622D03*
%TD*%
D15*
%TO.P,J4,1,Pin_1*%
%TO.N,+3.3V*%
X136000000Y-119000000D03*
D19*
%TO.P,J4,2,Pin_2*%
%TO.N,GND*%
X136000000Y-116460000D03*
%TO.P,J4,3,Pin_3*%
%TO.N,SUPPLY_EN*%
X136000000Y-113920000D03*
%TO.P,J4,4,Pin_4*%
%TO.N,ESP_TX*%
X136000000Y-111380000D03*
%TO.P,J4,5,Pin_5*%
%TO.N,ESP_RX*%
X136000000Y-108840000D03*
%TO.P,J4,6,Pin_6*%
%TO.N,STAT*%
X136000000Y-106300000D03*
%TO.P,J4,7,Pin_7*%
%TO.N,unconnected-(J4-Pin_7-Pad7)*%
X136000000Y-103760000D03*
%TO.P,J4,8,Pin_8*%
%TO.N,unconnected-(J4-Pin_8-Pad8)*%
X136000000Y-101220000D03*
%TO.P,J4,9,Pin_9*%
%TO.N,PG*%
X136000000Y-98680000D03*
%TO.P,J4,10,Pin_10*%
%TO.N,SDA*%
X136000000Y-96140000D03*
%TO.P,J4,11,Pin_11*%
%TO.N,SCL*%
X136000000Y-93600000D03*
%TO.P,J4,12,Pin_12*%
%TO.N,INT1*%
X136000000Y-91060000D03*
%TO.P,J4,13,Pin_13*%
%TO.N,INT2*%
X136000000Y-88520000D03*
%TO.P,J4,14,Pin_14*%
%TO.N,RS*%
X136000000Y-85980000D03*
%TO.P,J4,15,Pin_15*%
%TO.N,GND*%
X136000000Y-83440000D03*
%TO.P,J4,16,Pin_16*%
%TO.N,unconnected-(J4-Pin_16-Pad16)*%
X136000000Y-80900000D03*
%TD*%
D12*
%TO.P,R15,1*%
%TO.N,SUPPLY*%
X158100000Y-103600000D03*
%TO.P,R15,2*%
%TO.N,Net-(U2-ADC1)*%
X158100000Y-101950000D03*
%TD*%
%TO.P,R12,1*%
%TO.N,+3.3V*%
X148220131Y-96712813D03*
%TO.P,R12,2*%
%TO.N,Net-(U2-CS)*%
X148220131Y-95062813D03*
%TD*%
D11*
%TO.P,C1,1*%
%TO.N,+3.3V*%
X141938416Y-99495917D03*
%TO.P,C1,2*%
%TO.N,GND*%
X143488416Y-99495917D03*
%TD*%
D20*
%TO.P,R9,1*%
%TO.N,SCL*%
X139057618Y-94495489D03*
%TO.P,R9,2*%
%TO.N,GND*%
X140707618Y-94495489D03*
%TD*%
D16*
%TO.P,R10,1*%
%TO.N,+3.3V*%
X138751661Y-100703972D03*
%TO.P,R10,2*%
%TO.N,STAT*%
X138751661Y-102353972D03*
%TD*%
D21*
%TO.P,C2,1*%
%TO.N,SUPPLY*%
X140503491Y-84875614D03*
%TO.P,C2,2*%
%TO.N,GND*%
X138953491Y-84875614D03*
%TD*%
D20*
%TO.P,R8,1*%
%TO.N,SDA*%
X139089506Y-96182936D03*
%TO.P,R8,2*%
%TO.N,GND*%
X140739506Y-96182936D03*
%TD*%
D22*
%TO.P,F1,1*%
%TO.N,SUPPLY_IN*%
X158100000Y-108400000D03*
%TO.P,F1,2*%
%TO.N,Net-(D1-A2)*%
X158100000Y-105475000D03*
%TD*%
D12*
%TO.P,R7,1*%
%TO.N,Net-(JP1-B)*%
X139100000Y-108725000D03*
%TO.P,R7,2*%
%TO.N,CAN_L*%
X139100000Y-107075000D03*
%TD*%
D23*
%TO.P,JP1,1,A*%
%TO.N,CAN_H*%
X142330777Y-109176007D03*
D24*
%TO.P,JP1,2,B*%
%TO.N,Net-(JP1-B)*%
X141030777Y-109176007D03*
%TD*%
D25*
%TO.P,D1,1,A1*%
%TO.N,GND*%
X150350000Y-107037500D03*
%TO.P,D1,2,A2*%
%TO.N,Net-(D1-A2)*%
X154650000Y-107037500D03*
%TD*%
D26*
%TO.P,U2,1,VDD_IO*%
%TO.N,+3.3V*%
X146475000Y-91299749D03*
%TO.P,U2,2,NC*%
%TO.N,unconnected-(U2-NC-Pad2)*%
X146475000Y-91799749D03*
%TO.P,U2,3,NC*%
%TO.N,unconnected-(U2-NC-Pad3)*%
X146475000Y-92299749D03*
%TO.P,U2,4,SPC*%
%TO.N,SCL*%
X146475000Y-92799749D03*
%TO.P,U2,5,GND*%
%TO.N,GND*%
X146475000Y-93299749D03*
D27*
%TO.P,U2,6,SDI*%
%TO.N,SDA*%
X147200000Y-93524749D03*
%TO.P,U2,7,SDO*%
%TO.N,unconnected-(U2-SDO-Pad7)*%
X147700000Y-93524749D03*
%TO.P,U2,8,CS*%
%TO.N,Net-(U2-CS)*%
X148200000Y-93524749D03*
D26*
%TO.P,U2,9,INT2*%
%TO.N,INT2*%
X148925000Y-93299749D03*
%TO.P,U2,10,GND*%
%TO.N,GND*%
X148925000Y-92799749D03*
%TO.P,U2,11,INT1*%
%TO.N,INT1*%
X148925000Y-92299749D03*
%TO.P,U2,12,GND*%
%TO.N,GND*%
X148925000Y-91799749D03*
%TO.P,U2,13,ADC3*%
%TO.N,unconnected-(U2-ADC3-Pad13)*%
X148925000Y-91299749D03*
D27*
%TO.P,U2,14,VDD*%
%TO.N,+3.3V*%
X148200000Y-91074749D03*
%TO.P,U2,15,ADC2*%
%TO.N,unconnected-(U2-ADC2-Pad15)*%
X147700000Y-91074749D03*
%TO.P,U2,16,ADC1*%
%TO.N,Net-(U2-ADC1)*%
X147200000Y-91074749D03*
%TD*%
D21*
%TO.P,C5,1*%
%TO.N,BATT_V*%
X140503491Y-83200000D03*
%TO.P,C5,2*%
%TO.N,GND*%
X138953491Y-83200000D03*
%TD*%
D28*
%TO.P,R11,1*%
%TO.N,+3.3V*%
X140746454Y-97869562D03*
%TO.P,R11,2*%
%TO.N,PG*%
X139096454Y-97869562D03*
%TD*%
D29*
%TO.P,U4,1,IN*%
%TO.N,SUPPLY_EN*%
X150401489Y-101750000D03*
%TO.P,U4,2,D_EN*%
%TO.N,GND*%
X150401489Y-102400000D03*
%TO.P,U4,3,~{FLT}*%
%TO.N,unconnected-(U4-~{FLT}-Pad3)*%
X150401489Y-103050000D03*
%TO.P,U4,4,CL*%
%TO.N,GND*%
X150401489Y-103700000D03*
%TO.P,U4,5,DLY*%
X154701489Y-103700000D03*
%TO.P,U4,6,GND*%
X154701489Y-103050000D03*
%TO.P,U4,7,OUT*%
%TO.N,SUPPLY*%
X154701489Y-102400000D03*
%TO.P,U4,8,VS*%
%TO.N,Net-(D1-A2)*%
X154701489Y-101750000D03*
D30*
%TO.P,U4,9,GND*%
%TO.N,GND*%
X152551489Y-102725000D03*
%TD*%
D12*
%TO.P,R14,1*%
%TO.N,Net-(U3-ISET)*%
X145232881Y-84878768D03*
%TO.P,R14,2*%
%TO.N,GND*%
X145232881Y-83228768D03*
%TD*%
%TO.P,TH1,1*%
%TO.N,Net-(U3-TS)*%
X148714085Y-84849362D03*
%TO.P,TH1,2*%
%TO.N,GND*%
X148714085Y-83199362D03*
%TD*%
D11*
%TO.P,C4,1*%
%TO.N,+3.3V*%
X148304833Y-88095167D03*
%TO.P,C4,2*%
%TO.N,GND*%
X149854833Y-88095167D03*
%TD*%
D31*
%TO.P,J3,1,Pin_1*%
%TO.N,CAN_L*%
X145400000Y-111867500D03*
D32*
%TO.P,J3,2,Pin_2*%
%TO.N,CAN_H*%
X148900000Y-111867500D03*
%TO.P,J3,3,Pin_3*%
%TO.N,GND*%
X152400000Y-111867500D03*
%TO.P,J3,4,Pin_4*%
%TO.N,SUPPLY_IN*%
X155900000Y-111867500D03*
%TD*%
D33*
%TO.N,GND*%
X145700000Y-88100000D03*
X143472691Y-83774357D03*
X145218099Y-82467329D03*
X145456008Y-93400000D03*
X142480425Y-83783378D03*
X158108780Y-97803624D03*
X150964226Y-89625258D03*
X152971489Y-102195000D03*
X141700000Y-94800000D03*
X156155486Y-103694514D03*
X144600000Y-83900000D03*
X148695105Y-82414974D03*
X138184542Y-83649053D03*
X150867251Y-88102162D03*
X152112873Y-103208152D03*
X149606008Y-92799749D03*
X149150000Y-102500000D03*
X138114767Y-84873002D03*
X148900000Y-108600000D03*
X141743715Y-96236570D03*
X149606008Y-91799749D03*
X151900000Y-108600000D03*
X143500000Y-98500000D03*
X147812526Y-84096583D03*
X152114468Y-102168364D03*
X152971489Y-103195000D03*
%TO.N,SUPPLY*%
X149800000Y-100200000D03*
X148700000Y-100200000D03*
X140700000Y-87700000D03*
X140700000Y-86900000D03*
%TO.N,Net-(U2-ADC1)*%
X143800000Y-89700000D03*
X148100000Y-99446000D03*
%TO.N,Net-(D1-A2)*%
X154656008Y-105437500D03*
X155450000Y-101200000D03*
%TO.N,STAT*%
X143900000Y-82000000D03*
X143200000Y-91872587D03*
X143200000Y-93813500D03*
X139700000Y-86700000D03*
%TO.N,PG*%
X142400000Y-93813500D03*
X139800000Y-85700000D03*
X143056856Y-81827000D03*
X142400000Y-91872587D03*
%TO.N,INT2*%
X147306008Y-94304260D03*
X141500000Y-93563500D03*
X148906008Y-94304260D03*
X141500000Y-91850000D03*
%TO.N,INT1*%
X145700000Y-92100000D03*
X147906008Y-91904260D03*
%TO.N,RS*%
X143000000Y-105000000D03*
%TO.N,SUPPLY_EN*%
X148200000Y-101000000D03*
X145300000Y-101000000D03*
%TO.N,Net-(U3-ISET)*%
X144716492Y-85373000D03*
X144716492Y-86627000D03*
%TD*%
D34*
%TO.N,PG*%
X142400000Y-91350000D02*
X142400000Y-91872587D01*
X139700000Y-85800000D02*
X137600000Y-87900000D01*
X139800000Y-85793433D02*
X139793433Y-85800000D01*
X137600000Y-87900000D02*
X137600000Y-89800000D01*
X139085500Y-91285500D02*
X142335500Y-91285500D01*
X139800000Y-85700000D02*
X139800000Y-85793433D01*
X139793433Y-85800000D02*
X139700000Y-85800000D01*
X142335500Y-91285500D02*
X142400000Y-91350000D01*
X137600000Y-89800000D02*
X139085500Y-91285500D01*
D35*
%TO.N,GND*%
X143101888Y-101658414D02*
X143101888Y-99882445D01*
X154701489Y-103050000D02*
X155928747Y-103050000D01*
D36*
X138184542Y-83644563D02*
X138829105Y-83000000D01*
X148695105Y-83180382D02*
X148714085Y-83199362D01*
D34*
X149902006Y-89625258D02*
X149881008Y-89604260D01*
D35*
X143488416Y-98511584D02*
X143500000Y-98500000D01*
D34*
X158108780Y-97803624D02*
X158108780Y-98367461D01*
D36*
X148684679Y-83228768D02*
X148714085Y-83199362D01*
X147812526Y-84096583D02*
X147066225Y-84842884D01*
D34*
X158100000Y-98376241D02*
X158100000Y-98775000D01*
X150867251Y-88102162D02*
X149847838Y-88102162D01*
X149606008Y-92799749D02*
X148925000Y-92799749D01*
D35*
X141700000Y-94800000D02*
X141395489Y-94495489D01*
D36*
X138114767Y-84873002D02*
X138950879Y-84873002D01*
D34*
X150964226Y-89625258D02*
X149902006Y-89625258D01*
D35*
X149150000Y-102500000D02*
X149250000Y-102400000D01*
D36*
X138184542Y-83649053D02*
X138184542Y-83644563D01*
D35*
X156155486Y-103276739D02*
X156155486Y-103694514D01*
X154701489Y-103700000D02*
X156150000Y-103700000D01*
D36*
X145218099Y-82467329D02*
X145218099Y-83213986D01*
D35*
X149150000Y-102500000D02*
X149298691Y-102648691D01*
D34*
X145796768Y-93400000D02*
X145897019Y-93299749D01*
X146700000Y-88110365D02*
X146715547Y-88125912D01*
D36*
X138953491Y-83100000D02*
X138953491Y-83200000D01*
X148695105Y-82414974D02*
X148695105Y-83180382D01*
X138853491Y-83000000D02*
X138953491Y-83100000D01*
X138950879Y-84873002D02*
X138953491Y-84875614D01*
D34*
X145456008Y-93400000D02*
X145796768Y-93400000D01*
D36*
X144600000Y-83900000D02*
X144600000Y-83991733D01*
D35*
X150050000Y-108037500D02*
X150044514Y-108042986D01*
D36*
X144600000Y-83991733D02*
X143896111Y-84695622D01*
D34*
X145710365Y-88110365D02*
X146700000Y-88110365D01*
D35*
X149250000Y-102400000D02*
X150401489Y-102400000D01*
X140739506Y-96182936D02*
X141690081Y-96182936D01*
X149298691Y-102648691D02*
X149298691Y-103448691D01*
D36*
X147066225Y-84842884D02*
X146987667Y-84842884D01*
X150350000Y-107150000D02*
X150350000Y-107037500D01*
D34*
X158108780Y-98367461D02*
X158100000Y-98376241D01*
D36*
X151900000Y-108600000D02*
X151376862Y-108076862D01*
D35*
X149298691Y-103448691D02*
X149550000Y-103700000D01*
X141690081Y-96182936D02*
X141743715Y-96236570D01*
D36*
X145218099Y-83213986D02*
X145232881Y-83228768D01*
D35*
X143488416Y-99495917D02*
X143488416Y-98511584D01*
X143101888Y-99882445D02*
X143488416Y-99495917D01*
D36*
X148900000Y-108600000D02*
X150350000Y-107150000D01*
D35*
X149550000Y-103700000D02*
X150401489Y-103700000D01*
D34*
X145897019Y-93299749D02*
X146475000Y-93299749D01*
X149847838Y-88102162D02*
X149854833Y-88095167D01*
X149606008Y-91799749D02*
X148925000Y-91799749D01*
D35*
X155928747Y-103050000D02*
X156155486Y-103276739D01*
D34*
X145700000Y-88100000D02*
X145710365Y-88110365D01*
D36*
X138829105Y-83000000D02*
X138853491Y-83000000D01*
D35*
X141395489Y-94495489D02*
X140707618Y-94495489D01*
D34*
%TO.N,+3.3V*%
X148200000Y-88200000D02*
X148304833Y-88095167D01*
X148200000Y-91074749D02*
X148200000Y-88200000D01*
D35*
%TO.N,SUPPLY*%
X140683483Y-84695622D02*
X140503491Y-84875614D01*
D37*
X142024406Y-84693293D02*
X140685812Y-84693293D01*
X140503491Y-84875614D02*
X140479398Y-84851521D01*
X140685812Y-84693293D02*
X140503491Y-84875614D01*
D36*
X140700000Y-87700000D02*
X140700000Y-85072123D01*
X149800000Y-100200000D02*
X148700000Y-100200000D01*
D34*
X157800000Y-103600000D02*
X156400000Y-102200000D01*
D36*
X156200000Y-102400000D02*
X156400000Y-102200000D01*
X156600000Y-102000000D02*
X156600000Y-100700000D01*
X140700000Y-85072123D02*
X140503491Y-84875614D01*
X156400000Y-102200000D02*
X156600000Y-102000000D01*
X156600000Y-100700000D02*
X156100000Y-100200000D01*
X156100000Y-100200000D02*
X149800000Y-100200000D01*
D34*
X158100000Y-103600000D02*
X157800000Y-103600000D01*
D38*
X154701489Y-102400000D02*
X156200000Y-102400000D01*
D37*
X140479398Y-84851521D02*
X140479398Y-84693293D01*
D34*
%TO.N,Net-(U2-ADC1)*%
X143849088Y-89650912D02*
X146715547Y-89650912D01*
X158100000Y-101375000D02*
X158100000Y-100500000D01*
X148154000Y-99500000D02*
X157100000Y-99500000D01*
X143800000Y-89700000D02*
X143849088Y-89650912D01*
X158100000Y-101950000D02*
X158100000Y-101075000D01*
X147200000Y-90135365D02*
X146715547Y-89650912D01*
X148100000Y-99446000D02*
X148154000Y-99500000D01*
X157100000Y-99500000D02*
X158100000Y-100500000D01*
X147012213Y-89697155D02*
X146965970Y-89650912D01*
X147200000Y-91074749D02*
X147200000Y-90135365D01*
D36*
%TO.N,BATT_V*%
X139172975Y-80955572D02*
X139955572Y-80955572D01*
X139955572Y-80955572D02*
X140503491Y-81503491D01*
X140703491Y-83000000D02*
X141100000Y-83000000D01*
X141100000Y-83000000D02*
X141304378Y-82795622D01*
X140503491Y-81503491D02*
X140503491Y-83200000D01*
X140503491Y-83200000D02*
X140703491Y-83000000D01*
X141304378Y-82795622D02*
X142148491Y-82795622D01*
D39*
%TO.N,Net-(D1-A2)*%
X156875000Y-106700000D02*
X155918508Y-106700000D01*
X158100000Y-105475000D02*
X156875000Y-106700000D01*
D36*
X155450000Y-101200000D02*
X155450000Y-101600000D01*
X154650000Y-105443508D02*
X154650000Y-107037500D01*
X153849475Y-107838025D02*
X154650000Y-107037500D01*
X155450000Y-101600000D02*
X155320000Y-101730000D01*
X154656008Y-105437500D02*
X154650000Y-105443508D01*
D39*
%TO.N,SUPPLY_IN*%
X155900000Y-111867500D02*
X156132500Y-111867500D01*
X156132500Y-111867500D02*
X158100000Y-109900000D01*
X158100000Y-109900000D02*
X158100000Y-108400000D01*
D34*
%TO.N,CAN_L*%
X140100000Y-105100000D02*
X141500000Y-105100000D01*
X140437556Y-111200000D02*
X138360500Y-109122944D01*
X138360500Y-109122944D02*
X138360500Y-107814500D01*
X145400000Y-111867500D02*
X144732500Y-111200000D01*
X141500000Y-105100000D02*
X141831888Y-105431888D01*
X138360500Y-107814500D02*
X139100000Y-107075000D01*
X138900000Y-106300000D02*
X140100000Y-105100000D01*
X139100000Y-107075000D02*
X138900000Y-106875000D01*
X138900000Y-106875000D02*
X138900000Y-106300000D01*
X144732500Y-111200000D02*
X140437556Y-111200000D01*
X141831888Y-105431888D02*
X141831888Y-106608414D01*
%TO.N,CAN_H*%
X146208507Y-109176007D02*
X148900000Y-111867500D01*
X143101888Y-106608414D02*
X143101888Y-109174119D01*
X143101888Y-109174119D02*
X143100000Y-109176007D01*
X143100000Y-109176007D02*
X146208507Y-109176007D01*
X142330777Y-109176007D02*
X143100000Y-109176007D01*
%TO.N,SCL*%
X139057618Y-94495489D02*
X140803107Y-92750000D01*
X137659511Y-93650489D02*
X135878992Y-93650489D01*
X138504511Y-94495489D02*
X137659511Y-93650489D01*
X146425251Y-92750000D02*
X146475000Y-92799749D01*
X140803107Y-92750000D02*
X146425251Y-92750000D01*
X139057618Y-94495489D02*
X138504511Y-94495489D01*
%TO.N,STAT*%
X137245833Y-99754167D02*
X137245833Y-101745833D01*
X143200000Y-93813500D02*
X143200000Y-95578610D01*
X139700000Y-86700000D02*
X139209220Y-86700000D01*
X139209220Y-86700000D02*
X138000000Y-87909220D01*
X138285788Y-98674342D02*
X138000000Y-98960130D01*
X140000000Y-97478572D02*
X140000000Y-98500000D01*
X143900000Y-82309494D02*
X143728491Y-82481003D01*
X137245833Y-101745833D02*
X137853972Y-102353972D01*
X138000000Y-98960130D02*
X138000000Y-99000000D01*
X138000000Y-87909220D02*
X138000000Y-89600000D01*
X142900000Y-90900000D02*
X143200000Y-91200000D01*
X143200000Y-91200000D02*
X143200000Y-91872587D01*
X143900000Y-82000000D02*
X143900000Y-82309494D01*
D35*
X138751661Y-102353972D02*
X138751661Y-103148339D01*
X135901413Y-106372910D02*
X135878992Y-106350489D01*
X138751661Y-103148339D02*
X135901413Y-105998587D01*
D34*
X139300000Y-90900000D02*
X142900000Y-90900000D01*
X137853972Y-102353972D02*
X138751661Y-102353972D01*
X138000000Y-89600000D02*
X139300000Y-90900000D01*
X141778609Y-97000000D02*
X140478572Y-97000000D01*
X140000000Y-98500000D02*
X139825658Y-98674342D01*
X138000000Y-99000000D02*
X137245833Y-99754167D01*
X143728491Y-82481003D02*
X143728491Y-82795622D01*
D35*
X135901413Y-105998587D02*
X135901413Y-106372910D01*
D34*
X140478572Y-97000000D02*
X140000000Y-97478572D01*
X139825658Y-98674342D02*
X138285788Y-98674342D01*
X143200000Y-95578610D02*
X141778609Y-97000000D01*
D35*
%TO.N,ESP_RX*%
X135878992Y-108890489D02*
X135878992Y-108621008D01*
X137200000Y-105600000D02*
X139589229Y-103210771D01*
X135878992Y-108621008D02*
X137200000Y-107300000D01*
X139589229Y-102631073D02*
X140561888Y-101658414D01*
X139589229Y-103210771D02*
X139589229Y-102631073D01*
X137200000Y-107300000D02*
X137200000Y-105600000D01*
D34*
%TO.N,PG*%
X136739919Y-97869562D02*
X139096454Y-97869562D01*
X142500000Y-95000000D02*
X142100000Y-95400000D01*
D35*
X143093356Y-81863500D02*
X143093356Y-81991865D01*
D34*
X143056856Y-81856856D02*
X143235155Y-82035155D01*
X143235155Y-82788958D02*
X143228491Y-82795622D01*
X135878992Y-98730489D02*
X136739919Y-97869562D01*
X142400000Y-93813500D02*
X142500000Y-93913500D01*
D35*
X143056856Y-81827000D02*
X143093356Y-81863500D01*
D34*
X142100000Y-95400000D02*
X140334989Y-95400000D01*
X140000000Y-95734989D02*
X140000000Y-96966016D01*
X140334989Y-95400000D02*
X140000000Y-95734989D01*
X142500000Y-93913500D02*
X142500000Y-95000000D01*
X140000000Y-96966016D02*
X139096454Y-97869562D01*
X143235155Y-82035155D02*
X143235155Y-82788958D01*
X143056856Y-81827000D02*
X143056856Y-81856856D01*
%TO.N,INT2*%
X148906008Y-94304260D02*
X148906008Y-93318741D01*
X145008626Y-94400000D02*
X147210268Y-94400000D01*
X135878992Y-88778992D02*
X135878992Y-88570489D01*
X141500000Y-91850000D02*
X138950000Y-91850000D01*
X148906008Y-93318741D02*
X148925000Y-93299749D01*
X143908626Y-93300000D02*
X145008626Y-94400000D01*
X143900000Y-93300000D02*
X143908626Y-93300000D01*
X147210268Y-94400000D02*
X147306008Y-94304260D01*
X141500000Y-93563500D02*
X141813500Y-93250000D01*
X141813500Y-93250000D02*
X143850000Y-93250000D01*
X143850000Y-93250000D02*
X143900000Y-93300000D01*
X138950000Y-91850000D02*
X135878992Y-88778992D01*
X148925000Y-93299749D02*
X148959631Y-93334380D01*
%TO.N,INT1*%
X148065030Y-91904260D02*
X148460519Y-92299749D01*
X145700000Y-92100000D02*
X145700000Y-92242257D01*
X145674019Y-92236249D02*
X145674019Y-92125981D01*
X145674019Y-92125981D02*
X145700000Y-92100000D01*
X137510489Y-91110489D02*
X135878992Y-91110489D01*
X138836087Y-92436087D02*
X137510489Y-91110489D01*
X147906008Y-91904260D02*
X148065030Y-91904260D01*
X145700000Y-92242257D02*
X145506170Y-92436087D01*
X145506170Y-92436087D02*
X138836087Y-92436087D01*
X148460519Y-92299749D02*
X148925000Y-92299749D01*
D35*
%TO.N,RS*%
X144371888Y-105633415D02*
X143738473Y-105000000D01*
X144371888Y-106608414D02*
X144371888Y-105633415D01*
X143738473Y-105000000D02*
X143000000Y-105000000D01*
%TO.N,ESP_TX*%
X137700000Y-106000000D02*
X137700000Y-109609481D01*
X140700000Y-103000000D02*
X137700000Y-106000000D01*
X137700000Y-109609481D02*
X135878992Y-111430489D01*
X144371888Y-102633413D02*
X144005301Y-103000000D01*
X144005301Y-103000000D02*
X140700000Y-103000000D01*
X144371888Y-101658414D02*
X144371888Y-102633413D01*
D34*
%TO.N,SDA*%
X145300000Y-94100000D02*
X146624749Y-94100000D01*
X144200000Y-93000000D02*
X145300000Y-94100000D01*
X135878992Y-96190489D02*
X139081953Y-96190489D01*
X140043118Y-94022545D02*
X141065663Y-93000000D01*
X140043118Y-95229324D02*
X140043118Y-94022545D01*
X139081953Y-96190489D02*
X139089506Y-96182936D01*
X141065663Y-93000000D02*
X144200000Y-93000000D01*
X146624749Y-94100000D02*
X147200000Y-93524749D01*
X139089506Y-96182936D02*
X140043118Y-95229324D01*
%TO.N,Net-(JP1-B)*%
X141006784Y-109200000D02*
X139875000Y-109200000D01*
X139875000Y-109200000D02*
X139400000Y-108725000D01*
X141030777Y-109176007D02*
X141006784Y-109200000D01*
X139400000Y-108725000D02*
X139100000Y-108725000D01*
D35*
%TO.N,SUPPLY_EN*%
X147921489Y-101720000D02*
X147946489Y-101745000D01*
D34*
X141100000Y-103500000D02*
X143600000Y-103500000D01*
X145300000Y-102295650D02*
X145300000Y-101000000D01*
X148200000Y-101000000D02*
X148200000Y-101441489D01*
X140300000Y-104300000D02*
X141100000Y-103500000D01*
X138100000Y-111820000D02*
X138100000Y-106500000D01*
X138100000Y-106500000D02*
X140300000Y-104300000D01*
D35*
X147946489Y-101745000D02*
X150396489Y-101745000D01*
X150396489Y-101745000D02*
X150401489Y-101750000D01*
D34*
X148200000Y-101441489D02*
X147921489Y-101720000D01*
X136000000Y-113920000D02*
X138100000Y-111820000D01*
X143600000Y-103500000D02*
X144095650Y-103500000D01*
X144095650Y-103500000D02*
X145300000Y-102295650D01*
%TO.N,Net-(U2-CS)*%
X148200000Y-93524749D02*
X148200000Y-95042682D01*
X148200000Y-95042682D02*
X148220131Y-95062813D01*
D35*
%TO.N,Net-(U3-VSET)*%
X142728911Y-82504013D02*
X142728911Y-82803945D01*
X142400000Y-81500000D02*
X142400000Y-82163147D01*
X142681491Y-82444638D02*
X142681491Y-82456593D01*
X146987667Y-83192884D02*
X146987667Y-82590276D01*
X142700000Y-81200000D02*
X142400000Y-81500000D01*
X146987667Y-82590276D02*
X145597391Y-81200000D01*
X142400000Y-82163147D02*
X142681491Y-82444638D01*
X145597391Y-81200000D02*
X142700000Y-81200000D01*
X142681491Y-82456593D02*
X142728911Y-82504013D01*
%TO.N,Net-(U3-ISET)*%
X142728491Y-85365895D02*
X142728491Y-84695622D01*
X144716492Y-85373000D02*
X145210724Y-84878768D01*
X144716492Y-86627000D02*
X143969172Y-86627000D01*
X145210724Y-84878768D02*
X145232881Y-84878768D01*
X143969172Y-86627000D02*
X142723349Y-85381177D01*
X142723349Y-85381177D02*
X142723349Y-85371037D01*
X142723349Y-85371037D02*
X142728491Y-85365895D01*
%TO.N,Net-(U3-TS)*%
X144228885Y-86000000D02*
X143228491Y-84999606D01*
X145900000Y-85600000D02*
X145500000Y-86000000D01*
X147482969Y-85600000D02*
X145900000Y-85600000D01*
X145500000Y-86000000D02*
X144228885Y-86000000D01*
X148714085Y-84849362D02*
X148233607Y-84849362D01*
X143228491Y-84999606D02*
X143228491Y-84695622D01*
X148233607Y-84849362D02*
X147482969Y-85600000D01*
%TD*%
%TA.AperFunction,Conductor*%
%TO.N,+3.3V*%
G36*
X162952683Y-79919407D02*
G01*
X162988647Y-79968907D01*
X162993492Y-79999500D01*
X162993492Y-119895989D01*
X162974585Y-119954180D01*
X162925085Y-119990144D01*
X162894492Y-119994989D01*
X137449000Y-119994989D01*
X137390809Y-119976082D01*
X137354845Y-119926582D01*
X137350000Y-119895989D01*
X137350000Y-119250001D01*
X137349999Y-119250000D01*
X136433012Y-119250000D01*
X136465925Y-119192993D01*
X136500000Y-119065826D01*
X136500000Y-118934174D01*
X136465925Y-118807007D01*
X136433012Y-118750000D01*
X137349999Y-118750000D01*
X137350000Y-118749999D01*
X137350000Y-118102175D01*
X137343598Y-118042629D01*
X137343596Y-118042618D01*
X137293353Y-117907911D01*
X137293352Y-117907909D01*
X137207192Y-117792815D01*
X137207184Y-117792807D01*
X137092090Y-117706647D01*
X137092088Y-117706646D01*
X136957381Y-117656403D01*
X136957370Y-117656401D01*
X136897824Y-117650000D01*
X136611054Y-117650000D01*
X136552863Y-117631093D01*
X136516899Y-117581593D01*
X136516899Y-117520407D01*
X136552863Y-117470907D01*
X136566109Y-117462790D01*
X136568379Y-117461633D01*
X136602994Y-117443996D01*
X136749501Y-117337553D01*
X136877553Y-117209501D01*
X136983996Y-117062994D01*
X137066211Y-116901639D01*
X137122171Y-116729409D01*
X137150500Y-116550546D01*
X137150500Y-116369454D01*
X137150500Y-116369450D01*
X137122171Y-116190593D01*
X137122171Y-116190591D01*
X137066211Y-116018361D01*
X136983996Y-115857006D01*
X136877553Y-115710499D01*
X136749501Y-115582447D01*
X136602994Y-115476004D01*
X136602993Y-115476003D01*
X136602991Y-115476002D01*
X136441637Y-115393788D01*
X136269406Y-115337828D01*
X136090549Y-115309500D01*
X136090546Y-115309500D01*
X135909454Y-115309500D01*
X135909451Y-115309500D01*
X135730593Y-115337828D01*
X135558362Y-115393788D01*
X135397008Y-115476002D01*
X135323752Y-115529225D01*
X135250499Y-115582447D01*
X135163493Y-115669452D01*
X135108979Y-115697228D01*
X135048547Y-115687657D01*
X135005282Y-115644392D01*
X134994492Y-115599447D01*
X134994492Y-114780553D01*
X135013399Y-114722362D01*
X135062899Y-114686398D01*
X135124085Y-114686398D01*
X135163493Y-114710547D01*
X135250499Y-114797553D01*
X135397006Y-114903996D01*
X135558361Y-114986211D01*
X135730591Y-115042171D01*
X135802136Y-115053502D01*
X135909451Y-115070500D01*
X135909454Y-115070500D01*
X136090549Y-115070500D01*
X136179977Y-115056335D01*
X136269409Y-115042171D01*
X136441639Y-114986211D01*
X136602994Y-114903996D01*
X136749501Y-114797553D01*
X136877553Y-114669501D01*
X136983996Y-114522994D01*
X137066211Y-114361639D01*
X137122171Y-114189409D01*
X137150500Y-114010546D01*
X137150500Y-113829454D01*
X137150500Y-113829450D01*
X137122171Y-113650593D01*
X137122171Y-113650591D01*
X137066211Y-113478361D01*
X137061804Y-113469712D01*
X137052231Y-113409284D01*
X137080007Y-113354766D01*
X137080007Y-113354765D01*
X138323498Y-112111274D01*
X138323501Y-112111273D01*
X138391273Y-112043501D01*
X138439194Y-111960499D01*
X138464000Y-111867922D01*
X138464000Y-109980226D01*
X138482907Y-109922035D01*
X138532407Y-109886071D01*
X138593593Y-109886071D01*
X138633004Y-109910222D01*
X140146283Y-111423501D01*
X140146282Y-111423501D01*
X140193328Y-111470546D01*
X140214055Y-111491273D01*
X140297057Y-111539194D01*
X140389634Y-111564000D01*
X144100500Y-111564000D01*
X144158691Y-111582907D01*
X144194655Y-111632407D01*
X144199500Y-111663000D01*
X144199500Y-113460606D01*
X144210123Y-113549065D01*
X144265637Y-113689839D01*
X144265638Y-113689841D01*
X144265639Y-113689842D01*
X144357078Y-113810422D01*
X144477658Y-113901861D01*
X144477659Y-113901861D01*
X144477660Y-113901862D01*
X144548047Y-113929619D01*
X144618436Y-113957377D01*
X144706898Y-113968000D01*
X144706900Y-113968000D01*
X146093100Y-113968000D01*
X146093102Y-113968000D01*
X146181564Y-113957377D01*
X146322342Y-113901861D01*
X146442922Y-113810422D01*
X146534361Y-113689842D01*
X146589877Y-113549064D01*
X146600500Y-113460602D01*
X146600500Y-110321781D01*
X146619407Y-110263590D01*
X146668907Y-110227626D01*
X146730093Y-110227626D01*
X146769501Y-110251775D01*
X147670505Y-111152779D01*
X147698281Y-111207294D01*
X147699500Y-111222781D01*
X147699500Y-112861984D01*
X147729058Y-113048613D01*
X147787453Y-113228332D01*
X147851872Y-113354763D01*
X147873240Y-113396699D01*
X147984310Y-113549573D01*
X148117927Y-113683190D01*
X148270801Y-113794260D01*
X148439168Y-113880047D01*
X148618882Y-113938440D01*
X148618883Y-113938440D01*
X148618886Y-113938441D01*
X148805516Y-113968000D01*
X148805519Y-113968000D01*
X148994484Y-113968000D01*
X149181113Y-113938441D01*
X149181114Y-113938440D01*
X149181118Y-113938440D01*
X149360832Y-113880047D01*
X149529199Y-113794260D01*
X149682073Y-113683190D01*
X149815690Y-113549573D01*
X149926760Y-113396699D01*
X150012547Y-113228332D01*
X150070940Y-113048618D01*
X150071917Y-113042449D01*
X150100500Y-112861984D01*
X150100500Y-110873015D01*
X151199500Y-110873015D01*
X151199500Y-112861984D01*
X151229058Y-113048613D01*
X151287453Y-113228332D01*
X151351872Y-113354763D01*
X151373240Y-113396699D01*
X151484310Y-113549573D01*
X151617927Y-113683190D01*
X151770801Y-113794260D01*
X151939168Y-113880047D01*
X152118882Y-113938440D01*
X152118883Y-113938440D01*
X152118886Y-113938441D01*
X152305516Y-113968000D01*
X152305519Y-113968000D01*
X152494484Y-113968000D01*
X152681113Y-113938441D01*
X152681114Y-113938440D01*
X152681118Y-113938440D01*
X152860832Y-113880047D01*
X153029199Y-113794260D01*
X153182073Y-113683190D01*
X153315690Y-113549573D01*
X153426760Y-113396699D01*
X153512547Y-113228332D01*
X153570940Y-113048618D01*
X153571917Y-113042449D01*
X153600500Y-112861984D01*
X153600500Y-110873015D01*
X154699500Y-110873015D01*
X154699500Y-112861984D01*
X154729058Y-113048613D01*
X154787453Y-113228332D01*
X154851872Y-113354763D01*
X154873240Y-113396699D01*
X154984310Y-113549573D01*
X155117927Y-113683190D01*
X155270801Y-113794260D01*
X155439168Y-113880047D01*
X155618882Y-113938440D01*
X155618883Y-113938440D01*
X155618886Y-113938441D01*
X155805516Y-113968000D01*
X155805519Y-113968000D01*
X155994484Y-113968000D01*
X156181113Y-113938441D01*
X156181114Y-113938440D01*
X156181118Y-113938440D01*
X156360832Y-113880047D01*
X156529199Y-113794260D01*
X156682073Y-113683190D01*
X156815690Y-113549573D01*
X156926760Y-113396699D01*
X157012547Y-113228332D01*
X157070940Y-113048618D01*
X157071917Y-113042449D01*
X157100500Y-112861984D01*
X157100500Y-111866109D01*
X157119407Y-111807918D01*
X157129490Y-111796111D01*
X158509069Y-110416531D01*
X158509073Y-110416529D01*
X158517218Y-110408383D01*
X158517220Y-110408383D01*
X158608383Y-110317220D01*
X158680011Y-110210022D01*
X158729348Y-110090911D01*
X158754500Y-109964463D01*
X158754500Y-109352456D01*
X158773407Y-109294265D01*
X158822907Y-109258301D01*
X158841693Y-109254162D01*
X158856564Y-109252377D01*
X158997342Y-109196861D01*
X159117922Y-109105422D01*
X159209361Y-108984842D01*
X159264877Y-108844064D01*
X159275500Y-108755602D01*
X159275500Y-108044398D01*
X159264877Y-107955936D01*
X159225268Y-107855496D01*
X159209362Y-107815160D01*
X159209361Y-107815159D01*
X159209361Y-107815158D01*
X159117922Y-107694578D01*
X158997342Y-107603139D01*
X158997341Y-107603138D01*
X158997339Y-107603137D01*
X158856565Y-107547623D01*
X158768106Y-107537000D01*
X158768102Y-107537000D01*
X157431898Y-107537000D01*
X157431893Y-107537000D01*
X157343434Y-107547623D01*
X157202660Y-107603137D01*
X157202656Y-107603140D01*
X157082081Y-107694575D01*
X157082075Y-107694581D01*
X156990640Y-107815156D01*
X156990637Y-107815160D01*
X156935123Y-107955934D01*
X156924500Y-108044393D01*
X156924500Y-108755606D01*
X156935123Y-108844065D01*
X156990637Y-108984839D01*
X156990638Y-108984841D01*
X156990639Y-108984842D01*
X157082078Y-109105422D01*
X157202658Y-109196861D01*
X157202659Y-109196861D01*
X157202660Y-109196862D01*
X157273047Y-109224619D01*
X157343436Y-109252377D01*
X157358303Y-109254162D01*
X157413824Y-109279872D01*
X157443630Y-109333307D01*
X157445500Y-109352456D01*
X157445500Y-109587889D01*
X157426593Y-109646080D01*
X157416504Y-109657893D01*
X156922333Y-110152063D01*
X156867816Y-110179840D01*
X156807384Y-110170269D01*
X156782328Y-110152065D01*
X156682073Y-110051810D01*
X156529199Y-109940740D01*
X156529198Y-109940739D01*
X156529196Y-109940738D01*
X156360832Y-109854953D01*
X156181113Y-109796558D01*
X155994484Y-109767000D01*
X155994481Y-109767000D01*
X155805519Y-109767000D01*
X155805516Y-109767000D01*
X155618886Y-109796558D01*
X155439167Y-109854953D01*
X155270803Y-109940738D01*
X155117928Y-110051809D01*
X154984309Y-110185428D01*
X154873238Y-110338303D01*
X154787453Y-110506667D01*
X154729058Y-110686386D01*
X154699500Y-110873015D01*
X153600500Y-110873015D01*
X153570941Y-110686386D01*
X153548470Y-110617228D01*
X153512547Y-110506668D01*
X153426760Y-110338301D01*
X153315690Y-110185427D01*
X153182073Y-110051810D01*
X153029199Y-109940740D01*
X153029198Y-109940739D01*
X153029196Y-109940738D01*
X152860832Y-109854953D01*
X152681113Y-109796558D01*
X152494484Y-109767000D01*
X152494481Y-109767000D01*
X152305519Y-109767000D01*
X152305516Y-109767000D01*
X152118886Y-109796558D01*
X151939167Y-109854953D01*
X151770803Y-109940738D01*
X151617928Y-110051809D01*
X151484309Y-110185428D01*
X151373238Y-110338303D01*
X151287453Y-110506667D01*
X151229058Y-110686386D01*
X151199500Y-110873015D01*
X150100500Y-110873015D01*
X150070941Y-110686386D01*
X150048470Y-110617228D01*
X150012547Y-110506668D01*
X149926760Y-110338301D01*
X149815690Y-110185427D01*
X149682073Y-110051810D01*
X149529199Y-109940740D01*
X149529198Y-109940739D01*
X149529196Y-109940738D01*
X149360832Y-109854953D01*
X149181113Y-109796558D01*
X148994484Y-109767000D01*
X148994481Y-109767000D01*
X148805519Y-109767000D01*
X148805516Y-109767000D01*
X148618886Y-109796558D01*
X148439167Y-109854953D01*
X148270803Y-109940738D01*
X148117928Y-110051809D01*
X147984305Y-110185432D01*
X147946563Y-110237380D01*
X147897063Y-110273344D01*
X147835878Y-110273343D01*
X147796467Y-110249193D01*
X147116277Y-109569003D01*
X146432008Y-108884734D01*
X146349006Y-108836813D01*
X146256429Y-108812007D01*
X146256427Y-108812007D01*
X143564888Y-108812007D01*
X143549976Y-108807162D01*
X143534295Y-108807162D01*
X143521609Y-108797945D01*
X143506697Y-108793100D01*
X143497480Y-108780414D01*
X143484795Y-108771198D01*
X143479949Y-108756285D01*
X143470733Y-108743600D01*
X143465888Y-108713007D01*
X143465888Y-108520943D01*
X148299500Y-108520943D01*
X148299500Y-108679057D01*
X148340423Y-108831784D01*
X148419480Y-108968716D01*
X148531284Y-109080520D01*
X148668216Y-109159577D01*
X148820943Y-109200500D01*
X148820945Y-109200500D01*
X148979055Y-109200500D01*
X148979057Y-109200500D01*
X149131784Y-109159577D01*
X149268716Y-109080520D01*
X149380520Y-108968716D01*
X149459577Y-108831784D01*
X149459577Y-108831781D01*
X149462821Y-108826164D01*
X149464412Y-108827083D01*
X149478576Y-108805603D01*
X149767185Y-108516996D01*
X149821701Y-108489219D01*
X149837188Y-108488000D01*
X150962811Y-108488000D01*
X151021002Y-108506907D01*
X151032815Y-108516996D01*
X151321422Y-108805603D01*
X151335813Y-108826954D01*
X151337180Y-108826166D01*
X151340422Y-108831782D01*
X151340423Y-108831784D01*
X151419480Y-108968716D01*
X151531284Y-109080520D01*
X151668216Y-109159577D01*
X151820943Y-109200500D01*
X151820945Y-109200500D01*
X151979055Y-109200500D01*
X151979057Y-109200500D01*
X152131784Y-109159577D01*
X152268716Y-109080520D01*
X152380520Y-108968716D01*
X152459577Y-108831784D01*
X152500500Y-108679057D01*
X152500500Y-108520943D01*
X152459577Y-108368216D01*
X152380520Y-108231284D01*
X152268716Y-108119480D01*
X152131784Y-108040423D01*
X152131782Y-108040422D01*
X152126166Y-108037180D01*
X152126954Y-108035813D01*
X152105603Y-108021422D01*
X151929496Y-107845315D01*
X151901719Y-107790798D01*
X151900500Y-107775311D01*
X151900500Y-106094399D01*
X151900499Y-106094393D01*
X153099500Y-106094393D01*
X153099500Y-107980606D01*
X153110123Y-108069065D01*
X153165637Y-108209839D01*
X153165638Y-108209841D01*
X153165639Y-108209842D01*
X153257078Y-108330422D01*
X153377658Y-108421861D01*
X153377659Y-108421861D01*
X153377660Y-108421862D01*
X153420569Y-108438783D01*
X153518436Y-108477377D01*
X153606898Y-108488000D01*
X153606900Y-108488000D01*
X155693100Y-108488000D01*
X155693102Y-108488000D01*
X155781564Y-108477377D01*
X155922342Y-108421861D01*
X156042922Y-108330422D01*
X156134361Y-108209842D01*
X156189877Y-108069064D01*
X156200500Y-107980602D01*
X156200500Y-107453500D01*
X156219407Y-107395309D01*
X156268907Y-107359345D01*
X156299500Y-107354500D01*
X156939462Y-107354500D01*
X156939463Y-107354500D01*
X157065911Y-107329348D01*
X157185022Y-107280011D01*
X157227648Y-107251529D01*
X157292219Y-107208384D01*
X158133607Y-106366996D01*
X158188124Y-106339219D01*
X158203611Y-106338000D01*
X158768100Y-106338000D01*
X158768102Y-106338000D01*
X158856564Y-106327377D01*
X158997342Y-106271861D01*
X159117922Y-106180422D01*
X159209361Y-106059842D01*
X159264877Y-105919064D01*
X159275500Y-105830602D01*
X159275500Y-105119398D01*
X159264877Y-105030936D01*
X159209361Y-104890158D01*
X159117922Y-104769578D01*
X158997342Y-104678139D01*
X158997341Y-104678138D01*
X158997339Y-104678137D01*
X158856565Y-104622623D01*
X158768106Y-104612000D01*
X158768102Y-104612000D01*
X157431898Y-104612000D01*
X157431893Y-104612000D01*
X157343434Y-104622623D01*
X157202660Y-104678137D01*
X157202656Y-104678140D01*
X157082081Y-104769575D01*
X157082075Y-104769581D01*
X156990640Y-104890156D01*
X156990637Y-104890160D01*
X156935123Y-105030934D01*
X156924500Y-105119393D01*
X156924500Y-105683889D01*
X156905593Y-105742080D01*
X156895504Y-105753893D01*
X156632893Y-106016504D01*
X156578376Y-106044281D01*
X156562889Y-106045500D01*
X156272858Y-106045500D01*
X156214667Y-106026593D01*
X156180761Y-105982819D01*
X156134362Y-105865160D01*
X156134361Y-105865159D01*
X156134361Y-105865158D01*
X156042922Y-105744578D01*
X155922342Y-105653139D01*
X155922341Y-105653138D01*
X155922339Y-105653137D01*
X155781565Y-105597623D01*
X155693106Y-105587000D01*
X155693102Y-105587000D01*
X155355508Y-105587000D01*
X155297317Y-105568093D01*
X155261353Y-105518593D01*
X155256508Y-105488000D01*
X155256508Y-105358444D01*
X155253539Y-105347362D01*
X155215585Y-105205716D01*
X155136528Y-105068784D01*
X155024724Y-104956980D01*
X154887792Y-104877923D01*
X154735065Y-104837000D01*
X154576951Y-104837000D01*
X154424224Y-104877923D01*
X154287292Y-104956980D01*
X154175488Y-105068784D01*
X154096431Y-105205716D01*
X154066880Y-105316004D01*
X154055508Y-105358444D01*
X154055508Y-105488000D01*
X154036601Y-105546191D01*
X153987101Y-105582155D01*
X153956508Y-105587000D01*
X153606893Y-105587000D01*
X153518434Y-105597623D01*
X153377660Y-105653137D01*
X153377656Y-105653140D01*
X153257081Y-105744575D01*
X153257075Y-105744581D01*
X153165640Y-105865156D01*
X153165637Y-105865160D01*
X153110123Y-106005934D01*
X153099500Y-106094393D01*
X151900499Y-106094393D01*
X151896350Y-106059842D01*
X151889877Y-106005936D01*
X151834361Y-105865158D01*
X151742922Y-105744578D01*
X151622342Y-105653139D01*
X151622341Y-105653138D01*
X151622339Y-105653137D01*
X151481565Y-105597623D01*
X151393106Y-105587000D01*
X151393102Y-105587000D01*
X149306898Y-105587000D01*
X149306893Y-105587000D01*
X149218434Y-105597623D01*
X149077660Y-105653137D01*
X149077656Y-105653140D01*
X148957081Y-105744575D01*
X148957075Y-105744581D01*
X148865640Y-105865156D01*
X148865637Y-105865160D01*
X148810123Y-106005934D01*
X148799500Y-106094393D01*
X148799500Y-107875311D01*
X148797031Y-107882908D01*
X148798281Y-107890799D01*
X148787757Y-107911452D01*
X148780593Y-107933502D01*
X148770503Y-107945315D01*
X148694395Y-108021422D01*
X148673084Y-108035882D01*
X148673834Y-108037180D01*
X148668217Y-108040422D01*
X148668216Y-108040423D01*
X148531284Y-108119480D01*
X148419480Y-108231284D01*
X148340423Y-108368216D01*
X148299500Y-108520943D01*
X143465888Y-108520943D01*
X143465888Y-107885359D01*
X143484795Y-107827168D01*
X143506097Y-107805705D01*
X143574038Y-107755564D01*
X143601888Y-107717829D01*
X143657233Y-107642839D01*
X143707000Y-107607246D01*
X143768184Y-107607704D01*
X143816543Y-107642839D01*
X143899733Y-107755558D01*
X143899735Y-107755560D01*
X143899738Y-107755564D01*
X143899741Y-107755566D01*
X143899743Y-107755568D01*
X144009004Y-107836206D01*
X144009005Y-107836206D01*
X144009006Y-107836207D01*
X144137189Y-107881060D01*
X144167613Y-107883913D01*
X144167615Y-107883914D01*
X144167622Y-107883914D01*
X144576161Y-107883914D01*
X144576161Y-107883913D01*
X144606587Y-107881060D01*
X144734770Y-107836207D01*
X144844038Y-107755564D01*
X144924681Y-107646296D01*
X144969534Y-107518113D01*
X144972387Y-107487687D01*
X144972388Y-107487687D01*
X144972388Y-105729141D01*
X144972387Y-105729139D01*
X144969534Y-105698719D01*
X144969534Y-105698715D01*
X144924681Y-105570532D01*
X144909896Y-105550499D01*
X144844042Y-105461269D01*
X144844040Y-105461267D01*
X144844038Y-105461264D01*
X144734770Y-105380621D01*
X144734768Y-105380620D01*
X144734765Y-105380618D01*
X144728210Y-105377154D01*
X144728937Y-105375776D01*
X144701720Y-105358670D01*
X144000964Y-104657915D01*
X143965696Y-104637553D01*
X143903484Y-104601634D01*
X143903483Y-104601633D01*
X143903482Y-104601633D01*
X143794754Y-104572500D01*
X143794752Y-104572500D01*
X143462743Y-104572500D01*
X143404552Y-104553593D01*
X143392745Y-104543509D01*
X143368716Y-104519480D01*
X143231784Y-104440423D01*
X143079057Y-104399500D01*
X142920943Y-104399500D01*
X142768216Y-104440423D01*
X142631284Y-104519480D01*
X142519480Y-104631284D01*
X142440423Y-104768216D01*
X142399500Y-104920943D01*
X142399500Y-105079057D01*
X142440423Y-105231784D01*
X142519480Y-105368716D01*
X142561976Y-105411212D01*
X142565770Y-105418659D01*
X142572496Y-105423623D01*
X142579387Y-105445385D01*
X142589752Y-105465727D01*
X142588444Y-105473983D01*
X142590968Y-105481953D01*
X142583752Y-105503609D01*
X142580181Y-105526159D01*
X142571627Y-105540001D01*
X142546544Y-105573988D01*
X142496777Y-105609581D01*
X142435593Y-105609124D01*
X142387233Y-105573989D01*
X142306057Y-105464000D01*
X142304038Y-105461264D01*
X142304037Y-105461263D01*
X142304036Y-105461261D01*
X142222919Y-105401395D01*
X142187326Y-105351628D01*
X142186087Y-105347388D01*
X142171083Y-105291390D01*
X142137827Y-105233789D01*
X142123164Y-105208391D01*
X142123162Y-105208389D01*
X142123161Y-105208387D01*
X141723501Y-104808727D01*
X141640499Y-104760806D01*
X141547922Y-104736000D01*
X141547920Y-104736000D01*
X140617782Y-104736000D01*
X140559591Y-104717093D01*
X140523627Y-104667593D01*
X140523627Y-104606407D01*
X140547778Y-104566996D01*
X141221778Y-103892996D01*
X141276295Y-103865219D01*
X141291782Y-103864000D01*
X144143570Y-103864000D01*
X144143572Y-103864000D01*
X144236149Y-103839194D01*
X144319151Y-103791273D01*
X144490423Y-103620001D01*
X146946490Y-103620001D01*
X146946490Y-103626582D01*
X146952897Y-103697103D01*
X146952899Y-103697109D01*
X147003468Y-103859392D01*
X147003471Y-103859400D01*
X147091413Y-104004872D01*
X147211616Y-104125075D01*
X147357088Y-104213017D01*
X147357096Y-104213020D01*
X147519378Y-104263589D01*
X147519384Y-104263591D01*
X147589913Y-104269999D01*
X147671488Y-104269998D01*
X147671489Y-104269998D01*
X147671489Y-103620001D01*
X147671488Y-103620000D01*
X146946491Y-103620000D01*
X146946490Y-103620001D01*
X144490423Y-103620001D01*
X144997006Y-103113418D01*
X146946489Y-103113418D01*
X146946489Y-103119999D01*
X146946490Y-103120000D01*
X147822489Y-103120000D01*
X147880680Y-103138907D01*
X147916644Y-103188407D01*
X147921489Y-103219000D01*
X147921489Y-103369999D01*
X147921490Y-103370000D01*
X148072489Y-103370000D01*
X148130680Y-103388907D01*
X148166644Y-103438407D01*
X148171489Y-103469000D01*
X148171489Y-104269998D01*
X148171490Y-104269999D01*
X148253055Y-104269999D01*
X148253071Y-104269998D01*
X148323592Y-104263591D01*
X148323598Y-104263589D01*
X148485881Y-104213020D01*
X148485889Y-104213017D01*
X148631361Y-104125075D01*
X148751564Y-104004872D01*
X148839506Y-103859400D01*
X148839506Y-103859398D01*
X148853819Y-103813468D01*
X148889182Y-103763537D01*
X148947140Y-103743927D01*
X149005555Y-103762130D01*
X149018341Y-103772917D01*
X149207914Y-103962491D01*
X149287508Y-104042084D01*
X149287510Y-104042086D01*
X149347168Y-104076529D01*
X149384991Y-104098367D01*
X149493719Y-104127500D01*
X149513300Y-104127500D01*
X149558245Y-104138291D01*
X149630356Y-104175033D01*
X149651185Y-104185646D01*
X149744970Y-104200500D01*
X151058007Y-104200499D01*
X151058010Y-104200499D01*
X151058011Y-104200498D01*
X151104900Y-104193072D01*
X151151788Y-104185647D01*
X151151788Y-104185646D01*
X151151793Y-104185646D01*
X151264831Y-104128050D01*
X151354539Y-104038342D01*
X151396776Y-103955446D01*
X151440038Y-103912184D01*
X151500470Y-103902612D01*
X151529956Y-103914349D01*
X151530332Y-103913500D01*
X151538722Y-103917204D01*
X151538724Y-103917206D01*
X151641498Y-103962585D01*
X151666624Y-103965500D01*
X153436353Y-103965499D01*
X153461480Y-103962585D01*
X153564254Y-103917206D01*
X153564255Y-103917204D01*
X153572646Y-103913500D01*
X153573465Y-103915356D01*
X153620724Y-103901431D01*
X153678371Y-103921936D01*
X153706200Y-103955445D01*
X153748439Y-104038342D01*
X153838147Y-104128050D01*
X153951185Y-104185646D01*
X154044970Y-104200500D01*
X155358007Y-104200499D01*
X155358010Y-104200499D01*
X155358011Y-104200498D01*
X155404900Y-104193072D01*
X155451788Y-104185647D01*
X155451790Y-104185646D01*
X155451793Y-104185646D01*
X155451793Y-104185645D01*
X155451796Y-104185645D01*
X155544733Y-104138291D01*
X155589678Y-104127500D01*
X155698229Y-104127500D01*
X155756420Y-104146407D01*
X155768226Y-104156490D01*
X155786770Y-104175034D01*
X155923702Y-104254091D01*
X156076429Y-104295014D01*
X156076431Y-104295014D01*
X156234541Y-104295014D01*
X156234543Y-104295014D01*
X156387270Y-104254091D01*
X156524202Y-104175034D01*
X156636006Y-104063230D01*
X156715063Y-103926298D01*
X156755986Y-103773571D01*
X156755986Y-103615457D01*
X156715063Y-103462730D01*
X156636006Y-103325798D01*
X156628569Y-103318361D01*
X156611981Y-103301772D01*
X156611015Y-103299876D01*
X156609159Y-103298832D01*
X156604824Y-103287724D01*
X156584205Y-103247255D01*
X156583650Y-103243218D01*
X156582986Y-103237515D01*
X156582986Y-103220458D01*
X156581350Y-103214354D01*
X156560496Y-103136523D01*
X156563698Y-103075427D01*
X156602204Y-103027877D01*
X156661304Y-103012041D01*
X156718426Y-103033967D01*
X156726127Y-103040901D01*
X157295504Y-103610278D01*
X157323281Y-103664795D01*
X157324500Y-103680281D01*
X157324500Y-103847868D01*
X157324500Y-103847869D01*
X157324501Y-103847872D01*
X157325739Y-103859392D01*
X157330908Y-103907480D01*
X157330909Y-103907485D01*
X157381202Y-104042329D01*
X157459115Y-104146407D01*
X157467454Y-104157546D01*
X157467457Y-104157548D01*
X157467458Y-104157549D01*
X157582670Y-104243797D01*
X157717511Y-104294089D01*
X157717512Y-104294089D01*
X157717517Y-104294091D01*
X157777127Y-104300500D01*
X158422872Y-104300499D01*
X158482483Y-104294091D01*
X158564263Y-104263589D01*
X158617329Y-104243797D01*
X158617329Y-104243796D01*
X158617331Y-104243796D01*
X158732546Y-104157546D01*
X158818796Y-104042331D01*
X158818888Y-104042086D01*
X158863700Y-103921936D01*
X158869091Y-103907483D01*
X158875500Y-103847873D01*
X158875499Y-103352128D01*
X158869091Y-103292517D01*
X158867303Y-103287724D01*
X158818797Y-103157670D01*
X158732549Y-103042458D01*
X158732548Y-103042457D01*
X158732546Y-103042454D01*
X158732541Y-103042450D01*
X158617329Y-102956202D01*
X158482488Y-102905910D01*
X158482483Y-102905909D01*
X158482481Y-102905908D01*
X158482477Y-102905908D01*
X158451249Y-102902550D01*
X158422873Y-102899500D01*
X158422870Y-102899500D01*
X157777133Y-102899500D01*
X157777129Y-102899500D01*
X157777128Y-102899501D01*
X157762225Y-102901103D01*
X157717514Y-102905909D01*
X157706600Y-102909980D01*
X157681417Y-102911059D01*
X157656517Y-102915003D01*
X157651309Y-102912349D01*
X157645471Y-102912600D01*
X157602000Y-102887226D01*
X157465759Y-102750985D01*
X157437982Y-102696468D01*
X157447553Y-102636036D01*
X157490818Y-102592771D01*
X157551250Y-102583200D01*
X157575926Y-102591609D01*
X157576034Y-102591322D01*
X157717511Y-102644089D01*
X157717512Y-102644089D01*
X157717517Y-102644091D01*
X157777127Y-102650500D01*
X158422872Y-102650499D01*
X158482483Y-102644091D01*
X158560684Y-102614924D01*
X158617329Y-102593797D01*
X158617329Y-102593796D01*
X158617331Y-102593796D01*
X158732546Y-102507546D01*
X158818796Y-102392331D01*
X158826939Y-102370500D01*
X158865088Y-102268216D01*
X158869091Y-102257483D01*
X158875500Y-102197873D01*
X158875499Y-101702128D01*
X158869091Y-101642517D01*
X158860126Y-101618481D01*
X158818797Y-101507670D01*
X158732549Y-101392458D01*
X158732548Y-101392457D01*
X158732546Y-101392454D01*
X158660932Y-101338844D01*
X158614725Y-101304253D01*
X158579472Y-101254244D01*
X158580346Y-101193065D01*
X158614725Y-101145747D01*
X158647857Y-101120944D01*
X158732546Y-101057546D01*
X158818796Y-100942331D01*
X158826775Y-100920940D01*
X158869089Y-100807488D01*
X158869088Y-100807488D01*
X158869091Y-100807483D01*
X158875500Y-100747873D01*
X158875499Y-100252128D01*
X158869091Y-100192517D01*
X158863458Y-100177414D01*
X158818797Y-100057670D01*
X158732549Y-99942458D01*
X158732548Y-99942457D01*
X158732546Y-99942454D01*
X158710492Y-99925944D01*
X158617329Y-99856202D01*
X158482488Y-99805910D01*
X158482483Y-99805909D01*
X158482481Y-99805908D01*
X158482477Y-99805908D01*
X158447716Y-99802171D01*
X158422873Y-99799500D01*
X158422870Y-99799500D01*
X157955282Y-99799500D01*
X157947684Y-99797031D01*
X157939795Y-99798281D01*
X157919139Y-99787756D01*
X157897091Y-99780593D01*
X157885278Y-99770504D01*
X157834277Y-99719503D01*
X157806500Y-99664986D01*
X157816071Y-99604554D01*
X157859336Y-99561289D01*
X157904277Y-99550499D01*
X158422872Y-99550499D01*
X158482483Y-99544091D01*
X158549907Y-99518943D01*
X158617329Y-99493797D01*
X158617329Y-99493796D01*
X158617331Y-99493796D01*
X158732546Y-99407546D01*
X158818796Y-99292331D01*
X158822279Y-99282994D01*
X158864048Y-99171004D01*
X158869091Y-99157483D01*
X158875500Y-99097873D01*
X158875499Y-98602128D01*
X158869091Y-98542517D01*
X158853983Y-98502010D01*
X158818797Y-98407670D01*
X158732549Y-98292458D01*
X158732548Y-98292457D01*
X158732546Y-98292454D01*
X158654447Y-98233989D01*
X158619195Y-98183982D01*
X158620069Y-98122803D01*
X158628038Y-98105241D01*
X158668357Y-98035408D01*
X158709280Y-97882681D01*
X158709280Y-97724567D01*
X158668357Y-97571840D01*
X158589300Y-97434908D01*
X158477496Y-97323104D01*
X158340564Y-97244047D01*
X158187837Y-97203124D01*
X158029723Y-97203124D01*
X157876996Y-97244047D01*
X157740064Y-97323104D01*
X157628260Y-97434908D01*
X157549203Y-97571840D01*
X157508280Y-97724567D01*
X157508280Y-97882681D01*
X157549203Y-98035408D01*
X157584220Y-98096060D01*
X157596941Y-98155906D01*
X157572054Y-98211802D01*
X157557812Y-98224811D01*
X157467458Y-98292450D01*
X157467450Y-98292458D01*
X157381202Y-98407670D01*
X157330910Y-98542511D01*
X157330908Y-98542522D01*
X157324500Y-98602129D01*
X157324500Y-99054295D01*
X157305593Y-99112486D01*
X157256093Y-99148450D01*
X157199879Y-99149921D01*
X157147922Y-99136000D01*
X157147920Y-99136000D01*
X148671577Y-99136000D01*
X148613386Y-99117093D01*
X148585841Y-99086500D01*
X148580521Y-99077286D01*
X148580520Y-99077284D01*
X148468716Y-98965480D01*
X148331784Y-98886423D01*
X148179057Y-98845500D01*
X148020943Y-98845500D01*
X147868216Y-98886423D01*
X147731284Y-98965480D01*
X147619480Y-99077284D01*
X147540423Y-99214216D01*
X147499500Y-99366943D01*
X147499500Y-99525057D01*
X147540423Y-99677784D01*
X147619480Y-99814716D01*
X147731284Y-99926520D01*
X147868216Y-100005577D01*
X148020943Y-100046500D01*
X148020947Y-100046500D01*
X148026123Y-100047887D01*
X148026196Y-100047934D01*
X148026283Y-100047930D01*
X148051932Y-100064647D01*
X148077437Y-100081211D01*
X148077468Y-100081291D01*
X148077542Y-100081340D01*
X148078180Y-100083147D01*
X148099364Y-100138332D01*
X148099373Y-100138498D01*
X148099500Y-100141001D01*
X148099500Y-100279057D01*
X148108138Y-100311296D01*
X148108670Y-100321773D01*
X148103300Y-100341679D01*
X148102221Y-100362268D01*
X148095511Y-100370553D01*
X148092735Y-100380847D01*
X148076689Y-100393795D01*
X148063715Y-100409818D01*
X148048370Y-100416650D01*
X148045120Y-100419273D01*
X148042139Y-100419424D01*
X148035421Y-100422415D01*
X147968216Y-100440423D01*
X147831284Y-100519480D01*
X147719480Y-100631284D01*
X147640423Y-100768216D01*
X147599501Y-100920942D01*
X147599500Y-100920944D01*
X147599500Y-100934609D01*
X147580593Y-100992800D01*
X147535096Y-101027367D01*
X147404159Y-101076202D01*
X147288947Y-101162450D01*
X147288939Y-101162458D01*
X147202691Y-101277670D01*
X147152399Y-101412511D01*
X147152397Y-101412522D01*
X147145989Y-101472129D01*
X147145989Y-101967866D01*
X147145989Y-101967869D01*
X147145990Y-101967872D01*
X147147031Y-101977552D01*
X147152397Y-102027480D01*
X147152398Y-102027485D01*
X147202691Y-102162329D01*
X147284734Y-102271924D01*
X147288943Y-102277546D01*
X147377142Y-102343572D01*
X147389121Y-102352539D01*
X147424374Y-102402547D01*
X147423500Y-102463726D01*
X147386833Y-102512708D01*
X147359256Y-102526306D01*
X147357098Y-102526978D01*
X147357088Y-102526982D01*
X147211616Y-102614924D01*
X147091413Y-102735127D01*
X147003471Y-102880599D01*
X147003468Y-102880607D01*
X146952899Y-103042889D01*
X146952897Y-103042895D01*
X146946489Y-103113418D01*
X144997006Y-103113418D01*
X145591273Y-102519151D01*
X145639194Y-102436149D01*
X145664000Y-102343572D01*
X145664000Y-102247728D01*
X145664000Y-101526243D01*
X145682907Y-101468052D01*
X145692990Y-101456245D01*
X145780520Y-101368716D01*
X145859577Y-101231784D01*
X145900500Y-101079057D01*
X145900500Y-100920943D01*
X145859577Y-100768216D01*
X145780520Y-100631284D01*
X145668716Y-100519480D01*
X145531784Y-100440423D01*
X145379057Y-100399500D01*
X145220943Y-100399500D01*
X145144579Y-100419961D01*
X145068214Y-100440423D01*
X144944712Y-100511727D01*
X144884864Y-100524448D01*
X144836425Y-100505645D01*
X144734771Y-100430621D01*
X144606591Y-100385769D01*
X144606582Y-100385767D01*
X144576162Y-100382914D01*
X144576154Y-100382914D01*
X144167622Y-100382914D01*
X144167613Y-100382914D01*
X144137193Y-100385767D01*
X144137184Y-100385769D01*
X144009004Y-100430621D01*
X143899743Y-100511259D01*
X143899733Y-100511269D01*
X143816543Y-100623988D01*
X143793555Y-100640427D01*
X143771405Y-100657988D01*
X143768852Y-100658095D01*
X143766775Y-100659581D01*
X143738518Y-100659369D01*
X143710274Y-100660556D01*
X143708224Y-100659142D01*
X143705592Y-100659123D01*
X143659308Y-100626701D01*
X143654889Y-100621126D01*
X143654681Y-100620532D01*
X143574038Y-100511264D01*
X143558995Y-100500161D01*
X143550808Y-100489834D01*
X143544510Y-100472906D01*
X143534006Y-100458217D01*
X143530424Y-100435040D01*
X143529475Y-100432488D01*
X143529832Y-100431207D01*
X143529388Y-100428333D01*
X143529388Y-100370417D01*
X143548295Y-100312226D01*
X143597795Y-100276262D01*
X143628388Y-100271417D01*
X143754558Y-100271417D01*
X143754560Y-100271417D01*
X143839006Y-100261276D01*
X143973391Y-100208281D01*
X144088494Y-100120995D01*
X144175780Y-100005892D01*
X144228775Y-99871507D01*
X144238916Y-99787061D01*
X144238916Y-99204773D01*
X144228775Y-99120327D01*
X144175780Y-98985942D01*
X144088494Y-98870839D01*
X144088489Y-98870835D01*
X144088488Y-98870834D01*
X144082119Y-98866004D01*
X144047179Y-98815776D01*
X144048435Y-98754604D01*
X144056208Y-98737619D01*
X144056595Y-98736949D01*
X144059577Y-98731784D01*
X144100500Y-98579057D01*
X144100500Y-98420943D01*
X144059577Y-98268216D01*
X143980520Y-98131284D01*
X143868716Y-98019480D01*
X143731784Y-97940423D01*
X143579057Y-97899500D01*
X143420943Y-97899500D01*
X143268216Y-97940423D01*
X143131284Y-98019480D01*
X143019480Y-98131284D01*
X142940423Y-98268216D01*
X142899500Y-98420943D01*
X142899500Y-98579057D01*
X142915963Y-98640499D01*
X142940424Y-98731789D01*
X142942562Y-98736949D01*
X142942796Y-98739933D01*
X142944605Y-98742318D01*
X142945175Y-98770166D01*
X142947361Y-98797946D01*
X142945796Y-98800498D01*
X142945858Y-98803490D01*
X142929948Y-98826358D01*
X142915390Y-98850114D01*
X142910916Y-98853716D01*
X142904027Y-98858940D01*
X142846235Y-98879035D01*
X142787670Y-98861324D01*
X142759947Y-98832029D01*
X142735987Y-98793184D01*
X142616145Y-98673342D01*
X142471903Y-98584371D01*
X142311019Y-98531060D01*
X142211739Y-98520917D01*
X142188417Y-98520917D01*
X142188416Y-98520918D01*
X142188416Y-100476917D01*
X142169509Y-100535108D01*
X142120009Y-100571072D01*
X142089416Y-100575917D01*
X142081889Y-100575917D01*
X142081888Y-100575918D01*
X142081888Y-101559414D01*
X142062981Y-101617605D01*
X142013481Y-101653569D01*
X141982888Y-101658414D01*
X141680888Y-101658414D01*
X141622697Y-101639507D01*
X141586733Y-101590007D01*
X141581888Y-101559414D01*
X141581888Y-100177414D01*
X141600795Y-100119223D01*
X141650295Y-100083259D01*
X141680888Y-100078414D01*
X141688415Y-100078414D01*
X141688416Y-100078413D01*
X141688416Y-99745918D01*
X141688415Y-99745917D01*
X140988418Y-99745917D01*
X140988417Y-99745918D01*
X140988417Y-99794239D01*
X140998558Y-99893514D01*
X140998561Y-99893526D01*
X141051870Y-100054404D01*
X141140841Y-100198646D01*
X141199125Y-100256930D01*
X141203912Y-100266326D01*
X141212110Y-100272955D01*
X141217489Y-100292973D01*
X141226902Y-100311447D01*
X141225252Y-100321861D01*
X141227989Y-100332044D01*
X141221235Y-100347228D01*
X141217331Y-100371879D01*
X141206103Y-100389181D01*
X141139532Y-100471511D01*
X141119656Y-100484438D01*
X141101868Y-100500122D01*
X141094469Y-100500821D01*
X141088242Y-100504872D01*
X141064563Y-100503648D01*
X141040954Y-100505880D01*
X141032417Y-100501986D01*
X141027138Y-100501714D01*
X141021083Y-100496818D01*
X141003762Y-100488919D01*
X140924771Y-100430621D01*
X140796591Y-100385769D01*
X140796582Y-100385767D01*
X140766162Y-100382914D01*
X140766154Y-100382914D01*
X140357622Y-100382914D01*
X140357613Y-100382914D01*
X140327193Y-100385767D01*
X140327184Y-100385769D01*
X140199004Y-100430621D01*
X140089743Y-100511259D01*
X140089733Y-100511269D01*
X140009095Y-100620530D01*
X139964243Y-100748710D01*
X139964241Y-100748719D01*
X139961388Y-100779139D01*
X139961388Y-101613330D01*
X139942481Y-101671521D01*
X139932391Y-101683334D01*
X139642850Y-101972874D01*
X139588334Y-102000651D01*
X139527902Y-101991080D01*
X139484637Y-101947815D01*
X139480092Y-101937475D01*
X139470457Y-101911641D01*
X139384207Y-101796426D01*
X139284027Y-101721431D01*
X139248775Y-101671424D01*
X139249649Y-101610244D01*
X139286316Y-101561263D01*
X139313908Y-101547661D01*
X139316053Y-101546992D01*
X139316061Y-101546989D01*
X139461533Y-101459047D01*
X139581736Y-101338844D01*
X139669678Y-101193372D01*
X139669681Y-101193364D01*
X139720250Y-101031082D01*
X139720252Y-101031076D01*
X139726660Y-100960553D01*
X139726661Y-100960540D01*
X139726661Y-100953973D01*
X139726660Y-100953972D01*
X138850661Y-100953972D01*
X138792470Y-100935065D01*
X138756506Y-100885565D01*
X138751661Y-100854972D01*
X138751661Y-100703973D01*
X138751660Y-100703972D01*
X138600661Y-100703972D01*
X138542470Y-100685065D01*
X138506506Y-100635565D01*
X138501661Y-100604972D01*
X138501661Y-99803973D01*
X139001661Y-99803973D01*
X139001661Y-100453971D01*
X139001662Y-100453972D01*
X139726659Y-100453972D01*
X139726660Y-100453971D01*
X139726660Y-100447405D01*
X139726659Y-100447389D01*
X139720252Y-100376868D01*
X139720250Y-100376862D01*
X139669681Y-100214579D01*
X139669678Y-100214571D01*
X139581736Y-100069099D01*
X139461533Y-99948896D01*
X139316061Y-99860954D01*
X139316053Y-99860951D01*
X139153771Y-99810382D01*
X139153765Y-99810380D01*
X139083242Y-99803972D01*
X139001662Y-99803972D01*
X139001661Y-99803973D01*
X138501661Y-99803973D01*
X138501659Y-99803971D01*
X138420095Y-99803972D01*
X138420078Y-99803973D01*
X138349557Y-99810380D01*
X138349551Y-99810382D01*
X138187268Y-99860951D01*
X138187260Y-99860954D01*
X138041788Y-99948896D01*
X137921585Y-100069099D01*
X137833643Y-100214571D01*
X137833640Y-100214579D01*
X137803350Y-100311784D01*
X137767987Y-100361715D01*
X137710029Y-100381324D01*
X137651614Y-100363121D01*
X137615055Y-100314059D01*
X137609833Y-100282331D01*
X137609833Y-99945948D01*
X137628740Y-99887757D01*
X137638823Y-99875950D01*
X138291273Y-99223501D01*
X138306231Y-99197593D01*
X140988416Y-99197593D01*
X140988416Y-99245916D01*
X140988417Y-99245917D01*
X141688415Y-99245917D01*
X141688416Y-99245916D01*
X141688416Y-98520917D01*
X141684320Y-98516821D01*
X141638732Y-98502010D01*
X141602766Y-98452512D01*
X141602403Y-98392462D01*
X141640044Y-98271669D01*
X141640045Y-98271666D01*
X141646453Y-98201143D01*
X141646454Y-98201130D01*
X141646454Y-98119563D01*
X141646453Y-98119562D01*
X140996455Y-98119562D01*
X140996454Y-98119563D01*
X140996454Y-98844560D01*
X141018013Y-98866119D01*
X141045790Y-98920636D01*
X141041984Y-98967262D01*
X140998560Y-99098310D01*
X140998559Y-99098313D01*
X140988416Y-99197593D01*
X138306231Y-99197593D01*
X138327470Y-99160806D01*
X138336260Y-99145582D01*
X138339219Y-99140456D01*
X138354952Y-99119950D01*
X138407567Y-99067337D01*
X138462084Y-99039561D01*
X138477569Y-99038342D01*
X139873578Y-99038342D01*
X139873580Y-99038342D01*
X139966157Y-99013536D01*
X140049159Y-98965615D01*
X140191972Y-98822801D01*
X140246484Y-98795026D01*
X140291425Y-98798290D01*
X140419343Y-98838151D01*
X140419349Y-98838153D01*
X140489879Y-98844560D01*
X140496454Y-98844560D01*
X140496454Y-97968562D01*
X140515361Y-97910371D01*
X140564861Y-97874407D01*
X140595454Y-97869562D01*
X140746453Y-97869562D01*
X140746454Y-97869561D01*
X140746454Y-97718562D01*
X140765361Y-97660371D01*
X140814861Y-97624407D01*
X140845454Y-97619562D01*
X141646452Y-97619562D01*
X141646453Y-97619561D01*
X141646453Y-97537995D01*
X141646452Y-97537979D01*
X141640454Y-97471958D01*
X141654019Y-97412295D01*
X141700062Y-97372000D01*
X141739048Y-97364000D01*
X141826529Y-97364000D01*
X141826531Y-97364000D01*
X141919108Y-97339194D01*
X142002110Y-97291273D01*
X142069882Y-97223501D01*
X142069881Y-97223501D01*
X142330568Y-96962814D01*
X147245132Y-96962814D01*
X147245132Y-96969395D01*
X147251539Y-97039916D01*
X147251541Y-97039922D01*
X147302110Y-97202205D01*
X147302113Y-97202213D01*
X147390055Y-97347685D01*
X147510258Y-97467888D01*
X147655730Y-97555830D01*
X147655738Y-97555833D01*
X147818020Y-97606402D01*
X147818026Y-97606404D01*
X147888555Y-97612812D01*
X147970130Y-97612811D01*
X147970131Y-97612811D01*
X147970131Y-96962814D01*
X148470131Y-96962814D01*
X148470131Y-97612811D01*
X148470132Y-97612812D01*
X148551697Y-97612812D01*
X148551713Y-97612811D01*
X148622234Y-97606404D01*
X148622240Y-97606402D01*
X148784523Y-97555833D01*
X148784531Y-97555830D01*
X148930003Y-97467888D01*
X149050206Y-97347685D01*
X149138148Y-97202213D01*
X149138151Y-97202205D01*
X149188720Y-97039923D01*
X149188722Y-97039917D01*
X149195130Y-96969394D01*
X149195131Y-96969381D01*
X149195131Y-96962814D01*
X149195130Y-96962813D01*
X148470132Y-96962813D01*
X148470131Y-96962814D01*
X147970131Y-96962814D01*
X147970130Y-96962813D01*
X147245133Y-96962813D01*
X147245132Y-96962814D01*
X142330568Y-96962814D01*
X143491273Y-95802111D01*
X143539194Y-95719109D01*
X143564000Y-95626532D01*
X143564000Y-95530688D01*
X143564000Y-94339743D01*
X143582907Y-94281552D01*
X143592990Y-94269745D01*
X143680520Y-94182216D01*
X143759577Y-94045284D01*
X143795407Y-93911562D01*
X143828730Y-93860251D01*
X143885851Y-93838324D01*
X143944952Y-93854159D01*
X143961031Y-93867179D01*
X144785125Y-94691273D01*
X144868127Y-94739194D01*
X144960704Y-94764000D01*
X145056548Y-94764000D01*
X146876605Y-94764000D01*
X146931499Y-94781835D01*
X146931673Y-94781535D01*
X146933088Y-94782352D01*
X146934796Y-94782907D01*
X146936868Y-94784455D01*
X146937285Y-94784775D01*
X146937289Y-94784777D01*
X146937292Y-94784780D01*
X147074224Y-94863837D01*
X147226951Y-94904760D01*
X147226953Y-94904760D01*
X147345631Y-94904760D01*
X147403822Y-94923667D01*
X147439786Y-94973167D01*
X147444631Y-95003760D01*
X147444631Y-95310679D01*
X147444632Y-95310683D01*
X147451039Y-95370293D01*
X147451040Y-95370298D01*
X147501333Y-95505142D01*
X147525188Y-95537008D01*
X147587585Y-95620359D01*
X147687761Y-95695351D01*
X147687763Y-95695352D01*
X147723016Y-95745360D01*
X147722142Y-95806539D01*
X147685475Y-95855521D01*
X147657898Y-95869119D01*
X147655740Y-95869791D01*
X147655730Y-95869795D01*
X147510258Y-95957737D01*
X147390055Y-96077940D01*
X147302113Y-96223412D01*
X147302110Y-96223420D01*
X147251541Y-96385702D01*
X147251539Y-96385708D01*
X147245131Y-96456231D01*
X147245131Y-96462812D01*
X147245132Y-96462813D01*
X149195129Y-96462813D01*
X149195130Y-96462812D01*
X149195130Y-96456246D01*
X149195129Y-96456230D01*
X149188722Y-96385709D01*
X149188720Y-96385703D01*
X149138151Y-96223420D01*
X149138148Y-96223412D01*
X149050206Y-96077940D01*
X148930003Y-95957737D01*
X148784531Y-95869795D01*
X148784521Y-95869791D01*
X148782367Y-95869120D01*
X148781212Y-95868302D01*
X148779066Y-95867336D01*
X148779255Y-95866915D01*
X148732439Y-95833753D01*
X148712834Y-95775793D01*
X148731042Y-95717380D01*
X148752494Y-95695355D01*
X148852677Y-95620359D01*
X148938927Y-95505144D01*
X148954221Y-95464140D01*
X148975370Y-95407436D01*
X148989222Y-95370296D01*
X148995631Y-95310686D01*
X148995630Y-94977893D01*
X149014537Y-94919703D01*
X149064037Y-94883739D01*
X149068978Y-94882275D01*
X149137792Y-94863837D01*
X149274724Y-94784780D01*
X149386528Y-94672976D01*
X149465585Y-94536044D01*
X149506508Y-94383317D01*
X149506508Y-94225203D01*
X149465585Y-94072476D01*
X149386528Y-93935544D01*
X149315634Y-93864650D01*
X149287859Y-93810136D01*
X149297430Y-93749704D01*
X149337263Y-93709870D01*
X149337097Y-93709642D01*
X149338541Y-93708592D01*
X149340693Y-93706440D01*
X149343403Y-93705060D01*
X149430311Y-93618152D01*
X149486109Y-93508642D01*
X149490050Y-93483761D01*
X149517828Y-93429244D01*
X149572345Y-93401468D01*
X149587831Y-93400249D01*
X149685063Y-93400249D01*
X149685065Y-93400249D01*
X149837792Y-93359326D01*
X149974724Y-93280269D01*
X150086528Y-93168465D01*
X150165585Y-93031533D01*
X150206508Y-92878806D01*
X150206508Y-92720692D01*
X150165585Y-92567965D01*
X150086528Y-92431033D01*
X150025245Y-92369750D01*
X149997470Y-92315236D01*
X150007041Y-92254804D01*
X150025244Y-92229748D01*
X150086528Y-92168465D01*
X150165585Y-92031533D01*
X150206508Y-91878806D01*
X150206508Y-91720692D01*
X150165585Y-91567965D01*
X150086528Y-91431033D01*
X149974724Y-91319229D01*
X149837792Y-91240172D01*
X149685065Y-91199249D01*
X149587830Y-91199249D01*
X149529639Y-91180342D01*
X149493675Y-91130842D01*
X149490049Y-91115735D01*
X149486109Y-91090857D01*
X149486106Y-91090849D01*
X149430312Y-90981348D01*
X149430311Y-90981346D01*
X149343403Y-90894438D01*
X149343400Y-90894436D01*
X149233896Y-90838641D01*
X149233894Y-90838640D01*
X149143035Y-90824249D01*
X148958597Y-90824249D01*
X148900406Y-90805342D01*
X148864486Y-90755974D01*
X148846390Y-90700546D01*
X148846351Y-90673589D01*
X148844236Y-90646710D01*
X148846308Y-90643327D01*
X148846303Y-90639361D01*
X148862116Y-90617530D01*
X148876205Y-90594541D01*
X148881639Y-90590580D01*
X148882198Y-90589810D01*
X148883102Y-90589514D01*
X148888528Y-90585561D01*
X148983738Y-90526833D01*
X149103580Y-90406991D01*
X149127539Y-90368148D01*
X149174180Y-90328547D01*
X149235190Y-90323923D01*
X149271619Y-90341236D01*
X149307108Y-90368148D01*
X149371033Y-90416624D01*
X149371034Y-90416624D01*
X149371035Y-90416625D01*
X149438225Y-90443121D01*
X149505418Y-90469619D01*
X149589864Y-90479760D01*
X149589866Y-90479760D01*
X150122150Y-90479760D01*
X150122152Y-90479760D01*
X150206598Y-90469619D01*
X150340983Y-90416624D01*
X150456086Y-90329338D01*
X150543372Y-90214235D01*
X150545746Y-90208214D01*
X150584680Y-90161018D01*
X150643922Y-90145720D01*
X150687341Y-90158796D01*
X150732442Y-90184835D01*
X150885169Y-90225758D01*
X150885171Y-90225758D01*
X151043281Y-90225758D01*
X151043283Y-90225758D01*
X151196010Y-90184835D01*
X151332942Y-90105778D01*
X151444746Y-89993974D01*
X151523803Y-89857042D01*
X151564726Y-89704315D01*
X151564726Y-89546201D01*
X151523803Y-89393474D01*
X151444746Y-89256542D01*
X151332942Y-89144738D01*
X151196010Y-89065681D01*
X151043283Y-89024758D01*
X150885169Y-89024758D01*
X150808805Y-89045219D01*
X150732440Y-89065681D01*
X150608736Y-89137101D01*
X150548888Y-89149822D01*
X150492992Y-89124935D01*
X150480353Y-89111183D01*
X150471493Y-89099500D01*
X150456086Y-89079182D01*
X150340983Y-88991896D01*
X150340982Y-88991895D01*
X150340980Y-88991894D01*
X150340172Y-88991576D01*
X150339656Y-88991150D01*
X150335081Y-88988578D01*
X150335542Y-88987756D01*
X150292978Y-88952636D01*
X150277684Y-88893393D01*
X150300134Y-88836475D01*
X150334343Y-88811626D01*
X150333906Y-88810849D01*
X150339805Y-88807532D01*
X150339804Y-88807532D01*
X150339808Y-88807531D01*
X150454911Y-88720245D01*
X150487986Y-88676628D01*
X150538209Y-88641688D01*
X150599382Y-88642940D01*
X150616367Y-88650712D01*
X150631722Y-88659577D01*
X150635467Y-88661739D01*
X150788194Y-88702662D01*
X150788196Y-88702662D01*
X150946306Y-88702662D01*
X150946308Y-88702662D01*
X151099035Y-88661739D01*
X151235967Y-88582682D01*
X151347771Y-88470878D01*
X151426828Y-88333946D01*
X151467751Y-88181219D01*
X151467751Y-88023105D01*
X151426828Y-87870378D01*
X151347771Y-87733446D01*
X151235967Y-87621642D01*
X151099035Y-87542585D01*
X150946308Y-87501662D01*
X150788194Y-87501662D01*
X150635467Y-87542585D01*
X150635465Y-87542585D01*
X150635465Y-87542586D01*
X150635462Y-87542587D01*
X150623742Y-87549353D01*
X150563893Y-87562071D01*
X150507999Y-87537182D01*
X150495363Y-87523433D01*
X150480498Y-87503831D01*
X150454911Y-87470089D01*
X150339808Y-87382803D01*
X150339807Y-87382802D01*
X150339805Y-87382801D01*
X150205424Y-87329808D01*
X150120981Y-87319667D01*
X150120977Y-87319667D01*
X149588689Y-87319667D01*
X149588684Y-87319667D01*
X149504241Y-87329808D01*
X149369860Y-87382801D01*
X149369856Y-87382804D01*
X149270444Y-87458190D01*
X149212653Y-87478285D01*
X149154087Y-87460574D01*
X149126364Y-87431279D01*
X149102404Y-87392434D01*
X148982562Y-87272592D01*
X148838320Y-87183621D01*
X148677436Y-87130310D01*
X148578156Y-87120167D01*
X148554834Y-87120167D01*
X148554833Y-87120168D01*
X148554833Y-88651514D01*
X148556008Y-88666442D01*
X148556008Y-90685260D01*
X148537101Y-90743451D01*
X148487601Y-90779415D01*
X148457008Y-90784260D01*
X148375001Y-90784260D01*
X148375000Y-90784261D01*
X148375000Y-90975749D01*
X148370155Y-90990660D01*
X148370155Y-91006342D01*
X148360938Y-91019027D01*
X148356093Y-91033940D01*
X148343407Y-91043156D01*
X148334191Y-91055842D01*
X148319278Y-91060687D01*
X148306593Y-91069904D01*
X148276000Y-91074749D01*
X148274499Y-91074749D01*
X148216308Y-91055842D01*
X148180344Y-91006342D01*
X148175499Y-90975749D01*
X148175499Y-90856714D01*
X148170357Y-90824249D01*
X148161109Y-90765856D01*
X148161106Y-90765851D01*
X148161106Y-90765849D01*
X148105312Y-90656348D01*
X148105311Y-90656346D01*
X148088326Y-90639361D01*
X148053996Y-90605030D01*
X148026219Y-90550513D01*
X148025000Y-90535027D01*
X148025000Y-90266764D01*
X148043907Y-90208573D01*
X148053996Y-90196760D01*
X148056008Y-90194748D01*
X148056008Y-89147912D01*
X148054833Y-89132985D01*
X148054833Y-87120167D01*
X148054832Y-87120166D01*
X148031522Y-87120167D01*
X148031517Y-87120168D01*
X147932234Y-87130309D01*
X147932223Y-87130312D01*
X147771345Y-87183621D01*
X147627103Y-87272592D01*
X147507260Y-87392435D01*
X147465826Y-87459608D01*
X147419184Y-87499209D01*
X147358173Y-87503831D01*
X147321747Y-87486518D01*
X147272271Y-87448999D01*
X147225522Y-87413548D01*
X147225521Y-87413547D01*
X147225519Y-87413546D01*
X147091138Y-87360553D01*
X147006695Y-87350412D01*
X147006691Y-87350412D01*
X146424403Y-87350412D01*
X146424398Y-87350412D01*
X146339955Y-87360553D01*
X146205574Y-87413546D01*
X146090466Y-87500836D01*
X146074030Y-87522511D01*
X146023803Y-87557452D01*
X145962630Y-87556198D01*
X145945649Y-87548427D01*
X145931788Y-87540425D01*
X145931786Y-87540424D01*
X145931784Y-87540423D01*
X145779057Y-87499500D01*
X145620943Y-87499500D01*
X145468216Y-87540423D01*
X145331284Y-87619480D01*
X145219480Y-87731284D01*
X145140423Y-87868216D01*
X145099500Y-88020943D01*
X145099500Y-88179057D01*
X145140423Y-88331784D01*
X145219480Y-88468716D01*
X145331284Y-88580520D01*
X145468216Y-88659577D01*
X145620943Y-88700500D01*
X145620945Y-88700500D01*
X145779055Y-88700500D01*
X145779057Y-88700500D01*
X145931784Y-88659577D01*
X145944683Y-88652129D01*
X146004527Y-88639406D01*
X146060425Y-88664289D01*
X146073068Y-88678044D01*
X146090469Y-88700990D01*
X146205572Y-88788276D01*
X146205573Y-88788276D01*
X146205574Y-88788277D01*
X146207961Y-88789619D01*
X146209390Y-88791170D01*
X146210968Y-88792367D01*
X146210753Y-88792650D01*
X146249415Y-88834621D01*
X146256501Y-88895395D01*
X146226512Y-88948727D01*
X146207961Y-88962205D01*
X146205574Y-88963546D01*
X146103735Y-89040774D01*
X146090469Y-89050834D01*
X146015404Y-89149822D01*
X146003181Y-89165940D01*
X145980194Y-89224231D01*
X145941257Y-89271428D01*
X145888097Y-89286912D01*
X144277156Y-89286912D01*
X144218965Y-89268005D01*
X144207153Y-89257916D01*
X144168718Y-89219482D01*
X144168716Y-89219480D01*
X144031784Y-89140423D01*
X143879057Y-89099500D01*
X143720943Y-89099500D01*
X143568216Y-89140423D01*
X143431284Y-89219480D01*
X143319480Y-89331284D01*
X143240423Y-89468216D01*
X143199500Y-89620943D01*
X143199500Y-89779057D01*
X143240423Y-89931784D01*
X143319480Y-90068716D01*
X143431284Y-90180520D01*
X143568216Y-90259577D01*
X143720943Y-90300500D01*
X143720945Y-90300500D01*
X143879055Y-90300500D01*
X143879057Y-90300500D01*
X144031784Y-90259577D01*
X144168716Y-90180520D01*
X144280520Y-90068716D01*
X144283005Y-90064412D01*
X144328475Y-90023471D01*
X144368742Y-90014912D01*
X145888097Y-90014912D01*
X145946288Y-90033819D01*
X145980194Y-90077593D01*
X145991309Y-90105777D01*
X146003183Y-90135887D01*
X146090469Y-90250990D01*
X146205572Y-90338276D01*
X146205573Y-90338276D01*
X146205574Y-90338277D01*
X146213078Y-90341236D01*
X146339957Y-90391271D01*
X146424403Y-90401412D01*
X146737000Y-90401412D01*
X146795191Y-90420319D01*
X146831155Y-90469819D01*
X146836000Y-90500412D01*
X146836000Y-90529632D01*
X146817093Y-90587823D01*
X146767593Y-90623787D01*
X146724081Y-90627786D01*
X146701006Y-90624749D01*
X146650001Y-90624749D01*
X146650000Y-90624750D01*
X146650000Y-91200749D01*
X146631093Y-91258940D01*
X146581593Y-91294904D01*
X146551000Y-91299749D01*
X146470671Y-91299749D01*
X146424977Y-91323030D01*
X146409493Y-91324249D01*
X146256965Y-91324249D01*
X146166107Y-91338640D01*
X146166100Y-91338642D01*
X146056599Y-91394436D01*
X146056595Y-91394439D01*
X146005281Y-91445753D01*
X145950764Y-91473530D01*
X145935278Y-91474749D01*
X145699236Y-91474749D01*
X145661737Y-91497059D01*
X145639888Y-91499500D01*
X145620943Y-91499500D01*
X145468216Y-91540423D01*
X145331284Y-91619480D01*
X145219480Y-91731284D01*
X145140423Y-91868216D01*
X145105456Y-91998711D01*
X145072134Y-92050024D01*
X145015012Y-92071951D01*
X145009831Y-92072087D01*
X143897247Y-92072087D01*
X143839056Y-92053180D01*
X143803092Y-92003680D01*
X143801903Y-91958374D01*
X143799653Y-91958078D01*
X143800500Y-91951644D01*
X143800500Y-91793531D01*
X143787922Y-91746590D01*
X143759577Y-91640803D01*
X143680520Y-91503871D01*
X143592994Y-91416345D01*
X143589369Y-91409230D01*
X143582907Y-91404535D01*
X143575743Y-91382486D01*
X143565219Y-91361831D01*
X143564000Y-91346344D01*
X143564000Y-91152079D01*
X143564000Y-91152078D01*
X143556677Y-91124749D01*
X145706449Y-91124749D01*
X146299999Y-91124749D01*
X146300000Y-91124748D01*
X146300000Y-90624748D01*
X146248992Y-90624749D01*
X146248986Y-90624750D01*
X146134133Y-90639869D01*
X146134132Y-90639870D01*
X145991217Y-90699066D01*
X145868492Y-90793237D01*
X145868488Y-90793241D01*
X145774317Y-90915966D01*
X145715121Y-91058880D01*
X145715120Y-91058880D01*
X145706449Y-91124749D01*
X143556677Y-91124749D01*
X143539194Y-91059501D01*
X143491273Y-90976499D01*
X143490523Y-90975749D01*
X143423502Y-90908727D01*
X143123503Y-90608729D01*
X143123501Y-90608727D01*
X143040499Y-90560806D01*
X142947922Y-90536000D01*
X142947920Y-90536000D01*
X139491782Y-90536000D01*
X139433591Y-90517093D01*
X139421778Y-90507004D01*
X138392996Y-89478222D01*
X138365219Y-89423705D01*
X138364000Y-89408218D01*
X138364000Y-88101002D01*
X138382907Y-88042811D01*
X138392996Y-88030998D01*
X138804514Y-87619480D01*
X139221901Y-87202092D01*
X139276416Y-87174317D01*
X139336848Y-87183888D01*
X139341369Y-87186342D01*
X139468216Y-87259577D01*
X139620943Y-87300500D01*
X139620945Y-87300500D01*
X139779055Y-87300500D01*
X139779057Y-87300500D01*
X139931784Y-87259577D01*
X139997002Y-87221923D01*
X140007347Y-87219724D01*
X140015907Y-87213506D01*
X140036605Y-87213506D01*
X140056849Y-87209203D01*
X140066513Y-87213506D01*
X140077093Y-87213506D01*
X140093838Y-87225672D01*
X140112744Y-87234090D01*
X140118033Y-87243250D01*
X140126593Y-87249470D01*
X140132988Y-87269154D01*
X140143337Y-87287078D01*
X140145500Y-87307661D01*
X140145500Y-87436268D01*
X140140483Y-87461514D01*
X140142103Y-87461949D01*
X140140424Y-87468213D01*
X140140423Y-87468216D01*
X140099500Y-87620943D01*
X140099500Y-87779057D01*
X140140423Y-87931784D01*
X140219480Y-88068716D01*
X140331284Y-88180520D01*
X140468216Y-88259577D01*
X140620943Y-88300500D01*
X140620945Y-88300500D01*
X140779055Y-88300500D01*
X140779057Y-88300500D01*
X140931784Y-88259577D01*
X141068716Y-88180520D01*
X141180520Y-88068716D01*
X141259577Y-87931784D01*
X141300500Y-87779057D01*
X141300500Y-87620943D01*
X141259577Y-87468216D01*
X141259575Y-87468213D01*
X141257897Y-87461949D01*
X141259516Y-87461514D01*
X141254500Y-87436268D01*
X141254500Y-87163732D01*
X141259593Y-87138506D01*
X141257897Y-87138052D01*
X141259971Y-87130312D01*
X141300500Y-86979057D01*
X141300500Y-86820943D01*
X141259577Y-86668216D01*
X141259575Y-86668213D01*
X141257897Y-86661949D01*
X141259516Y-86661514D01*
X141254500Y-86636268D01*
X141254500Y-85369793D01*
X141273407Y-85311602D01*
X141322907Y-85275638D01*
X141353500Y-85270793D01*
X142100435Y-85270793D01*
X142171225Y-85251824D01*
X142232326Y-85255025D01*
X142279876Y-85293529D01*
X142295849Y-85347450D01*
X142295849Y-85437458D01*
X142324250Y-85543453D01*
X142324983Y-85546188D01*
X142349111Y-85587979D01*
X142381264Y-85643668D01*
X143706681Y-86969085D01*
X143804163Y-87025367D01*
X143912891Y-87054500D01*
X144025454Y-87054500D01*
X144253749Y-87054500D01*
X144311940Y-87073407D01*
X144323746Y-87083490D01*
X144347776Y-87107520D01*
X144484708Y-87186577D01*
X144637435Y-87227500D01*
X144637437Y-87227500D01*
X144795547Y-87227500D01*
X144795549Y-87227500D01*
X144948276Y-87186577D01*
X145085208Y-87107520D01*
X145197012Y-86995716D01*
X145276069Y-86858784D01*
X145316992Y-86706057D01*
X145316992Y-86547943D01*
X145316992Y-86547942D01*
X145316145Y-86541509D01*
X145318684Y-86541174D01*
X145321318Y-86491013D01*
X145359828Y-86443467D01*
X145413739Y-86427500D01*
X145556279Y-86427500D01*
X145556281Y-86427500D01*
X145665009Y-86398367D01*
X145762491Y-86342085D01*
X146048081Y-86056496D01*
X146102597Y-86028719D01*
X146118084Y-86027500D01*
X147539248Y-86027500D01*
X147539250Y-86027500D01*
X147647978Y-85998367D01*
X147745460Y-85942085D01*
X148150042Y-85537501D01*
X148204557Y-85509725D01*
X148254639Y-85514747D01*
X148331602Y-85543453D01*
X148391212Y-85549862D01*
X149036957Y-85549861D01*
X149096568Y-85543453D01*
X149186998Y-85509725D01*
X149231414Y-85493159D01*
X149231414Y-85493158D01*
X149231416Y-85493158D01*
X149346631Y-85406908D01*
X149432881Y-85291693D01*
X149451521Y-85241718D01*
X149465712Y-85203667D01*
X149483176Y-85156845D01*
X149489585Y-85097235D01*
X149489584Y-84601490D01*
X149483176Y-84541879D01*
X149467565Y-84500024D01*
X149432882Y-84407032D01*
X149346634Y-84291820D01*
X149346633Y-84291819D01*
X149346631Y-84291816D01*
X149337978Y-84285338D01*
X149231414Y-84205564D01*
X149096573Y-84155272D01*
X149096568Y-84155271D01*
X149096566Y-84155270D01*
X149096562Y-84155270D01*
X149065334Y-84151912D01*
X149036958Y-84148862D01*
X149036955Y-84148862D01*
X148512026Y-84148862D01*
X148498558Y-84144486D01*
X148484406Y-84144931D01*
X148470187Y-84135268D01*
X148453835Y-84129955D01*
X148445511Y-84118498D01*
X148433801Y-84110540D01*
X148428517Y-84095108D01*
X148417871Y-84080455D01*
X148413075Y-84052972D01*
X148413026Y-84051413D01*
X148413026Y-84017526D01*
X148411819Y-84013022D01*
X148411472Y-84001971D01*
X148418698Y-83977096D01*
X148423420Y-83951622D01*
X148427119Y-83948111D01*
X148428542Y-83943215D01*
X148449007Y-83927340D01*
X148467802Y-83909505D01*
X148473729Y-83908163D01*
X148476888Y-83905714D01*
X148485792Y-83905434D01*
X148510419Y-83899861D01*
X149036957Y-83899861D01*
X149096568Y-83893453D01*
X149163992Y-83868305D01*
X149231414Y-83843159D01*
X149231414Y-83843158D01*
X149231416Y-83843158D01*
X149346631Y-83756908D01*
X149432881Y-83641693D01*
X149483176Y-83506845D01*
X149489585Y-83447235D01*
X149489584Y-82951490D01*
X149483176Y-82891879D01*
X149480758Y-82885395D01*
X149432882Y-82757032D01*
X149346634Y-82641820D01*
X149346633Y-82641819D01*
X149346631Y-82641816D01*
X149324783Y-82625461D01*
X149289533Y-82575455D01*
X149288489Y-82520587D01*
X149295605Y-82494031D01*
X149295605Y-82335917D01*
X149254682Y-82183190D01*
X149175625Y-82046258D01*
X149063821Y-81934454D01*
X148926889Y-81855397D01*
X148774162Y-81814474D01*
X148616048Y-81814474D01*
X148463321Y-81855397D01*
X148326389Y-81934454D01*
X148214585Y-82046258D01*
X148135528Y-82183190D01*
X148094605Y-82335917D01*
X148094605Y-82494031D01*
X148108281Y-82545070D01*
X148105078Y-82606172D01*
X148085668Y-82636062D01*
X148085782Y-82636148D01*
X148084507Y-82637850D01*
X148082663Y-82640691D01*
X148081541Y-82641813D01*
X147995287Y-82757032D01*
X147944751Y-82892529D01*
X147906701Y-82940444D01*
X147847754Y-82956842D01*
X147790426Y-82935460D01*
X147760653Y-82890557D01*
X147758922Y-82891203D01*
X147706464Y-82750554D01*
X147620216Y-82635342D01*
X147620215Y-82635341D01*
X147620213Y-82635338D01*
X147584999Y-82608977D01*
X147504997Y-82549087D01*
X147457506Y-82531374D01*
X147409592Y-82493323D01*
X147396476Y-82464239D01*
X147386034Y-82425267D01*
X147386032Y-82425264D01*
X147386032Y-82425262D01*
X147329755Y-82327788D01*
X147329754Y-82327787D01*
X147329753Y-82327786D01*
X147329752Y-82327784D01*
X145859882Y-80857915D01*
X145859875Y-80857911D01*
X145762402Y-80801634D01*
X145762401Y-80801633D01*
X145762400Y-80801633D01*
X145653672Y-80772500D01*
X142756281Y-80772500D01*
X142643718Y-80772500D01*
X142577173Y-80790330D01*
X142534986Y-80801634D01*
X142437512Y-80857911D01*
X142437511Y-80857912D01*
X142437508Y-80857914D01*
X142437508Y-80857915D01*
X142137509Y-81157915D01*
X142137508Y-81157914D01*
X142057915Y-81237508D01*
X142057913Y-81237510D01*
X142001634Y-81334988D01*
X142001633Y-81334990D01*
X142001633Y-81334991D01*
X141976539Y-81428647D01*
X141972500Y-81443720D01*
X141972500Y-82142122D01*
X141953593Y-82200313D01*
X141904093Y-82236277D01*
X141873500Y-82241122D01*
X141377380Y-82241122D01*
X141231376Y-82241122D01*
X141182613Y-82254187D01*
X141121512Y-82250985D01*
X141073962Y-82212480D01*
X141057991Y-82158561D01*
X141057991Y-81430489D01*
X141057813Y-81429828D01*
X141057494Y-81428633D01*
X141020203Y-81289461D01*
X140962241Y-81189069D01*
X140947202Y-81163020D01*
X140942096Y-81157914D01*
X140843962Y-81059779D01*
X140843962Y-81059780D01*
X140352470Y-80568288D01*
X140324693Y-80513771D01*
X140323474Y-80498284D01*
X140323474Y-80060711D01*
X140323474Y-80060708D01*
X140320560Y-80035581D01*
X140318605Y-80028395D01*
X140321084Y-80027720D01*
X140316078Y-79978615D01*
X140346836Y-79925723D01*
X140402809Y-79901011D01*
X140412850Y-79900500D01*
X162894492Y-79900500D01*
X162952683Y-79919407D01*
G37*
%TD.AperFunction*%
%TD*%
M02*
