%TF.GenerationSoftware,KiCad,Pcbnew,9.0.6*%
%TF.CreationDate,2026-02-21T13:52:17+10:00*%
%TF.ProjectId,ae-tracker-db,61652d74-7261-4636-9b65-722d64622e6b,rev?*%
%TF.SameCoordinates,Original*%
%TF.FileFunction,Soldermask,Top*%
%TF.FilePolarity,Negative*%
%FSLAX46Y46*%
G04 Gerber Fmt 4.6, Leading zero omitted, Abs format (unit mm)*
G04 Created by KiCad (PCBNEW 9.0.6) date 2026-02-21 13:52:17*
%MOMM*%
%LPD*%
G01*
G04 APERTURE LIST*
G04 Aperture macros list*
%AMRoundRect*
0 Rectangle with rounded corners*
0 $1 Rounding radius*
0 $2 $3 $4 $5 $6 $7 $8 $9 X,Y pos of 4 corners*
0 Add a 4 corners polygon primitive as box body*
4,1,4,$2,$3,$4,$5,$6,$7,$8,$9,$2,$3,0*
0 Add four circle primitives for the rounded corners*
1,1,$1+$1,$2,$3*
1,1,$1+$1,$4,$5*
1,1,$1+$1,$6,$7*
1,1,$1+$1,$8,$9*
0 Add four rect primitives between the rounded corners*
20,1,$1+$1,$2,$3,$4,$5,0*
20,1,$1+$1,$4,$5,$6,$7,0*
20,1,$1+$1,$6,$7,$8,$9,0*
20,1,$1+$1,$8,$9,$2,$3,0*%
%AMFreePoly0*
4,1,23,0.500000,-0.750000,0.000000,-0.750000,0.000000,-0.745722,-0.065263,-0.745722,-0.191342,-0.711940,-0.304381,-0.646677,-0.396677,-0.554381,-0.461940,-0.441342,-0.495722,-0.315263,-0.495722,-0.250000,-0.500000,-0.250000,-0.500000,0.250000,-0.495722,0.250000,-0.495722,0.315263,-0.461940,0.441342,-0.396677,0.554381,-0.304381,0.646677,-0.191342,0.711940,-0.065263,0.745722,0.000000,0.745722,
0.000000,0.750000,0.500000,0.750000,0.500000,-0.750000,0.500000,-0.750000,$1*%
%AMFreePoly1*
4,1,23,0.000000,0.745722,0.065263,0.745722,0.191342,0.711940,0.304381,0.646677,0.396677,0.554381,0.461940,0.441342,0.495722,0.315263,0.495722,0.250000,0.500000,0.250000,0.500000,-0.250000,0.495722,-0.250000,0.495722,-0.315263,0.461940,-0.441342,0.396677,-0.554381,0.304381,-0.646677,0.191342,-0.711940,0.065263,-0.745722,0.000000,-0.745722,0.000000,-0.750000,-0.500000,-0.750000,
-0.500000,0.750000,0.000000,0.750000,0.000000,0.745722,0.000000,0.745722,$1*%
G04 Aperture macros list end*
%ADD10RoundRect,0.225000X-0.225000X-0.250000X0.225000X-0.250000X0.225000X0.250000X-0.225000X0.250000X0*%
%ADD11RoundRect,0.200000X0.275000X-0.200000X0.275000X0.200000X-0.275000X0.200000X-0.275000X-0.200000X0*%
%ADD12RoundRect,0.150000X-0.150000X0.825000X-0.150000X-0.825000X0.150000X-0.825000X0.150000X0.825000X0*%
%ADD13RoundRect,0.225000X0.250000X-0.225000X0.250000X0.225000X-0.250000X0.225000X-0.250000X-0.225000X0*%
%ADD14R,1.700000X1.700000*%
%ADD15RoundRect,0.200000X-0.275000X0.200000X-0.275000X-0.200000X0.275000X-0.200000X0.275000X0.200000X0*%
%ADD16RoundRect,0.062500X0.062500X-0.187500X0.062500X0.187500X-0.062500X0.187500X-0.062500X-0.187500X0*%
%ADD17R,1.600000X0.900000*%
%ADD18C,1.700000*%
%ADD19RoundRect,0.200000X-0.200000X-0.275000X0.200000X-0.275000X0.200000X0.275000X-0.200000X0.275000X0*%
%ADD20RoundRect,0.225000X0.225000X0.250000X-0.225000X0.250000X-0.225000X-0.250000X0.225000X-0.250000X0*%
%ADD21RoundRect,0.250000X0.625000X-0.312500X0.625000X0.312500X-0.625000X0.312500X-0.625000X-0.312500X0*%
%ADD22FreePoly0,180.000000*%
%ADD23FreePoly1,180.000000*%
%ADD24RoundRect,0.250000X-1.000000X-0.900000X1.000000X-0.900000X1.000000X0.900000X-1.000000X0.900000X0*%
%ADD25RoundRect,0.087500X-0.187500X-0.087500X0.187500X-0.087500X0.187500X0.087500X-0.187500X0.087500X0*%
%ADD26RoundRect,0.087500X-0.087500X-0.187500X0.087500X-0.187500X0.087500X0.187500X-0.087500X0.187500X0*%
%ADD27RoundRect,0.200000X0.200000X0.275000X-0.200000X0.275000X-0.200000X-0.275000X0.200000X-0.275000X0*%
%ADD28RoundRect,0.100000X-0.625000X-0.100000X0.625000X-0.100000X0.625000X0.100000X-0.625000X0.100000X0*%
%ADD29R,1.680000X1.880000*%
%ADD30RoundRect,0.250000X-0.650000X-1.550000X0.650000X-1.550000X0.650000X1.550000X-0.650000X1.550000X0*%
%ADD31O,1.800000X3.600000*%
G04 APERTURE END LIST*
%TO.C,JP1*%
G36*
X141830777Y-109926007D02*
G01*
X141530777Y-109926007D01*
X141530777Y-108426007D01*
X141830777Y-108426007D01*
X141830777Y-109926007D01*
G37*
%TD*%
D10*
%TO.C,C6*%
X148306008Y-89704260D03*
X149856008Y-89704260D03*
%TD*%
D11*
%TO.C,R2*%
X147921489Y-103370000D03*
X147921489Y-101720000D03*
%TD*%
D12*
%TO.C,U1*%
X144371888Y-101658414D03*
X143101888Y-101658414D03*
X141831888Y-101658414D03*
X140561888Y-101658414D03*
X140561888Y-106608414D03*
X141831888Y-106608414D03*
X143101888Y-106608414D03*
X144371888Y-106608414D03*
%TD*%
D11*
%TO.C,R16*%
X158100000Y-100500000D03*
X158100000Y-98850000D03*
%TD*%
D13*
%TO.C,C3*%
X146715547Y-89650912D03*
X146715547Y-88100912D03*
%TD*%
D14*
%TO.C,J2*%
X139172975Y-80955572D03*
%TD*%
D15*
%TO.C,R13*%
X146987667Y-83192884D03*
X146987667Y-84842884D03*
%TD*%
D16*
%TO.C,U3*%
X142228491Y-84695622D03*
X142728491Y-84695622D03*
X143228491Y-84695622D03*
X143728491Y-84695622D03*
X143728491Y-82795622D03*
X143228491Y-82795622D03*
X142728491Y-82795622D03*
X142228491Y-82795622D03*
D17*
X142978491Y-83745622D03*
%TD*%
D14*
%TO.C,J4*%
X136000000Y-119000000D03*
D18*
X136000000Y-116460000D03*
X136000000Y-113920000D03*
X136000000Y-111380000D03*
X136000000Y-108840000D03*
X136000000Y-106300000D03*
X136000000Y-103760000D03*
X136000000Y-101220000D03*
X136000000Y-98680000D03*
X136000000Y-96140000D03*
X136000000Y-93600000D03*
X136000000Y-91060000D03*
X136000000Y-88520000D03*
X136000000Y-85980000D03*
X136000000Y-83440000D03*
X136000000Y-80900000D03*
%TD*%
D11*
%TO.C,R15*%
X158100000Y-103600000D03*
X158100000Y-101950000D03*
%TD*%
%TO.C,R12*%
X148220131Y-96712813D03*
X148220131Y-95062813D03*
%TD*%
D10*
%TO.C,C1*%
X141938416Y-99495917D03*
X143488416Y-99495917D03*
%TD*%
D19*
%TO.C,R9*%
X139057618Y-94495489D03*
X140707618Y-94495489D03*
%TD*%
D15*
%TO.C,R10*%
X138751661Y-100703972D03*
X138751661Y-102353972D03*
%TD*%
D20*
%TO.C,C2*%
X140503491Y-84875614D03*
X138953491Y-84875614D03*
%TD*%
D19*
%TO.C,R8*%
X139089506Y-96182936D03*
X140739506Y-96182936D03*
%TD*%
D21*
%TO.C,F1*%
X158100000Y-108400000D03*
X158100000Y-105475000D03*
%TD*%
D11*
%TO.C,R7*%
X139100000Y-108725000D03*
X139100000Y-107075000D03*
%TD*%
D22*
%TO.C,JP1*%
X142330777Y-109176007D03*
D23*
X141030777Y-109176007D03*
%TD*%
D24*
%TO.C,D1*%
X150350000Y-107037500D03*
X154650000Y-107037500D03*
%TD*%
D25*
%TO.C,U2*%
X146475000Y-91299749D03*
X146475000Y-91799749D03*
X146475000Y-92299749D03*
X146475000Y-92799749D03*
X146475000Y-93299749D03*
D26*
X147200000Y-93524749D03*
X147700000Y-93524749D03*
X148200000Y-93524749D03*
D25*
X148925000Y-93299749D03*
X148925000Y-92799749D03*
X148925000Y-92299749D03*
X148925000Y-91799749D03*
X148925000Y-91299749D03*
D26*
X148200000Y-91074749D03*
X147700000Y-91074749D03*
X147200000Y-91074749D03*
%TD*%
D20*
%TO.C,C5*%
X140503491Y-83200000D03*
X138953491Y-83200000D03*
%TD*%
D27*
%TO.C,R11*%
X140746454Y-97869562D03*
X139096454Y-97869562D03*
%TD*%
D28*
%TO.C,U4*%
X150401489Y-101750000D03*
X150401489Y-102400000D03*
X150401489Y-103050000D03*
X150401489Y-103700000D03*
X154701489Y-103700000D03*
X154701489Y-103050000D03*
X154701489Y-102400000D03*
X154701489Y-101750000D03*
D29*
X152551489Y-102725000D03*
%TD*%
D11*
%TO.C,R14*%
X145232881Y-84878768D03*
X145232881Y-83228768D03*
%TD*%
%TO.C,TH1*%
X148714085Y-84849362D03*
X148714085Y-83199362D03*
%TD*%
D10*
%TO.C,C4*%
X148304833Y-88095167D03*
X149854833Y-88095167D03*
%TD*%
D30*
%TO.C,J3*%
X145400000Y-111867500D03*
D31*
X148900000Y-111867500D03*
X152400000Y-111867500D03*
X155900000Y-111867500D03*
%TD*%
M02*
