%TF.GenerationSoftware,KiCad,Pcbnew,9.0.6*%
%TF.CreationDate,2026-02-23T11:34:12+10:00*%
%TF.ProjectId,ae-tracker-db,61652d74-7261-4636-9b65-722d64622e6b,rev?*%
%TF.SameCoordinates,Original*%
%TF.FileFunction,Copper,L2,Bot*%
%TF.FilePolarity,Positive*%
%FSLAX46Y46*%
G04 Gerber Fmt 4.6, Leading zero omitted, Abs format (unit mm)*
G04 Created by KiCad (PCBNEW 9.0.6) date 2026-02-23 11:34:12*
%MOMM*%
%LPD*%
G01*
G04 APERTURE LIST*
G04 Aperture macros list*
%AMRoundRect*
0 Rectangle with rounded corners*
0 $1 Rounding radius*
0 $2 $3 $4 $5 $6 $7 $8 $9 X,Y pos of 4 corners*
0 Add a 4 corners polygon primitive as box body*
4,1,4,$2,$3,$4,$5,$6,$7,$8,$9,$2,$3,0*
0 Add four circle primitives for the rounded corners*
1,1,$1+$1,$2,$3*
1,1,$1+$1,$4,$5*
1,1,$1+$1,$6,$7*
1,1,$1+$1,$8,$9*
0 Add four rect primitives between the rounded corners*
20,1,$1+$1,$2,$3,$4,$5,0*
20,1,$1+$1,$4,$5,$6,$7,0*
20,1,$1+$1,$6,$7,$8,$9,0*
20,1,$1+$1,$8,$9,$2,$3,0*%
G04 Aperture macros list end*
%TA.AperFunction,ComponentPad*%
%ADD10R,1.700000X1.700000*%
%TD*%
%TA.AperFunction,ComponentPad*%
%ADD11C,1.700000*%
%TD*%
%TA.AperFunction,ComponentPad*%
%ADD12RoundRect,0.250000X-0.650000X-1.550000X0.650000X-1.550000X0.650000X1.550000X-0.650000X1.550000X0*%
%TD*%
%TA.AperFunction,ComponentPad*%
%ADD13O,1.800000X3.600000*%
%TD*%
%TA.AperFunction,ViaPad*%
%ADD14C,0.600000*%
%TD*%
%TA.AperFunction,Conductor*%
%ADD15C,0.127000*%
%TD*%
%TA.AperFunction,Conductor*%
%ADD16C,0.508000*%
%TD*%
%TA.AperFunction,Conductor*%
%ADD17C,0.254000*%
%TD*%
G04 APERTURE END LIST*
D10*
%TO.P,J2,1,Pin_1*%
%TO.N,BATT_V*%
X139172975Y-80955572D03*
%TD*%
%TO.P,J4,1,Pin_1*%
%TO.N,+3.3V*%
X136000000Y-119000000D03*
D11*
%TO.P,J4,2,Pin_2*%
%TO.N,GND*%
X136000000Y-116460000D03*
%TO.P,J4,3,Pin_3*%
%TO.N,SUPPLY_EN*%
X136000000Y-113920000D03*
%TO.P,J4,4,Pin_4*%
%TO.N,ESP_TX*%
X136000000Y-111380000D03*
%TO.P,J4,5,Pin_5*%
%TO.N,ESP_RX*%
X136000000Y-108840000D03*
%TO.P,J4,6,Pin_6*%
%TO.N,STAT*%
X136000000Y-106300000D03*
%TO.P,J4,7,Pin_7*%
%TO.N,unconnected-(J4-Pin_7-Pad7)*%
X136000000Y-103760000D03*
%TO.P,J4,8,Pin_8*%
%TO.N,unconnected-(J4-Pin_8-Pad8)*%
X136000000Y-101220000D03*
%TO.P,J4,9,Pin_9*%
%TO.N,PG*%
X136000000Y-98680000D03*
%TO.P,J4,10,Pin_10*%
%TO.N,SDA*%
X136000000Y-96140000D03*
%TO.P,J4,11,Pin_11*%
%TO.N,SCL*%
X136000000Y-93600000D03*
%TO.P,J4,12,Pin_12*%
%TO.N,INT1*%
X136000000Y-91060000D03*
%TO.P,J4,13,Pin_13*%
%TO.N,INT2*%
X136000000Y-88520000D03*
%TO.P,J4,14,Pin_14*%
%TO.N,RS*%
X136000000Y-85980000D03*
%TO.P,J4,15,Pin_15*%
%TO.N,GND*%
X136000000Y-83440000D03*
%TO.P,J4,16,Pin_16*%
%TO.N,unconnected-(J4-Pin_16-Pad16)*%
X136000000Y-80900000D03*
%TD*%
D12*
%TO.P,J3,1,Pin_1*%
%TO.N,CAN_L*%
X145400000Y-111867500D03*
D13*
%TO.P,J3,2,Pin_2*%
%TO.N,CAN_H*%
X148900000Y-111867500D03*
%TO.P,J3,3,Pin_3*%
%TO.N,GND*%
X152400000Y-111867500D03*
%TO.P,J3,4,Pin_4*%
%TO.N,SUPPLY_IN*%
X155900000Y-111867500D03*
%TD*%
D14*
%TO.N,GND*%
X145700000Y-88100000D03*
X143472691Y-83774357D03*
X145218099Y-82467329D03*
X145456008Y-93400000D03*
X142480425Y-83783378D03*
X158108780Y-97803624D03*
X150964226Y-89625258D03*
X152971489Y-102195000D03*
X141700000Y-94800000D03*
X156155486Y-103694514D03*
X144600000Y-83900000D03*
X148695105Y-82414974D03*
X138184542Y-83649053D03*
X150867251Y-88102162D03*
X152112873Y-103208152D03*
X149606008Y-92799749D03*
X149150000Y-102500000D03*
X138114767Y-84873002D03*
X148900000Y-108600000D03*
X141743715Y-96236570D03*
X149606008Y-91799749D03*
X151900000Y-108600000D03*
X143500000Y-98500000D03*
X147812526Y-84096583D03*
X152114468Y-102168364D03*
X152971489Y-103195000D03*
%TO.N,SUPPLY*%
X149800000Y-100200000D03*
X148700000Y-100200000D03*
X140700000Y-87700000D03*
X140700000Y-86900000D03*
%TO.N,Net-(U2-ADC1)*%
X143800000Y-89700000D03*
X148100000Y-99446000D03*
%TO.N,Net-(D1-A2)*%
X154656008Y-105437500D03*
X155450000Y-101200000D03*
%TO.N,STAT*%
X143900000Y-82000000D03*
X143200000Y-91872587D03*
X143200000Y-93813500D03*
X139700000Y-86700000D03*
%TO.N,PG*%
X142400000Y-93813500D03*
X139800000Y-85700000D03*
X143056856Y-81827000D03*
X142400000Y-91872587D03*
%TO.N,INT2*%
X147306008Y-94304260D03*
X141500000Y-93563500D03*
X148906008Y-94304260D03*
X141500000Y-91850000D03*
%TO.N,INT1*%
X145700000Y-92100000D03*
X147906008Y-91904260D03*
%TO.N,RS*%
X143000000Y-105000000D03*
%TO.N,SUPPLY_EN*%
X148200000Y-101000000D03*
X145300000Y-101000000D03*
%TO.N,Net-(U3-ISET)*%
X144716492Y-85373000D03*
X144716492Y-86627000D03*
%TD*%
D15*
%TO.N,PG*%
X139956774Y-85856774D02*
X140016226Y-85856774D01*
X140000000Y-85500000D02*
X140000000Y-83900000D01*
X139859452Y-85700000D02*
X139800000Y-85700000D01*
X139800000Y-85700000D02*
X139956774Y-85856774D01*
X139800000Y-85700000D02*
X140000000Y-85500000D01*
X142990500Y-81893356D02*
X143056856Y-81827000D01*
X140000000Y-83900000D02*
X142006644Y-81893356D01*
X142006644Y-81893356D02*
X142990500Y-81893356D01*
%TO.N,Net-(U2-ADC1)*%
X148100000Y-99446000D02*
X142246000Y-99446000D01*
X141400000Y-90900000D02*
X141400000Y-90200000D01*
X140800000Y-98000000D02*
X140800000Y-91500000D01*
X140800000Y-91500000D02*
X141400000Y-90900000D01*
X142246000Y-99446000D02*
X140800000Y-98000000D01*
X141400000Y-90200000D02*
X141900000Y-89700000D01*
X141900000Y-89700000D02*
X143800000Y-89700000D01*
D16*
%TO.N,SUPPLY*%
X140700000Y-87700000D02*
X140700000Y-86900000D01*
X140100000Y-91300000D02*
X140100000Y-98300000D01*
X140700000Y-90700000D02*
X140100000Y-91300000D01*
X142000000Y-100200000D02*
X149800000Y-100200000D01*
X140100000Y-98300000D02*
X142000000Y-100200000D01*
X140700000Y-87700000D02*
X140700000Y-90700000D01*
%TO.N,Net-(D1-A2)*%
X154656008Y-102760481D02*
X154656008Y-105437500D01*
X155450000Y-101966489D02*
X154656008Y-102760481D01*
X155450000Y-101200000D02*
X155450000Y-101966489D01*
D15*
%TO.N,STAT*%
X142000000Y-82400000D02*
X143500000Y-82400000D01*
X140500000Y-86200000D02*
X140500000Y-83900000D01*
X139700000Y-86700000D02*
X140000000Y-86400000D01*
X140265176Y-86400000D02*
X140266176Y-86401000D01*
X143200000Y-93813500D02*
X143200000Y-91872587D01*
X140299000Y-86401000D02*
X140500000Y-86200000D01*
X140500000Y-83900000D02*
X142000000Y-82400000D01*
X140266176Y-86401000D02*
X140299000Y-86401000D01*
X140000000Y-86400000D02*
X140265176Y-86400000D01*
X143500000Y-82400000D02*
X143900000Y-82000000D01*
%TO.N,PG*%
X142400000Y-93813500D02*
X142400000Y-91872587D01*
%TO.N,INT2*%
X147306008Y-94304260D02*
X148906008Y-94304260D01*
X141500000Y-91850000D02*
X141500000Y-93563500D01*
%TO.N,INT1*%
X145700000Y-92100000D02*
X145842257Y-92100000D01*
X146037997Y-91904260D02*
X147906008Y-91904260D01*
X145842257Y-92100000D02*
X146037997Y-91904260D01*
D17*
%TO.N,RS*%
X143000000Y-105000000D02*
X139900000Y-105000000D01*
X137500000Y-87651497D02*
X135878992Y-86030489D01*
X137500000Y-102600000D02*
X137500000Y-87651497D01*
X139900000Y-105000000D02*
X137500000Y-102600000D01*
D15*
%TO.N,SUPPLY_EN*%
X145300000Y-101000000D02*
X148200000Y-101000000D01*
D17*
%TO.N,Net-(U3-ISET)*%
X144716492Y-85373000D02*
X144716492Y-86627000D01*
%TD*%
%TA.AperFunction,Conductor*%
%TO.N,GND*%
G36*
X137768369Y-79920185D02*
G01*
X137814124Y-79972989D01*
X137824619Y-80037751D01*
X137822475Y-80057699D01*
X137822475Y-80057700D01*
X137822475Y-80057704D01*
X137822475Y-81853442D01*
X137822476Y-81853448D01*
X137828883Y-81913055D01*
X137879177Y-82047900D01*
X137879181Y-82047907D01*
X137965427Y-82163116D01*
X137965430Y-82163119D01*
X138080639Y-82249365D01*
X138080646Y-82249369D01*
X138215492Y-82299663D01*
X138215491Y-82299663D01*
X138222419Y-82300407D01*
X138275102Y-82306072D01*
X140070847Y-82306071D01*
X140130458Y-82299663D01*
X140265306Y-82249368D01*
X140380521Y-82163118D01*
X140466771Y-82047903D01*
X140517066Y-81913055D01*
X140523475Y-81853445D01*
X140523474Y-80057700D01*
X140521330Y-80037753D01*
X140533737Y-79968993D01*
X140581348Y-79917857D01*
X140644620Y-79900500D01*
X162869492Y-79900500D01*
X162936531Y-79920185D01*
X162982286Y-79972989D01*
X162993492Y-80024500D01*
X162993492Y-119870989D01*
X162973807Y-119938028D01*
X162921003Y-119983783D01*
X162869492Y-119994989D01*
X137474500Y-119994989D01*
X137407461Y-119975304D01*
X137361706Y-119922500D01*
X137350500Y-119870989D01*
X137350499Y-118102129D01*
X137350498Y-118102123D01*
X137344091Y-118042516D01*
X137293797Y-117907671D01*
X137293793Y-117907664D01*
X137207547Y-117792455D01*
X137207544Y-117792452D01*
X137092335Y-117706206D01*
X137092328Y-117706202D01*
X136957482Y-117655908D01*
X136957483Y-117655908D01*
X136897883Y-117649501D01*
X136897881Y-117649500D01*
X136897873Y-117649500D01*
X136897865Y-117649500D01*
X136887309Y-117649500D01*
X136820270Y-117629815D01*
X136799628Y-117613181D01*
X136129409Y-116942962D01*
X136192993Y-116925925D01*
X136307007Y-116860099D01*
X136400099Y-116767007D01*
X136465925Y-116652993D01*
X136482962Y-116589408D01*
X137115270Y-117221717D01*
X137115270Y-117221716D01*
X137154622Y-117167554D01*
X137251095Y-116978217D01*
X137316757Y-116776130D01*
X137316757Y-116776127D01*
X137350000Y-116566246D01*
X137350000Y-116353753D01*
X137316757Y-116143872D01*
X137316757Y-116143869D01*
X137251095Y-115941782D01*
X137154624Y-115752449D01*
X137115270Y-115698282D01*
X137115269Y-115698282D01*
X136482962Y-116330590D01*
X136465925Y-116267007D01*
X136400099Y-116152993D01*
X136307007Y-116059901D01*
X136192993Y-115994075D01*
X136129407Y-115977036D01*
X136761716Y-115344728D01*
X136707547Y-115305373D01*
X136707547Y-115305372D01*
X136698500Y-115300763D01*
X136647706Y-115252788D01*
X136630912Y-115184966D01*
X136653451Y-115118832D01*
X136698508Y-115079793D01*
X136707816Y-115075051D01*
X136787007Y-115017515D01*
X136879786Y-114950109D01*
X136879788Y-114950106D01*
X136879792Y-114950104D01*
X137030104Y-114799792D01*
X137030106Y-114799788D01*
X137030109Y-114799786D01*
X137155048Y-114627820D01*
X137155047Y-114627820D01*
X137155051Y-114627816D01*
X137251557Y-114438412D01*
X137317246Y-114236243D01*
X137350500Y-114026287D01*
X137350500Y-113813713D01*
X137317246Y-113603757D01*
X137251557Y-113401588D01*
X137155051Y-113212184D01*
X137155049Y-113212181D01*
X137155048Y-113212179D01*
X137030109Y-113040213D01*
X136879786Y-112889890D01*
X136707820Y-112764951D01*
X136707115Y-112764591D01*
X136699054Y-112760485D01*
X136648259Y-112712512D01*
X136631463Y-112644692D01*
X136653999Y-112578556D01*
X136699054Y-112539515D01*
X136707816Y-112535051D01*
X136800793Y-112467500D01*
X136879786Y-112410109D01*
X136879788Y-112410106D01*
X136879792Y-112410104D01*
X137030104Y-112259792D01*
X137030106Y-112259788D01*
X137030109Y-112259786D01*
X137155048Y-112087820D01*
X137155047Y-112087820D01*
X137155051Y-112087816D01*
X137251557Y-111898412D01*
X137317246Y-111696243D01*
X137350500Y-111486287D01*
X137350500Y-111273713D01*
X137317246Y-111063757D01*
X137251557Y-110861588D01*
X137155051Y-110672184D01*
X137155049Y-110672181D01*
X137155048Y-110672179D01*
X137030109Y-110500213D01*
X136879786Y-110349890D01*
X136766361Y-110267483D01*
X143999500Y-110267483D01*
X143999500Y-113467501D01*
X143999501Y-113467518D01*
X144010000Y-113570296D01*
X144010001Y-113570299D01*
X144046308Y-113679865D01*
X144065186Y-113736834D01*
X144157288Y-113886156D01*
X144281344Y-114010212D01*
X144430666Y-114102314D01*
X144597203Y-114157499D01*
X144699991Y-114168000D01*
X146100008Y-114167999D01*
X146202797Y-114157499D01*
X146369334Y-114102314D01*
X146518656Y-114010212D01*
X146642712Y-113886156D01*
X146734814Y-113736834D01*
X146789999Y-113570297D01*
X146800500Y-113467509D01*
X146800499Y-110857278D01*
X147499500Y-110857278D01*
X147499500Y-112877721D01*
X147533985Y-113095452D01*
X147602103Y-113305103D01*
X147602104Y-113305106D01*
X147670122Y-113438596D01*
X147684854Y-113467509D01*
X147702187Y-113501525D01*
X147831752Y-113679858D01*
X147831756Y-113679863D01*
X147987636Y-113835743D01*
X147987641Y-113835747D01*
X148143192Y-113948760D01*
X148165978Y-113965315D01*
X148285639Y-114026286D01*
X148362393Y-114065395D01*
X148362396Y-114065396D01*
X148467221Y-114099455D01*
X148572049Y-114133515D01*
X148789778Y-114168000D01*
X148789779Y-114168000D01*
X149010221Y-114168000D01*
X149010222Y-114168000D01*
X149227951Y-114133515D01*
X149437606Y-114065395D01*
X149634022Y-113965315D01*
X149812365Y-113835742D01*
X149968242Y-113679865D01*
X150097815Y-113501522D01*
X150197895Y-113305106D01*
X150266015Y-113095451D01*
X150300500Y-112877722D01*
X150300500Y-110857318D01*
X151000000Y-110857318D01*
X151000000Y-111617500D01*
X151851518Y-111617500D01*
X151840889Y-111635909D01*
X151800000Y-111788509D01*
X151800000Y-111946491D01*
X151840889Y-112099091D01*
X151851518Y-112117500D01*
X151000000Y-112117500D01*
X151000000Y-112877681D01*
X151034473Y-113095335D01*
X151102567Y-113304910D01*
X151202613Y-113501260D01*
X151332142Y-113679541D01*
X151487958Y-113835357D01*
X151666239Y-113964886D01*
X151862589Y-114064932D01*
X152072163Y-114133026D01*
X152149999Y-114145354D01*
X152150000Y-114145354D01*
X152150000Y-112415982D01*
X152168409Y-112426611D01*
X152321009Y-112467500D01*
X152478991Y-112467500D01*
X152631591Y-112426611D01*
X152650000Y-112415982D01*
X152650000Y-114145354D01*
X152727834Y-114133026D01*
X152727837Y-114133026D01*
X152937410Y-114064932D01*
X153133760Y-113964886D01*
X153312041Y-113835357D01*
X153467857Y-113679541D01*
X153597386Y-113501260D01*
X153697432Y-113304910D01*
X153765526Y-113095335D01*
X153800000Y-112877681D01*
X153800000Y-112117500D01*
X152948482Y-112117500D01*
X152959111Y-112099091D01*
X153000000Y-111946491D01*
X153000000Y-111788509D01*
X152959111Y-111635909D01*
X152948482Y-111617500D01*
X153800000Y-111617500D01*
X153800000Y-110857318D01*
X153799994Y-110857278D01*
X154499500Y-110857278D01*
X154499500Y-112877721D01*
X154533985Y-113095452D01*
X154602103Y-113305103D01*
X154602104Y-113305106D01*
X154670122Y-113438596D01*
X154684854Y-113467509D01*
X154702187Y-113501525D01*
X154831752Y-113679858D01*
X154831756Y-113679863D01*
X154987636Y-113835743D01*
X154987641Y-113835747D01*
X155143192Y-113948760D01*
X155165978Y-113965315D01*
X155285639Y-114026286D01*
X155362393Y-114065395D01*
X155362396Y-114065396D01*
X155467221Y-114099455D01*
X155572049Y-114133515D01*
X155789778Y-114168000D01*
X155789779Y-114168000D01*
X156010221Y-114168000D01*
X156010222Y-114168000D01*
X156227951Y-114133515D01*
X156437606Y-114065395D01*
X156634022Y-113965315D01*
X156812365Y-113835742D01*
X156968242Y-113679865D01*
X157097815Y-113501522D01*
X157197895Y-113305106D01*
X157266015Y-113095451D01*
X157300500Y-112877722D01*
X157300500Y-110857278D01*
X157266015Y-110639549D01*
X157220741Y-110500208D01*
X157197896Y-110429896D01*
X157197895Y-110429893D01*
X157163237Y-110361875D01*
X157097815Y-110233478D01*
X157047848Y-110164704D01*
X156968247Y-110055141D01*
X156968243Y-110055136D01*
X156812363Y-109899256D01*
X156812358Y-109899252D01*
X156634025Y-109769687D01*
X156634024Y-109769686D01*
X156634022Y-109769685D01*
X156536091Y-109719786D01*
X156437606Y-109669604D01*
X156437603Y-109669603D01*
X156227952Y-109601485D01*
X156076516Y-109577500D01*
X156010222Y-109567000D01*
X155789778Y-109567000D01*
X155723484Y-109577500D01*
X155572047Y-109601485D01*
X155362396Y-109669603D01*
X155362393Y-109669604D01*
X155165974Y-109769687D01*
X154987641Y-109899252D01*
X154987636Y-109899256D01*
X154831756Y-110055136D01*
X154831752Y-110055141D01*
X154702187Y-110233474D01*
X154602104Y-110429893D01*
X154602103Y-110429896D01*
X154533985Y-110639547D01*
X154499500Y-110857278D01*
X153799994Y-110857278D01*
X153765526Y-110639664D01*
X153697432Y-110430089D01*
X153597386Y-110233739D01*
X153467857Y-110055458D01*
X153312041Y-109899642D01*
X153133760Y-109770113D01*
X152937410Y-109670067D01*
X152727836Y-109601973D01*
X152650000Y-109589644D01*
X152650000Y-111319017D01*
X152631591Y-111308389D01*
X152478991Y-111267500D01*
X152321009Y-111267500D01*
X152168409Y-111308389D01*
X152150000Y-111319017D01*
X152150000Y-109589644D01*
X152072164Y-109601973D01*
X152072161Y-109601973D01*
X151862589Y-109670067D01*
X151666239Y-109770113D01*
X151487958Y-109899642D01*
X151332142Y-110055458D01*
X151202613Y-110233739D01*
X151102567Y-110430089D01*
X151034473Y-110639664D01*
X151000000Y-110857318D01*
X150300500Y-110857318D01*
X150300500Y-110857278D01*
X150266015Y-110639549D01*
X150220741Y-110500208D01*
X150197896Y-110429896D01*
X150197895Y-110429893D01*
X150163237Y-110361875D01*
X150097815Y-110233478D01*
X150047848Y-110164704D01*
X149968247Y-110055141D01*
X149968243Y-110055136D01*
X149812363Y-109899256D01*
X149812358Y-109899252D01*
X149634025Y-109769687D01*
X149634024Y-109769686D01*
X149634022Y-109769685D01*
X149536091Y-109719786D01*
X149437606Y-109669604D01*
X149437603Y-109669603D01*
X149227952Y-109601485D01*
X149076516Y-109577500D01*
X149010222Y-109567000D01*
X148789778Y-109567000D01*
X148723484Y-109577500D01*
X148572047Y-109601485D01*
X148362396Y-109669603D01*
X148362393Y-109669604D01*
X148165974Y-109769687D01*
X147987641Y-109899252D01*
X147987636Y-109899256D01*
X147831756Y-110055136D01*
X147831752Y-110055141D01*
X147702187Y-110233474D01*
X147602104Y-110429893D01*
X147602103Y-110429896D01*
X147533985Y-110639547D01*
X147499500Y-110857278D01*
X146800499Y-110857278D01*
X146800499Y-110267492D01*
X146797024Y-110233478D01*
X146789999Y-110164703D01*
X146789998Y-110164700D01*
X146734814Y-109998166D01*
X146642712Y-109848844D01*
X146518656Y-109724788D01*
X146369334Y-109632686D01*
X146202797Y-109577501D01*
X146202795Y-109577500D01*
X146100010Y-109567000D01*
X144699998Y-109567000D01*
X144699981Y-109567001D01*
X144597203Y-109577500D01*
X144597200Y-109577501D01*
X144430668Y-109632685D01*
X144430663Y-109632687D01*
X144281342Y-109724789D01*
X144157289Y-109848842D01*
X144065187Y-109998163D01*
X144065186Y-109998166D01*
X144010001Y-110164703D01*
X144010001Y-110164704D01*
X144010000Y-110164704D01*
X143999500Y-110267483D01*
X136766361Y-110267483D01*
X136707820Y-110224951D01*
X136707115Y-110224591D01*
X136699054Y-110220485D01*
X136648259Y-110172512D01*
X136631463Y-110104692D01*
X136653999Y-110038556D01*
X136699054Y-109999515D01*
X136707816Y-109995051D01*
X136729789Y-109979086D01*
X136879786Y-109870109D01*
X136879788Y-109870106D01*
X136879792Y-109870104D01*
X137030104Y-109719792D01*
X137030106Y-109719788D01*
X137030109Y-109719786D01*
X137155048Y-109547820D01*
X137155047Y-109547820D01*
X137155051Y-109547816D01*
X137251557Y-109358412D01*
X137317246Y-109156243D01*
X137350500Y-108946287D01*
X137350500Y-108733713D01*
X137317246Y-108523757D01*
X137251557Y-108321588D01*
X137155051Y-108132184D01*
X137155049Y-108132181D01*
X137155048Y-108132179D01*
X137030109Y-107960213D01*
X136879786Y-107809890D01*
X136707820Y-107684951D01*
X136707115Y-107684591D01*
X136699054Y-107680485D01*
X136648259Y-107632512D01*
X136631463Y-107564692D01*
X136653999Y-107498556D01*
X136699054Y-107459515D01*
X136707816Y-107455051D01*
X136729789Y-107439086D01*
X136879786Y-107330109D01*
X136879788Y-107330106D01*
X136879792Y-107330104D01*
X137030104Y-107179792D01*
X137030106Y-107179788D01*
X137030109Y-107179786D01*
X137155048Y-107007820D01*
X137155047Y-107007820D01*
X137155051Y-107007816D01*
X137251557Y-106818412D01*
X137317246Y-106616243D01*
X137350500Y-106406287D01*
X137350500Y-106193713D01*
X137317246Y-105983757D01*
X137251557Y-105781588D01*
X137155051Y-105592184D01*
X137155049Y-105592181D01*
X137155048Y-105592179D01*
X137030109Y-105420213D01*
X136879786Y-105269890D01*
X136707820Y-105144951D01*
X136707115Y-105144591D01*
X136699054Y-105140485D01*
X136648259Y-105092512D01*
X136631463Y-105024692D01*
X136653999Y-104958556D01*
X136699054Y-104919515D01*
X136707816Y-104915051D01*
X136729789Y-104899086D01*
X136879786Y-104790109D01*
X136879788Y-104790106D01*
X136879792Y-104790104D01*
X137030104Y-104639792D01*
X137030106Y-104639788D01*
X137030109Y-104639786D01*
X137155048Y-104467820D01*
X137155047Y-104467820D01*
X137155051Y-104467816D01*
X137251557Y-104278412D01*
X137317246Y-104076243D01*
X137350500Y-103866287D01*
X137350500Y-103653713D01*
X137350500Y-103653712D01*
X137350118Y-103648862D01*
X137351637Y-103648742D01*
X137359716Y-103586147D01*
X137404703Y-103532688D01*
X137471452Y-103512037D01*
X137538768Y-103530751D01*
X137560924Y-103548343D01*
X139412589Y-105400008D01*
X139499992Y-105487411D01*
X139499994Y-105487413D01*
X139499996Y-105487414D01*
X139602756Y-105556076D01*
X139602758Y-105556077D01*
X139602767Y-105556083D01*
X139627772Y-105566440D01*
X139650071Y-105575677D01*
X139689911Y-105592179D01*
X139716966Y-105603386D01*
X139838192Y-105627499D01*
X139838196Y-105627500D01*
X139838197Y-105627500D01*
X139961804Y-105627500D01*
X142460643Y-105627500D01*
X142527682Y-105647185D01*
X142529534Y-105648398D01*
X142620814Y-105709390D01*
X142620827Y-105709397D01*
X142766498Y-105769735D01*
X142766503Y-105769737D01*
X142921153Y-105800499D01*
X142921156Y-105800500D01*
X142921158Y-105800500D01*
X143078844Y-105800500D01*
X143078845Y-105800499D01*
X143233497Y-105769737D01*
X143379179Y-105709394D01*
X143510289Y-105621789D01*
X143621789Y-105510289D01*
X143709394Y-105379179D01*
X143717894Y-105358658D01*
X153855508Y-105358658D01*
X153855508Y-105365984D01*
X153855508Y-105516346D01*
X153886269Y-105670989D01*
X153886272Y-105671001D01*
X153946610Y-105816672D01*
X153946617Y-105816685D01*
X154034218Y-105947788D01*
X154034221Y-105947792D01*
X154145715Y-106059286D01*
X154145719Y-106059289D01*
X154276822Y-106146890D01*
X154276835Y-106146897D01*
X154389861Y-106193713D01*
X154422511Y-106207237D01*
X154577161Y-106237999D01*
X154577164Y-106238000D01*
X154577166Y-106238000D01*
X154734852Y-106238000D01*
X154734853Y-106237999D01*
X154889505Y-106207237D01*
X155035187Y-106146894D01*
X155166297Y-106059289D01*
X155277797Y-105947789D01*
X155365402Y-105816679D01*
X155425745Y-105670997D01*
X155456508Y-105516342D01*
X155456508Y-105358658D01*
X155456508Y-105358655D01*
X155456507Y-105358653D01*
X155425747Y-105204011D01*
X155425746Y-105204008D01*
X155425745Y-105204003D01*
X155419945Y-105190001D01*
X155410508Y-105142553D01*
X155410508Y-103124366D01*
X155430193Y-103057327D01*
X155446823Y-103036689D01*
X155930963Y-102552549D01*
X155930966Y-102552548D01*
X156036059Y-102447455D01*
X156118629Y-102323879D01*
X156175505Y-102186569D01*
X156204500Y-102040801D01*
X156204500Y-101494947D01*
X156213939Y-101447494D01*
X156219737Y-101433497D01*
X156250500Y-101278842D01*
X156250500Y-101121158D01*
X156250500Y-101121155D01*
X156250499Y-101121153D01*
X156219737Y-100966503D01*
X156159794Y-100821786D01*
X156159397Y-100820827D01*
X156159390Y-100820814D01*
X156071789Y-100689711D01*
X156071786Y-100689707D01*
X155960292Y-100578213D01*
X155960288Y-100578210D01*
X155829185Y-100490609D01*
X155829172Y-100490602D01*
X155683501Y-100430264D01*
X155683489Y-100430261D01*
X155528845Y-100399500D01*
X155528842Y-100399500D01*
X155371158Y-100399500D01*
X155371155Y-100399500D01*
X155216510Y-100430261D01*
X155216498Y-100430264D01*
X155070827Y-100490602D01*
X155070814Y-100490609D01*
X154939711Y-100578210D01*
X154939707Y-100578213D01*
X154828213Y-100689707D01*
X154828210Y-100689711D01*
X154740609Y-100820814D01*
X154740602Y-100820827D01*
X154680264Y-100966498D01*
X154680261Y-100966510D01*
X154649500Y-101121153D01*
X154649500Y-101278846D01*
X154680261Y-101433489D01*
X154680263Y-101433497D01*
X154686061Y-101447494D01*
X154687687Y-101455671D01*
X154690477Y-101460012D01*
X154695500Y-101494947D01*
X154695500Y-101602601D01*
X154675815Y-101669640D01*
X154659181Y-101690282D01*
X154069951Y-102279511D01*
X154069950Y-102279512D01*
X153987380Y-102403088D01*
X153987374Y-102403099D01*
X153930504Y-102540397D01*
X153930501Y-102540407D01*
X153901507Y-102686166D01*
X153901507Y-102840906D01*
X153901508Y-102840927D01*
X153901508Y-105142553D01*
X153900029Y-105149984D01*
X153898636Y-105169084D01*
X153896280Y-105179836D01*
X153886271Y-105204003D01*
X153855508Y-105358658D01*
X143717894Y-105358658D01*
X143717896Y-105358653D01*
X143740073Y-105305114D01*
X143769735Y-105233501D01*
X143769737Y-105233497D01*
X143800500Y-105078842D01*
X143800500Y-104921158D01*
X143800500Y-104921155D01*
X143800499Y-104921153D01*
X143799285Y-104915048D01*
X143769737Y-104766503D01*
X143717250Y-104639786D01*
X143709397Y-104620827D01*
X143709390Y-104620814D01*
X143621789Y-104489711D01*
X143621786Y-104489707D01*
X143510292Y-104378213D01*
X143510288Y-104378210D01*
X143379185Y-104290609D01*
X143379172Y-104290602D01*
X143233501Y-104230264D01*
X143233489Y-104230261D01*
X143078845Y-104199500D01*
X143078842Y-104199500D01*
X142921158Y-104199500D01*
X142921155Y-104199500D01*
X142766510Y-104230261D01*
X142766498Y-104230264D01*
X142620827Y-104290602D01*
X142620814Y-104290609D01*
X142529534Y-104351602D01*
X142462857Y-104372480D01*
X142460643Y-104372500D01*
X140211281Y-104372500D01*
X140144242Y-104352815D01*
X140123600Y-104336181D01*
X138163819Y-102376400D01*
X138130334Y-102315077D01*
X138127500Y-102288719D01*
X138127500Y-87589693D01*
X138121185Y-87557950D01*
X138121185Y-87557947D01*
X138103387Y-87468469D01*
X138103384Y-87468460D01*
X138102573Y-87466503D01*
X138091591Y-87439988D01*
X138056086Y-87354269D01*
X138056079Y-87354258D01*
X137998739Y-87268443D01*
X137998737Y-87268440D01*
X137987413Y-87251491D01*
X137357075Y-86621153D01*
X138899500Y-86621153D01*
X138899500Y-86778846D01*
X138930261Y-86933489D01*
X138930264Y-86933501D01*
X138990602Y-87079172D01*
X138990609Y-87079185D01*
X139078210Y-87210288D01*
X139078213Y-87210292D01*
X139189707Y-87321786D01*
X139189711Y-87321789D01*
X139320814Y-87409390D01*
X139320827Y-87409397D01*
X139463420Y-87468460D01*
X139466503Y-87469737D01*
X139621153Y-87500499D01*
X139621156Y-87500500D01*
X139775500Y-87500500D01*
X139842539Y-87520185D01*
X139888294Y-87572989D01*
X139899500Y-87624500D01*
X139899500Y-87778846D01*
X139930261Y-87933489D01*
X139930263Y-87933497D01*
X139936061Y-87947494D01*
X139945500Y-87994947D01*
X139945500Y-90336112D01*
X139925815Y-90403151D01*
X139909181Y-90423793D01*
X139513943Y-90819030D01*
X139513942Y-90819031D01*
X139431368Y-90942612D01*
X139398052Y-91023047D01*
X139383831Y-91057383D01*
X139383827Y-91057393D01*
X139374495Y-91079918D01*
X139374493Y-91079925D01*
X139345499Y-91225685D01*
X139345499Y-91380425D01*
X139345500Y-91380446D01*
X139345500Y-98220552D01*
X139345499Y-98220578D01*
X139345499Y-98225688D01*
X139345499Y-98374312D01*
X139345499Y-98374314D01*
X139345498Y-98374314D01*
X139374493Y-98520073D01*
X139374496Y-98520083D01*
X139431366Y-98657381D01*
X139431372Y-98657392D01*
X139513942Y-98780968D01*
X139513943Y-98780969D01*
X141409600Y-100676624D01*
X141409621Y-100676647D01*
X141519031Y-100786057D01*
X141578065Y-100825502D01*
X141578064Y-100825502D01*
X141642600Y-100868623D01*
X141642604Y-100868625D01*
X141642611Y-100868630D01*
X141723045Y-100901946D01*
X141779920Y-100925505D01*
X141793293Y-100928165D01*
X141885246Y-100946456D01*
X141925686Y-100954501D01*
X141925688Y-100954501D01*
X142080426Y-100954501D01*
X142080446Y-100954500D01*
X144375500Y-100954500D01*
X144442539Y-100974185D01*
X144488294Y-101026989D01*
X144498269Y-101072844D01*
X144498903Y-101072782D01*
X144499438Y-101078215D01*
X144499500Y-101078500D01*
X144499500Y-101078846D01*
X144530261Y-101233489D01*
X144530264Y-101233501D01*
X144590602Y-101379172D01*
X144590609Y-101379185D01*
X144678210Y-101510288D01*
X144678213Y-101510292D01*
X144789707Y-101621786D01*
X144789711Y-101621789D01*
X144920814Y-101709390D01*
X144920827Y-101709397D01*
X145066498Y-101769735D01*
X145066503Y-101769737D01*
X145221153Y-101800499D01*
X145221156Y-101800500D01*
X145221158Y-101800500D01*
X145378844Y-101800500D01*
X145378845Y-101800499D01*
X145533497Y-101769737D01*
X145679179Y-101709394D01*
X145810289Y-101621789D01*
X145810292Y-101621786D01*
X145831760Y-101600319D01*
X145893083Y-101566834D01*
X145919441Y-101564000D01*
X147580559Y-101564000D01*
X147647598Y-101583685D01*
X147668240Y-101600319D01*
X147689707Y-101621786D01*
X147689711Y-101621789D01*
X147820814Y-101709390D01*
X147820827Y-101709397D01*
X147966498Y-101769735D01*
X147966503Y-101769737D01*
X148121153Y-101800499D01*
X148121156Y-101800500D01*
X148121158Y-101800500D01*
X148278844Y-101800500D01*
X148278845Y-101800499D01*
X148433497Y-101769737D01*
X148579179Y-101709394D01*
X148710289Y-101621789D01*
X148821789Y-101510289D01*
X148909394Y-101379179D01*
X148969737Y-101233497D01*
X149000500Y-101078842D01*
X149000500Y-101078500D01*
X149000551Y-101078326D01*
X149001097Y-101072782D01*
X149002148Y-101072885D01*
X149020185Y-101011461D01*
X149072989Y-100965706D01*
X149124500Y-100954500D01*
X149505053Y-100954500D01*
X149552501Y-100963937D01*
X149566503Y-100969737D01*
X149566508Y-100969738D01*
X149566511Y-100969739D01*
X149721153Y-101000499D01*
X149721156Y-101000500D01*
X149721158Y-101000500D01*
X149878844Y-101000500D01*
X149878845Y-101000499D01*
X150033497Y-100969737D01*
X150179179Y-100909394D01*
X150310289Y-100821789D01*
X150421789Y-100710289D01*
X150509394Y-100579179D01*
X150569737Y-100433497D01*
X150600500Y-100278842D01*
X150600500Y-100121158D01*
X150600500Y-100121155D01*
X150600499Y-100121153D01*
X150569738Y-99966510D01*
X150569737Y-99966503D01*
X150555262Y-99931557D01*
X150509397Y-99820827D01*
X150509390Y-99820814D01*
X150421789Y-99689711D01*
X150421786Y-99689707D01*
X150310292Y-99578213D01*
X150310288Y-99578210D01*
X150179185Y-99490609D01*
X150179172Y-99490602D01*
X150033501Y-99430264D01*
X150033489Y-99430261D01*
X149878845Y-99399500D01*
X149878842Y-99399500D01*
X149721158Y-99399500D01*
X149721155Y-99399500D01*
X149566511Y-99430260D01*
X149566506Y-99430262D01*
X149566504Y-99430262D01*
X149566503Y-99430263D01*
X149552501Y-99436062D01*
X149505053Y-99445500D01*
X149017848Y-99445500D01*
X148950809Y-99425815D01*
X148905054Y-99373011D01*
X148896231Y-99345692D01*
X148869738Y-99212508D01*
X148869737Y-99212507D01*
X148869737Y-99212503D01*
X148869735Y-99212498D01*
X148809397Y-99066827D01*
X148809390Y-99066814D01*
X148721789Y-98935711D01*
X148721786Y-98935707D01*
X148610292Y-98824213D01*
X148610288Y-98824210D01*
X148479185Y-98736609D01*
X148479172Y-98736602D01*
X148333501Y-98676264D01*
X148333489Y-98676261D01*
X148178845Y-98645500D01*
X148178842Y-98645500D01*
X148021158Y-98645500D01*
X148021155Y-98645500D01*
X147866510Y-98676261D01*
X147866498Y-98676264D01*
X147720827Y-98736602D01*
X147720814Y-98736609D01*
X147589711Y-98824210D01*
X147589707Y-98824213D01*
X147568240Y-98845681D01*
X147506917Y-98879166D01*
X147480559Y-98882000D01*
X142530978Y-98882000D01*
X142463939Y-98862315D01*
X142443297Y-98845681D01*
X141400319Y-97802703D01*
X141366834Y-97741380D01*
X141364000Y-97715022D01*
X141364000Y-94488000D01*
X141383685Y-94420961D01*
X141436489Y-94375206D01*
X141488000Y-94364000D01*
X141578844Y-94364000D01*
X141578845Y-94363999D01*
X141615803Y-94356647D01*
X141713667Y-94337182D01*
X141783258Y-94343409D01*
X141825539Y-94371118D01*
X141889707Y-94435286D01*
X141889711Y-94435289D01*
X142020814Y-94522890D01*
X142020827Y-94522897D01*
X142166498Y-94583235D01*
X142166503Y-94583237D01*
X142321153Y-94613999D01*
X142321156Y-94614000D01*
X142321158Y-94614000D01*
X142478844Y-94614000D01*
X142478845Y-94613999D01*
X142633497Y-94583237D01*
X142743287Y-94537761D01*
X142752548Y-94533925D01*
X142822017Y-94526456D01*
X142847452Y-94533925D01*
X142856713Y-94537761D01*
X142966503Y-94583237D01*
X143121153Y-94613999D01*
X143121156Y-94614000D01*
X143121158Y-94614000D01*
X143278844Y-94614000D01*
X143278845Y-94613999D01*
X143433497Y-94583237D01*
X143579179Y-94522894D01*
X143710289Y-94435289D01*
X143821789Y-94323789D01*
X143887522Y-94225413D01*
X146505508Y-94225413D01*
X146505508Y-94383106D01*
X146536269Y-94537749D01*
X146536272Y-94537761D01*
X146596610Y-94683432D01*
X146596617Y-94683445D01*
X146684218Y-94814548D01*
X146684221Y-94814552D01*
X146795715Y-94926046D01*
X146795719Y-94926049D01*
X146926822Y-95013650D01*
X146926835Y-95013657D01*
X147072506Y-95073995D01*
X147072511Y-95073997D01*
X147226352Y-95104598D01*
X147227161Y-95104759D01*
X147227164Y-95104760D01*
X147227166Y-95104760D01*
X147384852Y-95104760D01*
X147384853Y-95104759D01*
X147539505Y-95073997D01*
X147685187Y-95013654D01*
X147816297Y-94926049D01*
X147816300Y-94926046D01*
X147837768Y-94904579D01*
X147899091Y-94871094D01*
X147925449Y-94868260D01*
X148286567Y-94868260D01*
X148353606Y-94887945D01*
X148374248Y-94904579D01*
X148395715Y-94926046D01*
X148395719Y-94926049D01*
X148526822Y-95013650D01*
X148526835Y-95013657D01*
X148672506Y-95073995D01*
X148672511Y-95073997D01*
X148826352Y-95104598D01*
X148827161Y-95104759D01*
X148827164Y-95104760D01*
X148827166Y-95104760D01*
X148984852Y-95104760D01*
X148984853Y-95104759D01*
X149139505Y-95073997D01*
X149285187Y-95013654D01*
X149416297Y-94926049D01*
X149527797Y-94814549D01*
X149615402Y-94683439D01*
X149675745Y-94537757D01*
X149706508Y-94383102D01*
X149706508Y-94225418D01*
X149706508Y-94225415D01*
X149706507Y-94225413D01*
X149675746Y-94070770D01*
X149675745Y-94070763D01*
X149665898Y-94046989D01*
X149615405Y-93925087D01*
X149615398Y-93925074D01*
X149527797Y-93793971D01*
X149527794Y-93793967D01*
X149416300Y-93682473D01*
X149416296Y-93682470D01*
X149285193Y-93594869D01*
X149285180Y-93594862D01*
X149139509Y-93534524D01*
X149139497Y-93534521D01*
X148984853Y-93503760D01*
X148984850Y-93503760D01*
X148827166Y-93503760D01*
X148827163Y-93503760D01*
X148672518Y-93534521D01*
X148672506Y-93534524D01*
X148526835Y-93594862D01*
X148526822Y-93594869D01*
X148395719Y-93682470D01*
X148395715Y-93682473D01*
X148374248Y-93703941D01*
X148312925Y-93737426D01*
X148286567Y-93740260D01*
X147925449Y-93740260D01*
X147858410Y-93720575D01*
X147837768Y-93703941D01*
X147816300Y-93682473D01*
X147816296Y-93682470D01*
X147685193Y-93594869D01*
X147685180Y-93594862D01*
X147539509Y-93534524D01*
X147539497Y-93534521D01*
X147384853Y-93503760D01*
X147384850Y-93503760D01*
X147227166Y-93503760D01*
X147227163Y-93503760D01*
X147072518Y-93534521D01*
X147072506Y-93534524D01*
X146926835Y-93594862D01*
X146926822Y-93594869D01*
X146795719Y-93682470D01*
X146795715Y-93682473D01*
X146684221Y-93793967D01*
X146684218Y-93793971D01*
X146596617Y-93925074D01*
X146596610Y-93925087D01*
X146536272Y-94070758D01*
X146536269Y-94070770D01*
X146505508Y-94225413D01*
X143887522Y-94225413D01*
X143909394Y-94192679D01*
X143969737Y-94046997D01*
X144000500Y-93892342D01*
X144000500Y-93734658D01*
X144000500Y-93734655D01*
X144000499Y-93734653D01*
X143972693Y-93594866D01*
X143969737Y-93580003D01*
X143950898Y-93534521D01*
X143909397Y-93434327D01*
X143909390Y-93434314D01*
X143821789Y-93303211D01*
X143821786Y-93303207D01*
X143800319Y-93281740D01*
X143766834Y-93220417D01*
X143764000Y-93194059D01*
X143764000Y-92492027D01*
X143783685Y-92424988D01*
X143800315Y-92404349D01*
X143821789Y-92382876D01*
X143909394Y-92251766D01*
X143969737Y-92106084D01*
X143986631Y-92021153D01*
X144899500Y-92021153D01*
X144899500Y-92178846D01*
X144930261Y-92333489D01*
X144930264Y-92333501D01*
X144990602Y-92479172D01*
X144990609Y-92479185D01*
X145078210Y-92610288D01*
X145078213Y-92610292D01*
X145189707Y-92721786D01*
X145189711Y-92721789D01*
X145320814Y-92809390D01*
X145320827Y-92809397D01*
X145466498Y-92869735D01*
X145466503Y-92869737D01*
X145621153Y-92900499D01*
X145621156Y-92900500D01*
X145621158Y-92900500D01*
X145778844Y-92900500D01*
X145778845Y-92900499D01*
X145933497Y-92869737D01*
X146079179Y-92809394D01*
X146210289Y-92721789D01*
X146321789Y-92610289D01*
X146352319Y-92564598D01*
X146379867Y-92523370D01*
X146433479Y-92478564D01*
X146482969Y-92468260D01*
X147286567Y-92468260D01*
X147353606Y-92487945D01*
X147374248Y-92504579D01*
X147395715Y-92526046D01*
X147395719Y-92526049D01*
X147526822Y-92613650D01*
X147526835Y-92613657D01*
X147672506Y-92673995D01*
X147672511Y-92673997D01*
X147827161Y-92704759D01*
X147827164Y-92704760D01*
X147827166Y-92704760D01*
X147984852Y-92704760D01*
X147984853Y-92704759D01*
X148139505Y-92673997D01*
X148285187Y-92613654D01*
X148416297Y-92526049D01*
X148527797Y-92414549D01*
X148615402Y-92283439D01*
X148675745Y-92137757D01*
X148706508Y-91983102D01*
X148706508Y-91825418D01*
X148706508Y-91825415D01*
X148706507Y-91825413D01*
X148675746Y-91670770D01*
X148675745Y-91670763D01*
X148662624Y-91639085D01*
X148615405Y-91525087D01*
X148615398Y-91525074D01*
X148527797Y-91393971D01*
X148527794Y-91393967D01*
X148416300Y-91282473D01*
X148416296Y-91282470D01*
X148285193Y-91194869D01*
X148285180Y-91194862D01*
X148139509Y-91134524D01*
X148139497Y-91134521D01*
X147984853Y-91103760D01*
X147984850Y-91103760D01*
X147827166Y-91103760D01*
X147827163Y-91103760D01*
X147672518Y-91134521D01*
X147672506Y-91134524D01*
X147526835Y-91194862D01*
X147526822Y-91194869D01*
X147395719Y-91282470D01*
X147395715Y-91282473D01*
X147374248Y-91303941D01*
X147312925Y-91337426D01*
X147286567Y-91340260D01*
X145982296Y-91340260D01*
X145939410Y-91331730D01*
X145939320Y-91332030D01*
X145936277Y-91331106D01*
X145934848Y-91330822D01*
X145933497Y-91330263D01*
X145933493Y-91330262D01*
X145933488Y-91330260D01*
X145778845Y-91299500D01*
X145778842Y-91299500D01*
X145621158Y-91299500D01*
X145621155Y-91299500D01*
X145466510Y-91330261D01*
X145466498Y-91330264D01*
X145320827Y-91390602D01*
X145320814Y-91390609D01*
X145189711Y-91478210D01*
X145189707Y-91478213D01*
X145078213Y-91589707D01*
X145078210Y-91589711D01*
X144990609Y-91720814D01*
X144990602Y-91720827D01*
X144930264Y-91866498D01*
X144930261Y-91866510D01*
X144899500Y-92021153D01*
X143986631Y-92021153D01*
X143994199Y-91983106D01*
X144000500Y-91951431D01*
X144000500Y-91793742D01*
X144000499Y-91793740D01*
X143969737Y-91639090D01*
X143922516Y-91525087D01*
X143909397Y-91493414D01*
X143909390Y-91493401D01*
X143821789Y-91362298D01*
X143821786Y-91362294D01*
X143710292Y-91250800D01*
X143710288Y-91250797D01*
X143579185Y-91163196D01*
X143579172Y-91163189D01*
X143433501Y-91102851D01*
X143433489Y-91102848D01*
X143278845Y-91072087D01*
X143278842Y-91072087D01*
X143121158Y-91072087D01*
X143121155Y-91072087D01*
X142966510Y-91102848D01*
X142966498Y-91102851D01*
X142847452Y-91152161D01*
X142777982Y-91159630D01*
X142752548Y-91152161D01*
X142633501Y-91102851D01*
X142633489Y-91102848D01*
X142478845Y-91072087D01*
X142478842Y-91072087D01*
X142321158Y-91072087D01*
X142321155Y-91072087D01*
X142166510Y-91102848D01*
X142166498Y-91102851D01*
X142132262Y-91117032D01*
X142062793Y-91124499D01*
X142000314Y-91093223D01*
X141964663Y-91033133D01*
X141964969Y-90982575D01*
X141962939Y-90982308D01*
X141964000Y-90974250D01*
X141964000Y-90484978D01*
X141972644Y-90455537D01*
X141979168Y-90425551D01*
X141982922Y-90420535D01*
X141983685Y-90417939D01*
X142000319Y-90397297D01*
X142097297Y-90300319D01*
X142158620Y-90266834D01*
X142184978Y-90264000D01*
X143180559Y-90264000D01*
X143247598Y-90283685D01*
X143268240Y-90300319D01*
X143289707Y-90321786D01*
X143289711Y-90321789D01*
X143420814Y-90409390D01*
X143420827Y-90409397D01*
X143566498Y-90469735D01*
X143566503Y-90469737D01*
X143721153Y-90500499D01*
X143721156Y-90500500D01*
X143721158Y-90500500D01*
X143878844Y-90500500D01*
X143878845Y-90500499D01*
X144033497Y-90469737D01*
X144179179Y-90409394D01*
X144310289Y-90321789D01*
X144421789Y-90210289D01*
X144509394Y-90079179D01*
X144569737Y-89933497D01*
X144600500Y-89778842D01*
X144600500Y-89621158D01*
X144600500Y-89621155D01*
X144600499Y-89621153D01*
X144569738Y-89466510D01*
X144569737Y-89466503D01*
X144552293Y-89424388D01*
X144509397Y-89320827D01*
X144509390Y-89320814D01*
X144421789Y-89189711D01*
X144421786Y-89189707D01*
X144310292Y-89078213D01*
X144310288Y-89078210D01*
X144179185Y-88990609D01*
X144179172Y-88990602D01*
X144033501Y-88930264D01*
X144033489Y-88930261D01*
X143878845Y-88899500D01*
X143878842Y-88899500D01*
X143721158Y-88899500D01*
X143721155Y-88899500D01*
X143566510Y-88930261D01*
X143566498Y-88930264D01*
X143420827Y-88990602D01*
X143420814Y-88990609D01*
X143289711Y-89078210D01*
X143289707Y-89078213D01*
X143268240Y-89099681D01*
X143206917Y-89133166D01*
X143180559Y-89136000D01*
X141981865Y-89136000D01*
X141981849Y-89135999D01*
X141974253Y-89135999D01*
X141825748Y-89135999D01*
X141694063Y-89171284D01*
X141682300Y-89174436D01*
X141640500Y-89198570D01*
X141572600Y-89215043D01*
X141506573Y-89192190D01*
X141463382Y-89137269D01*
X141454500Y-89091183D01*
X141454500Y-87994947D01*
X141463939Y-87947494D01*
X141469737Y-87933497D01*
X141500500Y-87778842D01*
X141500500Y-87621158D01*
X141500500Y-87621155D01*
X141500499Y-87621153D01*
X141469739Y-87466511D01*
X141469738Y-87466508D01*
X141469737Y-87466503D01*
X141463937Y-87452501D01*
X141462311Y-87444327D01*
X141459523Y-87439988D01*
X141454500Y-87405053D01*
X141454500Y-87194947D01*
X141463939Y-87147494D01*
X141469737Y-87133497D01*
X141500500Y-86978842D01*
X141500500Y-86821158D01*
X141500500Y-86821155D01*
X141500499Y-86821153D01*
X141469737Y-86666503D01*
X141450953Y-86621153D01*
X141409397Y-86520827D01*
X141409390Y-86520814D01*
X141321789Y-86389711D01*
X141321786Y-86389707D01*
X141210292Y-86278213D01*
X141210288Y-86278210D01*
X141119109Y-86217286D01*
X141074304Y-86163674D01*
X141064000Y-86114184D01*
X141064000Y-85294153D01*
X143915992Y-85294153D01*
X143915992Y-85451846D01*
X143946753Y-85606489D01*
X143946756Y-85606501D01*
X144007095Y-85752174D01*
X144007096Y-85752175D01*
X144007098Y-85752179D01*
X144068094Y-85843465D01*
X144073744Y-85861511D01*
X144083969Y-85877421D01*
X144088420Y-85908380D01*
X144088972Y-85910142D01*
X144088992Y-85912356D01*
X144088992Y-86087642D01*
X144069307Y-86154681D01*
X144068094Y-86156533D01*
X144007101Y-86247814D01*
X144007094Y-86247827D01*
X143946756Y-86393498D01*
X143946753Y-86393510D01*
X143915992Y-86548153D01*
X143915992Y-86705846D01*
X143946753Y-86860489D01*
X143946756Y-86860501D01*
X144007094Y-87006172D01*
X144007101Y-87006185D01*
X144094702Y-87137288D01*
X144094705Y-87137292D01*
X144206199Y-87248786D01*
X144206203Y-87248789D01*
X144337306Y-87336390D01*
X144337319Y-87336397D01*
X144406251Y-87364949D01*
X144482995Y-87396737D01*
X144637645Y-87427499D01*
X144637648Y-87427500D01*
X144637650Y-87427500D01*
X144795336Y-87427500D01*
X144795337Y-87427499D01*
X144949989Y-87396737D01*
X145095671Y-87336394D01*
X145226781Y-87248789D01*
X145338281Y-87137289D01*
X145425886Y-87006179D01*
X145486229Y-86860497D01*
X145516992Y-86705842D01*
X145516992Y-86548158D01*
X145516992Y-86548155D01*
X145516991Y-86548153D01*
X145500751Y-86466510D01*
X145486229Y-86393503D01*
X145456126Y-86320827D01*
X145425889Y-86247827D01*
X145425882Y-86247814D01*
X145364890Y-86156533D01*
X145359239Y-86138486D01*
X145349015Y-86122577D01*
X145344563Y-86091615D01*
X145344012Y-86089855D01*
X145343992Y-86087642D01*
X145343992Y-85912356D01*
X145363677Y-85845317D01*
X145364890Y-85843465D01*
X145425886Y-85752179D01*
X145486229Y-85606497D01*
X145516992Y-85451842D01*
X145516992Y-85294158D01*
X145516992Y-85294155D01*
X145516991Y-85294153D01*
X145486230Y-85139510D01*
X145486229Y-85139503D01*
X145459765Y-85075612D01*
X145425889Y-84993827D01*
X145425882Y-84993814D01*
X145338281Y-84862711D01*
X145338278Y-84862707D01*
X145226784Y-84751213D01*
X145226780Y-84751210D01*
X145095677Y-84663609D01*
X145095664Y-84663602D01*
X144949993Y-84603264D01*
X144949981Y-84603261D01*
X144795337Y-84572500D01*
X144795334Y-84572500D01*
X144637650Y-84572500D01*
X144637647Y-84572500D01*
X144483002Y-84603261D01*
X144482990Y-84603264D01*
X144337319Y-84663602D01*
X144337306Y-84663609D01*
X144206203Y-84751210D01*
X144206199Y-84751213D01*
X144094705Y-84862707D01*
X144094702Y-84862711D01*
X144007101Y-84993814D01*
X144007094Y-84993827D01*
X143946756Y-85139498D01*
X143946753Y-85139510D01*
X143915992Y-85294153D01*
X141064000Y-85294153D01*
X141064000Y-84184978D01*
X141083685Y-84117939D01*
X141100319Y-84097297D01*
X142197297Y-83000319D01*
X142258620Y-82966834D01*
X142284978Y-82964000D01*
X143574251Y-82964000D01*
X143574253Y-82964000D01*
X143717696Y-82925565D01*
X143846304Y-82851313D01*
X143860798Y-82836819D01*
X143922121Y-82803334D01*
X143948479Y-82800500D01*
X143978844Y-82800500D01*
X143978845Y-82800499D01*
X144133497Y-82769737D01*
X144279179Y-82709394D01*
X144410289Y-82621789D01*
X144521789Y-82510289D01*
X144609394Y-82379179D01*
X144669737Y-82233497D01*
X144700500Y-82078842D01*
X144700500Y-81921158D01*
X144700500Y-81921155D01*
X144700499Y-81921153D01*
X144687033Y-81853455D01*
X144669737Y-81766503D01*
X144669735Y-81766498D01*
X144609397Y-81620827D01*
X144609390Y-81620814D01*
X144521789Y-81489711D01*
X144521786Y-81489707D01*
X144410292Y-81378213D01*
X144410288Y-81378210D01*
X144279185Y-81290609D01*
X144279172Y-81290602D01*
X144133501Y-81230264D01*
X144133489Y-81230261D01*
X143978845Y-81199500D01*
X143978842Y-81199500D01*
X143821158Y-81199500D01*
X143821153Y-81199500D01*
X143668620Y-81229841D01*
X143599029Y-81223614D01*
X143572561Y-81208069D01*
X143572210Y-81208595D01*
X143436041Y-81117609D01*
X143436028Y-81117602D01*
X143290357Y-81057264D01*
X143290345Y-81057261D01*
X143135701Y-81026500D01*
X143135698Y-81026500D01*
X142978014Y-81026500D01*
X142978011Y-81026500D01*
X142823366Y-81057261D01*
X142823354Y-81057264D01*
X142677683Y-81117602D01*
X142677670Y-81117609D01*
X142546567Y-81205210D01*
X142546563Y-81205213D01*
X142458740Y-81293037D01*
X142397417Y-81326522D01*
X142371059Y-81329356D01*
X141932391Y-81329356D01*
X141857212Y-81349499D01*
X141857212Y-81349500D01*
X141834457Y-81355597D01*
X141788946Y-81367791D01*
X141788945Y-81367792D01*
X141660343Y-81442041D01*
X141660337Y-81442045D01*
X139548689Y-83553693D01*
X139548685Y-83553699D01*
X139474436Y-83682301D01*
X139474435Y-83682304D01*
X139436000Y-83825748D01*
X139436000Y-84914184D01*
X139416315Y-84981223D01*
X139380891Y-85017286D01*
X139289711Y-85078210D01*
X139289707Y-85078213D01*
X139178213Y-85189707D01*
X139178210Y-85189711D01*
X139090609Y-85320814D01*
X139090602Y-85320827D01*
X139030264Y-85466498D01*
X139030261Y-85466510D01*
X138999500Y-85621153D01*
X138999500Y-85778846D01*
X139030261Y-85933489D01*
X139030264Y-85933501D01*
X139088761Y-86074727D01*
X139096230Y-86144196D01*
X139077302Y-86191070D01*
X138990609Y-86320814D01*
X138990602Y-86320827D01*
X138930264Y-86466498D01*
X138930261Y-86466510D01*
X138899500Y-86621153D01*
X137357075Y-86621153D01*
X137301064Y-86565142D01*
X137267579Y-86503819D01*
X137270813Y-86439145D01*
X137317246Y-86296243D01*
X137350500Y-86086287D01*
X137350500Y-85873713D01*
X137317246Y-85663757D01*
X137251557Y-85461588D01*
X137155051Y-85272184D01*
X137155049Y-85272181D01*
X137155048Y-85272179D01*
X137030109Y-85100213D01*
X136879786Y-84949890D01*
X136707817Y-84824949D01*
X136698504Y-84820204D01*
X136647707Y-84772230D01*
X136630912Y-84704409D01*
X136653449Y-84638274D01*
X136698507Y-84599232D01*
X136707555Y-84594622D01*
X136761716Y-84555270D01*
X136761717Y-84555270D01*
X136129409Y-83922962D01*
X136192993Y-83905925D01*
X136307007Y-83840099D01*
X136400099Y-83747007D01*
X136465925Y-83632993D01*
X136482962Y-83569408D01*
X137115270Y-84201717D01*
X137115270Y-84201716D01*
X137154622Y-84147554D01*
X137251095Y-83958217D01*
X137316757Y-83756130D01*
X137316757Y-83756127D01*
X137350000Y-83546246D01*
X137350000Y-83333753D01*
X137316757Y-83123872D01*
X137316757Y-83123869D01*
X137251095Y-82921782D01*
X137154624Y-82732449D01*
X137115270Y-82678282D01*
X137115269Y-82678282D01*
X136482962Y-83310590D01*
X136465925Y-83247007D01*
X136400099Y-83132993D01*
X136307007Y-83039901D01*
X136192993Y-82974075D01*
X136129407Y-82957036D01*
X136761716Y-82324728D01*
X136707547Y-82285373D01*
X136707547Y-82285372D01*
X136698500Y-82280763D01*
X136647706Y-82232788D01*
X136630912Y-82164966D01*
X136653451Y-82098832D01*
X136698508Y-82059793D01*
X136707816Y-82055051D01*
X136787007Y-81997515D01*
X136879786Y-81930109D01*
X136879788Y-81930106D01*
X136879792Y-81930104D01*
X137030104Y-81779792D01*
X137030106Y-81779788D01*
X137030109Y-81779786D01*
X137155048Y-81607820D01*
X137155047Y-81607820D01*
X137155051Y-81607816D01*
X137251557Y-81418412D01*
X137317246Y-81216243D01*
X137350500Y-81006287D01*
X137350500Y-80793713D01*
X137317246Y-80583757D01*
X137251557Y-80381588D01*
X137155051Y-80192184D01*
X137155049Y-80192181D01*
X137155048Y-80192179D01*
X137086177Y-80097385D01*
X137062697Y-80031578D01*
X137078523Y-79963525D01*
X137128629Y-79914830D01*
X137186495Y-79900500D01*
X137701330Y-79900500D01*
X137768369Y-79920185D01*
G37*
%TD.AperFunction*%
%TD*%
M02*
