%TF.GenerationSoftware,KiCad,Pcbnew,9.0.6*%
%TF.CreationDate,2026-02-23T11:34:12+10:00*%
%TF.ProjectId,ae-tracker-db,61652d74-7261-4636-9b65-722d64622e6b,rev?*%
%TF.SameCoordinates,Original*%
%TF.FileFunction,Legend,Top*%
%TF.FilePolarity,Positive*%
%FSLAX46Y46*%
G04 Gerber Fmt 4.6, Leading zero omitted, Abs format (unit mm)*
G04 Created by KiCad (PCBNEW 9.0.6) date 2026-02-23 11:34:12*
%MOMM*%
%LPD*%
G01*
G04 APERTURE LIST*
G04 Aperture macros list*
%AMRoundRect*
0 Rectangle with rounded corners*
0 $1 Rounding radius*
0 $2 $3 $4 $5 $6 $7 $8 $9 X,Y pos of 4 corners*
0 Add a 4 corners polygon primitive as box body*
4,1,4,$2,$3,$4,$5,$6,$7,$8,$9,$2,$3,0*
0 Add four circle primitives for the rounded corners*
1,1,$1+$1,$2,$3*
1,1,$1+$1,$4,$5*
1,1,$1+$1,$6,$7*
1,1,$1+$1,$8,$9*
0 Add four rect primitives between the rounded corners*
20,1,$1+$1,$2,$3,$4,$5,0*
20,1,$1+$1,$4,$5,$6,$7,0*
20,1,$1+$1,$6,$7,$8,$9,0*
20,1,$1+$1,$8,$9,$2,$3,0*%
%AMFreePoly0*
4,1,23,0.500000,-0.750000,0.000000,-0.750000,0.000000,-0.745722,-0.065263,-0.745722,-0.191342,-0.711940,-0.304381,-0.646677,-0.396677,-0.554381,-0.461940,-0.441342,-0.495722,-0.315263,-0.495722,-0.250000,-0.500000,-0.250000,-0.500000,0.250000,-0.495722,0.250000,-0.495722,0.315263,-0.461940,0.441342,-0.396677,0.554381,-0.304381,0.646677,-0.191342,0.711940,-0.065263,0.745722,0.000000,0.745722,
0.000000,0.750000,0.500000,0.750000,0.500000,-0.750000,0.500000,-0.750000,$1*%
%AMFreePoly1*
4,1,23,0.000000,0.745722,0.065263,0.745722,0.191342,0.711940,0.304381,0.646677,0.396677,0.554381,0.461940,0.441342,0.495722,0.315263,0.495722,0.250000,0.500000,0.250000,0.500000,-0.250000,0.495722,-0.250000,0.495722,-0.315263,0.461940,-0.441342,0.396677,-0.554381,0.304381,-0.646677,0.191342,-0.711940,0.065263,-0.745722,0.000000,-0.745722,0.000000,-0.750000,-0.500000,-0.750000,
-0.500000,0.750000,0.000000,0.750000,0.000000,0.745722,0.000000,0.745722,$1*%
G04 Aperture macros list end*
%ADD10C,0.150000*%
%ADD11C,0.120000*%
%ADD12C,0.000000*%
%ADD13RoundRect,0.225000X-0.225000X-0.250000X0.225000X-0.250000X0.225000X0.250000X-0.225000X0.250000X0*%
%ADD14RoundRect,0.200000X0.275000X-0.200000X0.275000X0.200000X-0.275000X0.200000X-0.275000X-0.200000X0*%
%ADD15RoundRect,0.150000X-0.150000X0.825000X-0.150000X-0.825000X0.150000X-0.825000X0.150000X0.825000X0*%
%ADD16RoundRect,0.225000X0.250000X-0.225000X0.250000X0.225000X-0.250000X0.225000X-0.250000X-0.225000X0*%
%ADD17R,1.700000X1.700000*%
%ADD18RoundRect,0.200000X-0.275000X0.200000X-0.275000X-0.200000X0.275000X-0.200000X0.275000X0.200000X0*%
%ADD19RoundRect,0.062500X0.062500X-0.187500X0.062500X0.187500X-0.062500X0.187500X-0.062500X-0.187500X0*%
%ADD20R,1.600000X0.900000*%
%ADD21C,1.700000*%
%ADD22RoundRect,0.200000X-0.200000X-0.275000X0.200000X-0.275000X0.200000X0.275000X-0.200000X0.275000X0*%
%ADD23RoundRect,0.225000X0.225000X0.250000X-0.225000X0.250000X-0.225000X-0.250000X0.225000X-0.250000X0*%
%ADD24RoundRect,0.250000X0.625000X-0.312500X0.625000X0.312500X-0.625000X0.312500X-0.625000X-0.312500X0*%
%ADD25FreePoly0,180.000000*%
%ADD26FreePoly1,180.000000*%
%ADD27RoundRect,0.250000X-1.000000X-0.900000X1.000000X-0.900000X1.000000X0.900000X-1.000000X0.900000X0*%
%ADD28RoundRect,0.087500X-0.187500X-0.087500X0.187500X-0.087500X0.187500X0.087500X-0.187500X0.087500X0*%
%ADD29RoundRect,0.087500X-0.087500X-0.187500X0.087500X-0.187500X0.087500X0.187500X-0.087500X0.187500X0*%
%ADD30RoundRect,0.200000X0.200000X0.275000X-0.200000X0.275000X-0.200000X-0.275000X0.200000X-0.275000X0*%
%ADD31RoundRect,0.100000X-0.625000X-0.100000X0.625000X-0.100000X0.625000X0.100000X-0.625000X0.100000X0*%
%ADD32R,1.680000X1.880000*%
%ADD33RoundRect,0.250000X-0.650000X-1.550000X0.650000X-1.550000X0.650000X1.550000X-0.650000X1.550000X0*%
%ADD34O,1.800000X3.600000*%
G04 APERTURE END LIST*
D10*
X150609524Y-94574160D02*
X151085714Y-94574160D01*
X150514286Y-94859875D02*
X150847619Y-93859875D01*
X150847619Y-93859875D02*
X151180952Y-94859875D01*
X151514286Y-94336065D02*
X151847619Y-94336065D01*
X151990476Y-94859875D02*
X151514286Y-94859875D01*
X151514286Y-94859875D02*
X151514286Y-93859875D01*
X151514286Y-93859875D02*
X151990476Y-93859875D01*
X152419048Y-94478922D02*
X153180953Y-94478922D01*
X153514286Y-93859875D02*
X154085714Y-93859875D01*
X153800000Y-94859875D02*
X153800000Y-93859875D01*
X154990476Y-94859875D02*
X154657143Y-94383684D01*
X154419048Y-94859875D02*
X154419048Y-93859875D01*
X154419048Y-93859875D02*
X154800000Y-93859875D01*
X154800000Y-93859875D02*
X154895238Y-93907494D01*
X154895238Y-93907494D02*
X154942857Y-93955113D01*
X154942857Y-93955113D02*
X154990476Y-94050351D01*
X154990476Y-94050351D02*
X154990476Y-94193208D01*
X154990476Y-94193208D02*
X154942857Y-94288446D01*
X154942857Y-94288446D02*
X154895238Y-94336065D01*
X154895238Y-94336065D02*
X154800000Y-94383684D01*
X154800000Y-94383684D02*
X154419048Y-94383684D01*
X155371429Y-94574160D02*
X155847619Y-94574160D01*
X155276191Y-94859875D02*
X155609524Y-93859875D01*
X155609524Y-93859875D02*
X155942857Y-94859875D01*
X156847619Y-94764636D02*
X156800000Y-94812256D01*
X156800000Y-94812256D02*
X156657143Y-94859875D01*
X156657143Y-94859875D02*
X156561905Y-94859875D01*
X156561905Y-94859875D02*
X156419048Y-94812256D01*
X156419048Y-94812256D02*
X156323810Y-94717017D01*
X156323810Y-94717017D02*
X156276191Y-94621779D01*
X156276191Y-94621779D02*
X156228572Y-94431303D01*
X156228572Y-94431303D02*
X156228572Y-94288446D01*
X156228572Y-94288446D02*
X156276191Y-94097970D01*
X156276191Y-94097970D02*
X156323810Y-94002732D01*
X156323810Y-94002732D02*
X156419048Y-93907494D01*
X156419048Y-93907494D02*
X156561905Y-93859875D01*
X156561905Y-93859875D02*
X156657143Y-93859875D01*
X156657143Y-93859875D02*
X156800000Y-93907494D01*
X156800000Y-93907494D02*
X156847619Y-93955113D01*
X157276191Y-94859875D02*
X157276191Y-93859875D01*
X157847619Y-94859875D02*
X157419048Y-94288446D01*
X157847619Y-93859875D02*
X157276191Y-94431303D01*
X158276191Y-94336065D02*
X158609524Y-94336065D01*
X158752381Y-94859875D02*
X158276191Y-94859875D01*
X158276191Y-94859875D02*
X158276191Y-93859875D01*
X158276191Y-93859875D02*
X158752381Y-93859875D01*
X159752381Y-94859875D02*
X159419048Y-94383684D01*
X159180953Y-94859875D02*
X159180953Y-93859875D01*
X159180953Y-93859875D02*
X159561905Y-93859875D01*
X159561905Y-93859875D02*
X159657143Y-93907494D01*
X159657143Y-93907494D02*
X159704762Y-93955113D01*
X159704762Y-93955113D02*
X159752381Y-94050351D01*
X159752381Y-94050351D02*
X159752381Y-94193208D01*
X159752381Y-94193208D02*
X159704762Y-94288446D01*
X159704762Y-94288446D02*
X159657143Y-94336065D01*
X159657143Y-94336065D02*
X159561905Y-94383684D01*
X159561905Y-94383684D02*
X159180953Y-94383684D01*
X160180953Y-94478922D02*
X160942858Y-94478922D01*
X161419048Y-94859875D02*
X161419048Y-93859875D01*
X161419048Y-93859875D02*
X161657143Y-93859875D01*
X161657143Y-93859875D02*
X161800000Y-93907494D01*
X161800000Y-93907494D02*
X161895238Y-94002732D01*
X161895238Y-94002732D02*
X161942857Y-94097970D01*
X161942857Y-94097970D02*
X161990476Y-94288446D01*
X161990476Y-94288446D02*
X161990476Y-94431303D01*
X161990476Y-94431303D02*
X161942857Y-94621779D01*
X161942857Y-94621779D02*
X161895238Y-94717017D01*
X161895238Y-94717017D02*
X161800000Y-94812256D01*
X161800000Y-94812256D02*
X161657143Y-94859875D01*
X161657143Y-94859875D02*
X161419048Y-94859875D01*
X162752381Y-94336065D02*
X162895238Y-94383684D01*
X162895238Y-94383684D02*
X162942857Y-94431303D01*
X162942857Y-94431303D02*
X162990476Y-94526541D01*
X162990476Y-94526541D02*
X162990476Y-94669398D01*
X162990476Y-94669398D02*
X162942857Y-94764636D01*
X162942857Y-94764636D02*
X162895238Y-94812256D01*
X162895238Y-94812256D02*
X162800000Y-94859875D01*
X162800000Y-94859875D02*
X162419048Y-94859875D01*
X162419048Y-94859875D02*
X162419048Y-93859875D01*
X162419048Y-93859875D02*
X162752381Y-93859875D01*
X162752381Y-93859875D02*
X162847619Y-93907494D01*
X162847619Y-93907494D02*
X162895238Y-93955113D01*
X162895238Y-93955113D02*
X162942857Y-94050351D01*
X162942857Y-94050351D02*
X162942857Y-94145589D01*
X162942857Y-94145589D02*
X162895238Y-94240827D01*
X162895238Y-94240827D02*
X162847619Y-94288446D01*
X162847619Y-94288446D02*
X162752381Y-94336065D01*
X162752381Y-94336065D02*
X162419048Y-94336065D01*
X154657143Y-95803152D02*
X154895238Y-96469819D01*
X154895238Y-96469819D02*
X155133333Y-95803152D01*
X155704762Y-95469819D02*
X155800000Y-95469819D01*
X155800000Y-95469819D02*
X155895238Y-95517438D01*
X155895238Y-95517438D02*
X155942857Y-95565057D01*
X155942857Y-95565057D02*
X155990476Y-95660295D01*
X155990476Y-95660295D02*
X156038095Y-95850771D01*
X156038095Y-95850771D02*
X156038095Y-96088866D01*
X156038095Y-96088866D02*
X155990476Y-96279342D01*
X155990476Y-96279342D02*
X155942857Y-96374580D01*
X155942857Y-96374580D02*
X155895238Y-96422200D01*
X155895238Y-96422200D02*
X155800000Y-96469819D01*
X155800000Y-96469819D02*
X155704762Y-96469819D01*
X155704762Y-96469819D02*
X155609524Y-96422200D01*
X155609524Y-96422200D02*
X155561905Y-96374580D01*
X155561905Y-96374580D02*
X155514286Y-96279342D01*
X155514286Y-96279342D02*
X155466667Y-96088866D01*
X155466667Y-96088866D02*
X155466667Y-95850771D01*
X155466667Y-95850771D02*
X155514286Y-95660295D01*
X155514286Y-95660295D02*
X155561905Y-95565057D01*
X155561905Y-95565057D02*
X155609524Y-95517438D01*
X155609524Y-95517438D02*
X155704762Y-95469819D01*
X156466667Y-96374580D02*
X156514286Y-96422200D01*
X156514286Y-96422200D02*
X156466667Y-96469819D01*
X156466667Y-96469819D02*
X156419048Y-96422200D01*
X156419048Y-96422200D02*
X156466667Y-96374580D01*
X156466667Y-96374580D02*
X156466667Y-96469819D01*
X157133333Y-95469819D02*
X157228571Y-95469819D01*
X157228571Y-95469819D02*
X157323809Y-95517438D01*
X157323809Y-95517438D02*
X157371428Y-95565057D01*
X157371428Y-95565057D02*
X157419047Y-95660295D01*
X157419047Y-95660295D02*
X157466666Y-95850771D01*
X157466666Y-95850771D02*
X157466666Y-96088866D01*
X157466666Y-96088866D02*
X157419047Y-96279342D01*
X157419047Y-96279342D02*
X157371428Y-96374580D01*
X157371428Y-96374580D02*
X157323809Y-96422200D01*
X157323809Y-96422200D02*
X157228571Y-96469819D01*
X157228571Y-96469819D02*
X157133333Y-96469819D01*
X157133333Y-96469819D02*
X157038095Y-96422200D01*
X157038095Y-96422200D02*
X156990476Y-96374580D01*
X156990476Y-96374580D02*
X156942857Y-96279342D01*
X156942857Y-96279342D02*
X156895238Y-96088866D01*
X156895238Y-96088866D02*
X156895238Y-95850771D01*
X156895238Y-95850771D02*
X156942857Y-95660295D01*
X156942857Y-95660295D02*
X156990476Y-95565057D01*
X156990476Y-95565057D02*
X157038095Y-95517438D01*
X157038095Y-95517438D02*
X157133333Y-95469819D01*
X157895238Y-96374580D02*
X157942857Y-96422200D01*
X157942857Y-96422200D02*
X157895238Y-96469819D01*
X157895238Y-96469819D02*
X157847619Y-96422200D01*
X157847619Y-96422200D02*
X157895238Y-96374580D01*
X157895238Y-96374580D02*
X157895238Y-96469819D01*
X158895237Y-96469819D02*
X158323809Y-96469819D01*
X158609523Y-96469819D02*
X158609523Y-95469819D01*
X158609523Y-95469819D02*
X158514285Y-95612676D01*
X158514285Y-95612676D02*
X158419047Y-95707914D01*
X158419047Y-95707914D02*
X158323809Y-95755533D01*
X160128571Y-80469819D02*
X160128571Y-81279342D01*
X160128571Y-81279342D02*
X160176190Y-81374580D01*
X160176190Y-81374580D02*
X160223809Y-81422200D01*
X160223809Y-81422200D02*
X160319047Y-81469819D01*
X160319047Y-81469819D02*
X160509523Y-81469819D01*
X160509523Y-81469819D02*
X160604761Y-81422200D01*
X160604761Y-81422200D02*
X160652380Y-81374580D01*
X160652380Y-81374580D02*
X160699999Y-81279342D01*
X160699999Y-81279342D02*
X160699999Y-80469819D01*
X161176190Y-81469819D02*
X161176190Y-80469819D01*
X161176190Y-80469819D02*
X161557142Y-80469819D01*
X161557142Y-80469819D02*
X161652380Y-80517438D01*
X161652380Y-80517438D02*
X161699999Y-80565057D01*
X161699999Y-80565057D02*
X161747618Y-80660295D01*
X161747618Y-80660295D02*
X161747618Y-80803152D01*
X161747618Y-80803152D02*
X161699999Y-80898390D01*
X161699999Y-80898390D02*
X161652380Y-80946009D01*
X161652380Y-80946009D02*
X161557142Y-80993628D01*
X161557142Y-80993628D02*
X161176190Y-80993628D01*
X162033333Y-80565057D02*
X162223809Y-80422200D01*
X162223809Y-80422200D02*
X162414285Y-80565057D01*
X152139341Y-90163840D02*
X152091722Y-90211460D01*
X152091722Y-90211460D02*
X151948865Y-90259079D01*
X151948865Y-90259079D02*
X151853627Y-90259079D01*
X151853627Y-90259079D02*
X151710770Y-90211460D01*
X151710770Y-90211460D02*
X151615532Y-90116221D01*
X151615532Y-90116221D02*
X151567913Y-90020983D01*
X151567913Y-90020983D02*
X151520294Y-89830507D01*
X151520294Y-89830507D02*
X151520294Y-89687650D01*
X151520294Y-89687650D02*
X151567913Y-89497174D01*
X151567913Y-89497174D02*
X151615532Y-89401936D01*
X151615532Y-89401936D02*
X151710770Y-89306698D01*
X151710770Y-89306698D02*
X151853627Y-89259079D01*
X151853627Y-89259079D02*
X151948865Y-89259079D01*
X151948865Y-89259079D02*
X152091722Y-89306698D01*
X152091722Y-89306698D02*
X152139341Y-89354317D01*
X152996484Y-89259079D02*
X152806008Y-89259079D01*
X152806008Y-89259079D02*
X152710770Y-89306698D01*
X152710770Y-89306698D02*
X152663151Y-89354317D01*
X152663151Y-89354317D02*
X152567913Y-89497174D01*
X152567913Y-89497174D02*
X152520294Y-89687650D01*
X152520294Y-89687650D02*
X152520294Y-90068602D01*
X152520294Y-90068602D02*
X152567913Y-90163840D01*
X152567913Y-90163840D02*
X152615532Y-90211460D01*
X152615532Y-90211460D02*
X152710770Y-90259079D01*
X152710770Y-90259079D02*
X152901246Y-90259079D01*
X152901246Y-90259079D02*
X152996484Y-90211460D01*
X152996484Y-90211460D02*
X153044103Y-90163840D01*
X153044103Y-90163840D02*
X153091722Y-90068602D01*
X153091722Y-90068602D02*
X153091722Y-89830507D01*
X153091722Y-89830507D02*
X153044103Y-89735269D01*
X153044103Y-89735269D02*
X152996484Y-89687650D01*
X152996484Y-89687650D02*
X152901246Y-89640031D01*
X152901246Y-89640031D02*
X152710770Y-89640031D01*
X152710770Y-89640031D02*
X152615532Y-89687650D01*
X152615532Y-89687650D02*
X152567913Y-89735269D01*
X152567913Y-89735269D02*
X152520294Y-89830507D01*
X146904819Y-102766666D02*
X146428628Y-103099999D01*
X146904819Y-103338094D02*
X145904819Y-103338094D01*
X145904819Y-103338094D02*
X145904819Y-102957142D01*
X145904819Y-102957142D02*
X145952438Y-102861904D01*
X145952438Y-102861904D02*
X146000057Y-102814285D01*
X146000057Y-102814285D02*
X146095295Y-102766666D01*
X146095295Y-102766666D02*
X146238152Y-102766666D01*
X146238152Y-102766666D02*
X146333390Y-102814285D01*
X146333390Y-102814285D02*
X146381009Y-102861904D01*
X146381009Y-102861904D02*
X146428628Y-102957142D01*
X146428628Y-102957142D02*
X146428628Y-103338094D01*
X146000057Y-102385713D02*
X145952438Y-102338094D01*
X145952438Y-102338094D02*
X145904819Y-102242856D01*
X145904819Y-102242856D02*
X145904819Y-102004761D01*
X145904819Y-102004761D02*
X145952438Y-101909523D01*
X145952438Y-101909523D02*
X146000057Y-101861904D01*
X146000057Y-101861904D02*
X146095295Y-101814285D01*
X146095295Y-101814285D02*
X146190533Y-101814285D01*
X146190533Y-101814285D02*
X146333390Y-101861904D01*
X146333390Y-101861904D02*
X146904819Y-102433332D01*
X146904819Y-102433332D02*
X146904819Y-101814285D01*
X141667483Y-103588233D02*
X141667483Y-104397756D01*
X141667483Y-104397756D02*
X141715102Y-104492994D01*
X141715102Y-104492994D02*
X141762721Y-104540614D01*
X141762721Y-104540614D02*
X141857959Y-104588233D01*
X141857959Y-104588233D02*
X142048435Y-104588233D01*
X142048435Y-104588233D02*
X142143673Y-104540614D01*
X142143673Y-104540614D02*
X142191292Y-104492994D01*
X142191292Y-104492994D02*
X142238911Y-104397756D01*
X142238911Y-104397756D02*
X142238911Y-103588233D01*
X143238911Y-104588233D02*
X142667483Y-104588233D01*
X142953197Y-104588233D02*
X142953197Y-103588233D01*
X142953197Y-103588233D02*
X142857959Y-103731090D01*
X142857959Y-103731090D02*
X142762721Y-103826328D01*
X142762721Y-103826328D02*
X142667483Y-103873947D01*
X160154819Y-100242857D02*
X159678628Y-100576190D01*
X160154819Y-100814285D02*
X159154819Y-100814285D01*
X159154819Y-100814285D02*
X159154819Y-100433333D01*
X159154819Y-100433333D02*
X159202438Y-100338095D01*
X159202438Y-100338095D02*
X159250057Y-100290476D01*
X159250057Y-100290476D02*
X159345295Y-100242857D01*
X159345295Y-100242857D02*
X159488152Y-100242857D01*
X159488152Y-100242857D02*
X159583390Y-100290476D01*
X159583390Y-100290476D02*
X159631009Y-100338095D01*
X159631009Y-100338095D02*
X159678628Y-100433333D01*
X159678628Y-100433333D02*
X159678628Y-100814285D01*
X160154819Y-99290476D02*
X160154819Y-99861904D01*
X160154819Y-99576190D02*
X159154819Y-99576190D01*
X159154819Y-99576190D02*
X159297676Y-99671428D01*
X159297676Y-99671428D02*
X159392914Y-99766666D01*
X159392914Y-99766666D02*
X159440533Y-99861904D01*
X159154819Y-98433333D02*
X159154819Y-98623809D01*
X159154819Y-98623809D02*
X159202438Y-98719047D01*
X159202438Y-98719047D02*
X159250057Y-98766666D01*
X159250057Y-98766666D02*
X159392914Y-98861904D01*
X159392914Y-98861904D02*
X159583390Y-98909523D01*
X159583390Y-98909523D02*
X159964342Y-98909523D01*
X159964342Y-98909523D02*
X160059580Y-98861904D01*
X160059580Y-98861904D02*
X160107200Y-98814285D01*
X160107200Y-98814285D02*
X160154819Y-98719047D01*
X160154819Y-98719047D02*
X160154819Y-98528571D01*
X160154819Y-98528571D02*
X160107200Y-98433333D01*
X160107200Y-98433333D02*
X160059580Y-98385714D01*
X160059580Y-98385714D02*
X159964342Y-98338095D01*
X159964342Y-98338095D02*
X159726247Y-98338095D01*
X159726247Y-98338095D02*
X159631009Y-98385714D01*
X159631009Y-98385714D02*
X159583390Y-98433333D01*
X159583390Y-98433333D02*
X159535771Y-98528571D01*
X159535771Y-98528571D02*
X159535771Y-98719047D01*
X159535771Y-98719047D02*
X159583390Y-98814285D01*
X159583390Y-98814285D02*
X159631009Y-98861904D01*
X159631009Y-98861904D02*
X159726247Y-98909523D01*
X146833333Y-86859580D02*
X146785714Y-86907200D01*
X146785714Y-86907200D02*
X146642857Y-86954819D01*
X146642857Y-86954819D02*
X146547619Y-86954819D01*
X146547619Y-86954819D02*
X146404762Y-86907200D01*
X146404762Y-86907200D02*
X146309524Y-86811961D01*
X146309524Y-86811961D02*
X146261905Y-86716723D01*
X146261905Y-86716723D02*
X146214286Y-86526247D01*
X146214286Y-86526247D02*
X146214286Y-86383390D01*
X146214286Y-86383390D02*
X146261905Y-86192914D01*
X146261905Y-86192914D02*
X146309524Y-86097676D01*
X146309524Y-86097676D02*
X146404762Y-86002438D01*
X146404762Y-86002438D02*
X146547619Y-85954819D01*
X146547619Y-85954819D02*
X146642857Y-85954819D01*
X146642857Y-85954819D02*
X146785714Y-86002438D01*
X146785714Y-86002438D02*
X146833333Y-86050057D01*
X147166667Y-85954819D02*
X147785714Y-85954819D01*
X147785714Y-85954819D02*
X147452381Y-86335771D01*
X147452381Y-86335771D02*
X147595238Y-86335771D01*
X147595238Y-86335771D02*
X147690476Y-86383390D01*
X147690476Y-86383390D02*
X147738095Y-86431009D01*
X147738095Y-86431009D02*
X147785714Y-86526247D01*
X147785714Y-86526247D02*
X147785714Y-86764342D01*
X147785714Y-86764342D02*
X147738095Y-86859580D01*
X147738095Y-86859580D02*
X147690476Y-86907200D01*
X147690476Y-86907200D02*
X147595238Y-86954819D01*
X147595238Y-86954819D02*
X147309524Y-86954819D01*
X147309524Y-86954819D02*
X147214286Y-86907200D01*
X147214286Y-86907200D02*
X147166667Y-86859580D01*
X147385065Y-81642857D02*
X146908874Y-81976190D01*
X147385065Y-82214285D02*
X146385065Y-82214285D01*
X146385065Y-82214285D02*
X146385065Y-81833333D01*
X146385065Y-81833333D02*
X146432684Y-81738095D01*
X146432684Y-81738095D02*
X146480303Y-81690476D01*
X146480303Y-81690476D02*
X146575541Y-81642857D01*
X146575541Y-81642857D02*
X146718398Y-81642857D01*
X146718398Y-81642857D02*
X146813636Y-81690476D01*
X146813636Y-81690476D02*
X146861255Y-81738095D01*
X146861255Y-81738095D02*
X146908874Y-81833333D01*
X146908874Y-81833333D02*
X146908874Y-82214285D01*
X147385065Y-80690476D02*
X147385065Y-81261904D01*
X147385065Y-80976190D02*
X146385065Y-80976190D01*
X146385065Y-80976190D02*
X146527922Y-81071428D01*
X146527922Y-81071428D02*
X146623160Y-81166666D01*
X146623160Y-81166666D02*
X146670779Y-81261904D01*
X146385065Y-80357142D02*
X146385065Y-79738095D01*
X146385065Y-79738095D02*
X146766017Y-80071428D01*
X146766017Y-80071428D02*
X146766017Y-79928571D01*
X146766017Y-79928571D02*
X146813636Y-79833333D01*
X146813636Y-79833333D02*
X146861255Y-79785714D01*
X146861255Y-79785714D02*
X146956493Y-79738095D01*
X146956493Y-79738095D02*
X147194588Y-79738095D01*
X147194588Y-79738095D02*
X147289826Y-79785714D01*
X147289826Y-79785714D02*
X147337446Y-79833333D01*
X147337446Y-79833333D02*
X147385065Y-79928571D01*
X147385065Y-79928571D02*
X147385065Y-80214285D01*
X147385065Y-80214285D02*
X147337446Y-80309523D01*
X147337446Y-80309523D02*
X147289826Y-80357142D01*
X142438095Y-80454819D02*
X142438095Y-81264342D01*
X142438095Y-81264342D02*
X142485714Y-81359580D01*
X142485714Y-81359580D02*
X142533333Y-81407200D01*
X142533333Y-81407200D02*
X142628571Y-81454819D01*
X142628571Y-81454819D02*
X142819047Y-81454819D01*
X142819047Y-81454819D02*
X142914285Y-81407200D01*
X142914285Y-81407200D02*
X142961904Y-81359580D01*
X142961904Y-81359580D02*
X143009523Y-81264342D01*
X143009523Y-81264342D02*
X143009523Y-80454819D01*
X143390476Y-80454819D02*
X144009523Y-80454819D01*
X144009523Y-80454819D02*
X143676190Y-80835771D01*
X143676190Y-80835771D02*
X143819047Y-80835771D01*
X143819047Y-80835771D02*
X143914285Y-80883390D01*
X143914285Y-80883390D02*
X143961904Y-80931009D01*
X143961904Y-80931009D02*
X144009523Y-81026247D01*
X144009523Y-81026247D02*
X144009523Y-81264342D01*
X144009523Y-81264342D02*
X143961904Y-81359580D01*
X143961904Y-81359580D02*
X143914285Y-81407200D01*
X143914285Y-81407200D02*
X143819047Y-81454819D01*
X143819047Y-81454819D02*
X143533333Y-81454819D01*
X143533333Y-81454819D02*
X143438095Y-81407200D01*
X143438095Y-81407200D02*
X143390476Y-81359580D01*
X139166666Y-118554819D02*
X139166666Y-119269104D01*
X139166666Y-119269104D02*
X139119047Y-119411961D01*
X139119047Y-119411961D02*
X139023809Y-119507200D01*
X139023809Y-119507200D02*
X138880952Y-119554819D01*
X138880952Y-119554819D02*
X138785714Y-119554819D01*
X140071428Y-118888152D02*
X140071428Y-119554819D01*
X139833333Y-118507200D02*
X139595238Y-119221485D01*
X139595238Y-119221485D02*
X140214285Y-119221485D01*
X160154819Y-103342857D02*
X159678628Y-103676190D01*
X160154819Y-103914285D02*
X159154819Y-103914285D01*
X159154819Y-103914285D02*
X159154819Y-103533333D01*
X159154819Y-103533333D02*
X159202438Y-103438095D01*
X159202438Y-103438095D02*
X159250057Y-103390476D01*
X159250057Y-103390476D02*
X159345295Y-103342857D01*
X159345295Y-103342857D02*
X159488152Y-103342857D01*
X159488152Y-103342857D02*
X159583390Y-103390476D01*
X159583390Y-103390476D02*
X159631009Y-103438095D01*
X159631009Y-103438095D02*
X159678628Y-103533333D01*
X159678628Y-103533333D02*
X159678628Y-103914285D01*
X160154819Y-102390476D02*
X160154819Y-102961904D01*
X160154819Y-102676190D02*
X159154819Y-102676190D01*
X159154819Y-102676190D02*
X159297676Y-102771428D01*
X159297676Y-102771428D02*
X159392914Y-102866666D01*
X159392914Y-102866666D02*
X159440533Y-102961904D01*
X159154819Y-101485714D02*
X159154819Y-101961904D01*
X159154819Y-101961904D02*
X159631009Y-102009523D01*
X159631009Y-102009523D02*
X159583390Y-101961904D01*
X159583390Y-101961904D02*
X159535771Y-101866666D01*
X159535771Y-101866666D02*
X159535771Y-101628571D01*
X159535771Y-101628571D02*
X159583390Y-101533333D01*
X159583390Y-101533333D02*
X159631009Y-101485714D01*
X159631009Y-101485714D02*
X159726247Y-101438095D01*
X159726247Y-101438095D02*
X159964342Y-101438095D01*
X159964342Y-101438095D02*
X160059580Y-101485714D01*
X160059580Y-101485714D02*
X160107200Y-101533333D01*
X160107200Y-101533333D02*
X160154819Y-101628571D01*
X160154819Y-101628571D02*
X160154819Y-101866666D01*
X160154819Y-101866666D02*
X160107200Y-101961904D01*
X160107200Y-101961904D02*
X160059580Y-102009523D01*
X147244950Y-96530670D02*
X146768759Y-96864003D01*
X147244950Y-97102098D02*
X146244950Y-97102098D01*
X146244950Y-97102098D02*
X146244950Y-96721146D01*
X146244950Y-96721146D02*
X146292569Y-96625908D01*
X146292569Y-96625908D02*
X146340188Y-96578289D01*
X146340188Y-96578289D02*
X146435426Y-96530670D01*
X146435426Y-96530670D02*
X146578283Y-96530670D01*
X146578283Y-96530670D02*
X146673521Y-96578289D01*
X146673521Y-96578289D02*
X146721140Y-96625908D01*
X146721140Y-96625908D02*
X146768759Y-96721146D01*
X146768759Y-96721146D02*
X146768759Y-97102098D01*
X147244950Y-95578289D02*
X147244950Y-96149717D01*
X147244950Y-95864003D02*
X146244950Y-95864003D01*
X146244950Y-95864003D02*
X146387807Y-95959241D01*
X146387807Y-95959241D02*
X146483045Y-96054479D01*
X146483045Y-96054479D02*
X146530664Y-96149717D01*
X146340188Y-95197336D02*
X146292569Y-95149717D01*
X146292569Y-95149717D02*
X146244950Y-95054479D01*
X146244950Y-95054479D02*
X146244950Y-94816384D01*
X146244950Y-94816384D02*
X146292569Y-94721146D01*
X146292569Y-94721146D02*
X146340188Y-94673527D01*
X146340188Y-94673527D02*
X146435426Y-94625908D01*
X146435426Y-94625908D02*
X146530664Y-94625908D01*
X146530664Y-94625908D02*
X146673521Y-94673527D01*
X146673521Y-94673527D02*
X147244950Y-95244955D01*
X147244950Y-95244955D02*
X147244950Y-94625908D01*
X145108343Y-99806236D02*
X145060724Y-99853856D01*
X145060724Y-99853856D02*
X144917867Y-99901475D01*
X144917867Y-99901475D02*
X144822629Y-99901475D01*
X144822629Y-99901475D02*
X144679772Y-99853856D01*
X144679772Y-99853856D02*
X144584534Y-99758617D01*
X144584534Y-99758617D02*
X144536915Y-99663379D01*
X144536915Y-99663379D02*
X144489296Y-99472903D01*
X144489296Y-99472903D02*
X144489296Y-99330046D01*
X144489296Y-99330046D02*
X144536915Y-99139570D01*
X144536915Y-99139570D02*
X144584534Y-99044332D01*
X144584534Y-99044332D02*
X144679772Y-98949094D01*
X144679772Y-98949094D02*
X144822629Y-98901475D01*
X144822629Y-98901475D02*
X144917867Y-98901475D01*
X144917867Y-98901475D02*
X145060724Y-98949094D01*
X145060724Y-98949094D02*
X145108343Y-98996713D01*
X146060724Y-99901475D02*
X145489296Y-99901475D01*
X145775010Y-99901475D02*
X145775010Y-98901475D01*
X145775010Y-98901475D02*
X145679772Y-99044332D01*
X145679772Y-99044332D02*
X145584534Y-99139570D01*
X145584534Y-99139570D02*
X145489296Y-99187189D01*
X142298032Y-95008550D02*
X141964699Y-94532359D01*
X141726604Y-95008550D02*
X141726604Y-94008550D01*
X141726604Y-94008550D02*
X142107556Y-94008550D01*
X142107556Y-94008550D02*
X142202794Y-94056169D01*
X142202794Y-94056169D02*
X142250413Y-94103788D01*
X142250413Y-94103788D02*
X142298032Y-94199026D01*
X142298032Y-94199026D02*
X142298032Y-94341883D01*
X142298032Y-94341883D02*
X142250413Y-94437121D01*
X142250413Y-94437121D02*
X142202794Y-94484740D01*
X142202794Y-94484740D02*
X142107556Y-94532359D01*
X142107556Y-94532359D02*
X141726604Y-94532359D01*
X142774223Y-95008550D02*
X142964699Y-95008550D01*
X142964699Y-95008550D02*
X143059937Y-94960931D01*
X143059937Y-94960931D02*
X143107556Y-94913311D01*
X143107556Y-94913311D02*
X143202794Y-94770454D01*
X143202794Y-94770454D02*
X143250413Y-94579978D01*
X143250413Y-94579978D02*
X143250413Y-94199026D01*
X143250413Y-94199026D02*
X143202794Y-94103788D01*
X143202794Y-94103788D02*
X143155175Y-94056169D01*
X143155175Y-94056169D02*
X143059937Y-94008550D01*
X143059937Y-94008550D02*
X142869461Y-94008550D01*
X142869461Y-94008550D02*
X142774223Y-94056169D01*
X142774223Y-94056169D02*
X142726604Y-94103788D01*
X142726604Y-94103788D02*
X142678985Y-94199026D01*
X142678985Y-94199026D02*
X142678985Y-94437121D01*
X142678985Y-94437121D02*
X142726604Y-94532359D01*
X142726604Y-94532359D02*
X142774223Y-94579978D01*
X142774223Y-94579978D02*
X142869461Y-94627597D01*
X142869461Y-94627597D02*
X143059937Y-94627597D01*
X143059937Y-94627597D02*
X143155175Y-94579978D01*
X143155175Y-94579978D02*
X143202794Y-94532359D01*
X143202794Y-94532359D02*
X143250413Y-94437121D01*
X139254819Y-105042857D02*
X138778628Y-105376190D01*
X139254819Y-105614285D02*
X138254819Y-105614285D01*
X138254819Y-105614285D02*
X138254819Y-105233333D01*
X138254819Y-105233333D02*
X138302438Y-105138095D01*
X138302438Y-105138095D02*
X138350057Y-105090476D01*
X138350057Y-105090476D02*
X138445295Y-105042857D01*
X138445295Y-105042857D02*
X138588152Y-105042857D01*
X138588152Y-105042857D02*
X138683390Y-105090476D01*
X138683390Y-105090476D02*
X138731009Y-105138095D01*
X138731009Y-105138095D02*
X138778628Y-105233333D01*
X138778628Y-105233333D02*
X138778628Y-105614285D01*
X139254819Y-104090476D02*
X139254819Y-104661904D01*
X139254819Y-104376190D02*
X138254819Y-104376190D01*
X138254819Y-104376190D02*
X138397676Y-104471428D01*
X138397676Y-104471428D02*
X138492914Y-104566666D01*
X138492914Y-104566666D02*
X138540533Y-104661904D01*
X138254819Y-103471428D02*
X138254819Y-103376190D01*
X138254819Y-103376190D02*
X138302438Y-103280952D01*
X138302438Y-103280952D02*
X138350057Y-103233333D01*
X138350057Y-103233333D02*
X138445295Y-103185714D01*
X138445295Y-103185714D02*
X138635771Y-103138095D01*
X138635771Y-103138095D02*
X138873866Y-103138095D01*
X138873866Y-103138095D02*
X139064342Y-103185714D01*
X139064342Y-103185714D02*
X139159580Y-103233333D01*
X139159580Y-103233333D02*
X139207200Y-103280952D01*
X139207200Y-103280952D02*
X139254819Y-103376190D01*
X139254819Y-103376190D02*
X139254819Y-103471428D01*
X139254819Y-103471428D02*
X139207200Y-103566666D01*
X139207200Y-103566666D02*
X139159580Y-103614285D01*
X139159580Y-103614285D02*
X139064342Y-103661904D01*
X139064342Y-103661904D02*
X138873866Y-103709523D01*
X138873866Y-103709523D02*
X138635771Y-103709523D01*
X138635771Y-103709523D02*
X138445295Y-103661904D01*
X138445295Y-103661904D02*
X138350057Y-103614285D01*
X138350057Y-103614285D02*
X138302438Y-103566666D01*
X138302438Y-103566666D02*
X138254819Y-103471428D01*
X139333333Y-86859580D02*
X139285714Y-86907200D01*
X139285714Y-86907200D02*
X139142857Y-86954819D01*
X139142857Y-86954819D02*
X139047619Y-86954819D01*
X139047619Y-86954819D02*
X138904762Y-86907200D01*
X138904762Y-86907200D02*
X138809524Y-86811961D01*
X138809524Y-86811961D02*
X138761905Y-86716723D01*
X138761905Y-86716723D02*
X138714286Y-86526247D01*
X138714286Y-86526247D02*
X138714286Y-86383390D01*
X138714286Y-86383390D02*
X138761905Y-86192914D01*
X138761905Y-86192914D02*
X138809524Y-86097676D01*
X138809524Y-86097676D02*
X138904762Y-86002438D01*
X138904762Y-86002438D02*
X139047619Y-85954819D01*
X139047619Y-85954819D02*
X139142857Y-85954819D01*
X139142857Y-85954819D02*
X139285714Y-86002438D01*
X139285714Y-86002438D02*
X139333333Y-86050057D01*
X139714286Y-86050057D02*
X139761905Y-86002438D01*
X139761905Y-86002438D02*
X139857143Y-85954819D01*
X139857143Y-85954819D02*
X140095238Y-85954819D01*
X140095238Y-85954819D02*
X140190476Y-86002438D01*
X140190476Y-86002438D02*
X140238095Y-86050057D01*
X140238095Y-86050057D02*
X140285714Y-86145295D01*
X140285714Y-86145295D02*
X140285714Y-86240533D01*
X140285714Y-86240533D02*
X140238095Y-86383390D01*
X140238095Y-86383390D02*
X139666667Y-86954819D01*
X139666667Y-86954819D02*
X140285714Y-86954819D01*
X142364372Y-96731203D02*
X142031039Y-96255012D01*
X141792944Y-96731203D02*
X141792944Y-95731203D01*
X141792944Y-95731203D02*
X142173896Y-95731203D01*
X142173896Y-95731203D02*
X142269134Y-95778822D01*
X142269134Y-95778822D02*
X142316753Y-95826441D01*
X142316753Y-95826441D02*
X142364372Y-95921679D01*
X142364372Y-95921679D02*
X142364372Y-96064536D01*
X142364372Y-96064536D02*
X142316753Y-96159774D01*
X142316753Y-96159774D02*
X142269134Y-96207393D01*
X142269134Y-96207393D02*
X142173896Y-96255012D01*
X142173896Y-96255012D02*
X141792944Y-96255012D01*
X142935801Y-96159774D02*
X142840563Y-96112155D01*
X142840563Y-96112155D02*
X142792944Y-96064536D01*
X142792944Y-96064536D02*
X142745325Y-95969298D01*
X142745325Y-95969298D02*
X142745325Y-95921679D01*
X142745325Y-95921679D02*
X142792944Y-95826441D01*
X142792944Y-95826441D02*
X142840563Y-95778822D01*
X142840563Y-95778822D02*
X142935801Y-95731203D01*
X142935801Y-95731203D02*
X143126277Y-95731203D01*
X143126277Y-95731203D02*
X143221515Y-95778822D01*
X143221515Y-95778822D02*
X143269134Y-95826441D01*
X143269134Y-95826441D02*
X143316753Y-95921679D01*
X143316753Y-95921679D02*
X143316753Y-95969298D01*
X143316753Y-95969298D02*
X143269134Y-96064536D01*
X143269134Y-96064536D02*
X143221515Y-96112155D01*
X143221515Y-96112155D02*
X143126277Y-96159774D01*
X143126277Y-96159774D02*
X142935801Y-96159774D01*
X142935801Y-96159774D02*
X142840563Y-96207393D01*
X142840563Y-96207393D02*
X142792944Y-96255012D01*
X142792944Y-96255012D02*
X142745325Y-96350250D01*
X142745325Y-96350250D02*
X142745325Y-96540726D01*
X142745325Y-96540726D02*
X142792944Y-96635964D01*
X142792944Y-96635964D02*
X142840563Y-96683584D01*
X142840563Y-96683584D02*
X142935801Y-96731203D01*
X142935801Y-96731203D02*
X143126277Y-96731203D01*
X143126277Y-96731203D02*
X143221515Y-96683584D01*
X143221515Y-96683584D02*
X143269134Y-96635964D01*
X143269134Y-96635964D02*
X143316753Y-96540726D01*
X143316753Y-96540726D02*
X143316753Y-96350250D01*
X143316753Y-96350250D02*
X143269134Y-96255012D01*
X143269134Y-96255012D02*
X143221515Y-96207393D01*
X143221515Y-96207393D02*
X143126277Y-96159774D01*
X160031009Y-107033333D02*
X160031009Y-107366666D01*
X160554819Y-107366666D02*
X159554819Y-107366666D01*
X159554819Y-107366666D02*
X159554819Y-106890476D01*
X160554819Y-105985714D02*
X160554819Y-106557142D01*
X160554819Y-106271428D02*
X159554819Y-106271428D01*
X159554819Y-106271428D02*
X159697676Y-106366666D01*
X159697676Y-106366666D02*
X159792914Y-106461904D01*
X159792914Y-106461904D02*
X159840533Y-106557142D01*
X138938872Y-110322802D02*
X138605539Y-109846611D01*
X138367444Y-110322802D02*
X138367444Y-109322802D01*
X138367444Y-109322802D02*
X138748396Y-109322802D01*
X138748396Y-109322802D02*
X138843634Y-109370421D01*
X138843634Y-109370421D02*
X138891253Y-109418040D01*
X138891253Y-109418040D02*
X138938872Y-109513278D01*
X138938872Y-109513278D02*
X138938872Y-109656135D01*
X138938872Y-109656135D02*
X138891253Y-109751373D01*
X138891253Y-109751373D02*
X138843634Y-109798992D01*
X138843634Y-109798992D02*
X138748396Y-109846611D01*
X138748396Y-109846611D02*
X138367444Y-109846611D01*
X139272206Y-109322802D02*
X139938872Y-109322802D01*
X139938872Y-109322802D02*
X139510301Y-110322802D01*
X143866666Y-107954819D02*
X143866666Y-108669104D01*
X143866666Y-108669104D02*
X143819047Y-108811961D01*
X143819047Y-108811961D02*
X143723809Y-108907200D01*
X143723809Y-108907200D02*
X143580952Y-108954819D01*
X143580952Y-108954819D02*
X143485714Y-108954819D01*
X144342857Y-108954819D02*
X144342857Y-107954819D01*
X144342857Y-107954819D02*
X144723809Y-107954819D01*
X144723809Y-107954819D02*
X144819047Y-108002438D01*
X144819047Y-108002438D02*
X144866666Y-108050057D01*
X144866666Y-108050057D02*
X144914285Y-108145295D01*
X144914285Y-108145295D02*
X144914285Y-108288152D01*
X144914285Y-108288152D02*
X144866666Y-108383390D01*
X144866666Y-108383390D02*
X144819047Y-108431009D01*
X144819047Y-108431009D02*
X144723809Y-108478628D01*
X144723809Y-108478628D02*
X144342857Y-108478628D01*
X145866666Y-108954819D02*
X145295238Y-108954819D01*
X145580952Y-108954819D02*
X145580952Y-107954819D01*
X145580952Y-107954819D02*
X145485714Y-108097676D01*
X145485714Y-108097676D02*
X145390476Y-108192914D01*
X145390476Y-108192914D02*
X145295238Y-108240533D01*
X146911905Y-107392319D02*
X146911905Y-106392319D01*
X146911905Y-106392319D02*
X147150000Y-106392319D01*
X147150000Y-106392319D02*
X147292857Y-106439938D01*
X147292857Y-106439938D02*
X147388095Y-106535176D01*
X147388095Y-106535176D02*
X147435714Y-106630414D01*
X147435714Y-106630414D02*
X147483333Y-106820890D01*
X147483333Y-106820890D02*
X147483333Y-106963747D01*
X147483333Y-106963747D02*
X147435714Y-107154223D01*
X147435714Y-107154223D02*
X147388095Y-107249461D01*
X147388095Y-107249461D02*
X147292857Y-107344700D01*
X147292857Y-107344700D02*
X147150000Y-107392319D01*
X147150000Y-107392319D02*
X146911905Y-107392319D01*
X148435714Y-107392319D02*
X147864286Y-107392319D01*
X148150000Y-107392319D02*
X148150000Y-106392319D01*
X148150000Y-106392319D02*
X148054762Y-106535176D01*
X148054762Y-106535176D02*
X147959524Y-106630414D01*
X147959524Y-106630414D02*
X147864286Y-106678033D01*
X150338095Y-91854819D02*
X150338095Y-92664342D01*
X150338095Y-92664342D02*
X150385714Y-92759580D01*
X150385714Y-92759580D02*
X150433333Y-92807200D01*
X150433333Y-92807200D02*
X150528571Y-92854819D01*
X150528571Y-92854819D02*
X150719047Y-92854819D01*
X150719047Y-92854819D02*
X150814285Y-92807200D01*
X150814285Y-92807200D02*
X150861904Y-92759580D01*
X150861904Y-92759580D02*
X150909523Y-92664342D01*
X150909523Y-92664342D02*
X150909523Y-91854819D01*
X151338095Y-91950057D02*
X151385714Y-91902438D01*
X151385714Y-91902438D02*
X151480952Y-91854819D01*
X151480952Y-91854819D02*
X151719047Y-91854819D01*
X151719047Y-91854819D02*
X151814285Y-91902438D01*
X151814285Y-91902438D02*
X151861904Y-91950057D01*
X151861904Y-91950057D02*
X151909523Y-92045295D01*
X151909523Y-92045295D02*
X151909523Y-92140533D01*
X151909523Y-92140533D02*
X151861904Y-92283390D01*
X151861904Y-92283390D02*
X151290476Y-92854819D01*
X151290476Y-92854819D02*
X151909523Y-92854819D01*
X141959580Y-81166666D02*
X142007200Y-81214285D01*
X142007200Y-81214285D02*
X142054819Y-81357142D01*
X142054819Y-81357142D02*
X142054819Y-81452380D01*
X142054819Y-81452380D02*
X142007200Y-81595237D01*
X142007200Y-81595237D02*
X141911961Y-81690475D01*
X141911961Y-81690475D02*
X141816723Y-81738094D01*
X141816723Y-81738094D02*
X141626247Y-81785713D01*
X141626247Y-81785713D02*
X141483390Y-81785713D01*
X141483390Y-81785713D02*
X141292914Y-81738094D01*
X141292914Y-81738094D02*
X141197676Y-81690475D01*
X141197676Y-81690475D02*
X141102438Y-81595237D01*
X141102438Y-81595237D02*
X141054819Y-81452380D01*
X141054819Y-81452380D02*
X141054819Y-81357142D01*
X141054819Y-81357142D02*
X141102438Y-81214285D01*
X141102438Y-81214285D02*
X141150057Y-81166666D01*
X141054819Y-80261904D02*
X141054819Y-80738094D01*
X141054819Y-80738094D02*
X141531009Y-80785713D01*
X141531009Y-80785713D02*
X141483390Y-80738094D01*
X141483390Y-80738094D02*
X141435771Y-80642856D01*
X141435771Y-80642856D02*
X141435771Y-80404761D01*
X141435771Y-80404761D02*
X141483390Y-80309523D01*
X141483390Y-80309523D02*
X141531009Y-80261904D01*
X141531009Y-80261904D02*
X141626247Y-80214285D01*
X141626247Y-80214285D02*
X141864342Y-80214285D01*
X141864342Y-80214285D02*
X141959580Y-80261904D01*
X141959580Y-80261904D02*
X142007200Y-80309523D01*
X142007200Y-80309523D02*
X142054819Y-80404761D01*
X142054819Y-80404761D02*
X142054819Y-80642856D01*
X142054819Y-80642856D02*
X142007200Y-80738094D01*
X142007200Y-80738094D02*
X141959580Y-80785713D01*
X142423497Y-98278581D02*
X142090164Y-97802390D01*
X141852069Y-98278581D02*
X141852069Y-97278581D01*
X141852069Y-97278581D02*
X142233021Y-97278581D01*
X142233021Y-97278581D02*
X142328259Y-97326200D01*
X142328259Y-97326200D02*
X142375878Y-97373819D01*
X142375878Y-97373819D02*
X142423497Y-97469057D01*
X142423497Y-97469057D02*
X142423497Y-97611914D01*
X142423497Y-97611914D02*
X142375878Y-97707152D01*
X142375878Y-97707152D02*
X142328259Y-97754771D01*
X142328259Y-97754771D02*
X142233021Y-97802390D01*
X142233021Y-97802390D02*
X141852069Y-97802390D01*
X143375878Y-98278581D02*
X142804450Y-98278581D01*
X143090164Y-98278581D02*
X143090164Y-97278581D01*
X143090164Y-97278581D02*
X142994926Y-97421438D01*
X142994926Y-97421438D02*
X142899688Y-97516676D01*
X142899688Y-97516676D02*
X142804450Y-97564295D01*
X144328259Y-98278581D02*
X143756831Y-98278581D01*
X144042545Y-98278581D02*
X144042545Y-97278581D01*
X144042545Y-97278581D02*
X143947307Y-97421438D01*
X143947307Y-97421438D02*
X143852069Y-97516676D01*
X143852069Y-97516676D02*
X143756831Y-97564295D01*
X151688095Y-99654819D02*
X151688095Y-100464342D01*
X151688095Y-100464342D02*
X151735714Y-100559580D01*
X151735714Y-100559580D02*
X151783333Y-100607200D01*
X151783333Y-100607200D02*
X151878571Y-100654819D01*
X151878571Y-100654819D02*
X152069047Y-100654819D01*
X152069047Y-100654819D02*
X152164285Y-100607200D01*
X152164285Y-100607200D02*
X152211904Y-100559580D01*
X152211904Y-100559580D02*
X152259523Y-100464342D01*
X152259523Y-100464342D02*
X152259523Y-99654819D01*
X153164285Y-99988152D02*
X153164285Y-100654819D01*
X152926190Y-99607200D02*
X152688095Y-100321485D01*
X152688095Y-100321485D02*
X153307142Y-100321485D01*
X145739657Y-81992219D02*
X145263466Y-82325552D01*
X145739657Y-82563647D02*
X144739657Y-82563647D01*
X144739657Y-82563647D02*
X144739657Y-82182695D01*
X144739657Y-82182695D02*
X144787276Y-82087457D01*
X144787276Y-82087457D02*
X144834895Y-82039838D01*
X144834895Y-82039838D02*
X144930133Y-81992219D01*
X144930133Y-81992219D02*
X145072990Y-81992219D01*
X145072990Y-81992219D02*
X145168228Y-82039838D01*
X145168228Y-82039838D02*
X145215847Y-82087457D01*
X145215847Y-82087457D02*
X145263466Y-82182695D01*
X145263466Y-82182695D02*
X145263466Y-82563647D01*
X145739657Y-81039838D02*
X145739657Y-81611266D01*
X145739657Y-81325552D02*
X144739657Y-81325552D01*
X144739657Y-81325552D02*
X144882514Y-81420790D01*
X144882514Y-81420790D02*
X144977752Y-81516028D01*
X144977752Y-81516028D02*
X145025371Y-81611266D01*
X145072990Y-80182695D02*
X145739657Y-80182695D01*
X144692038Y-80420790D02*
X145406323Y-80658885D01*
X145406323Y-80658885D02*
X145406323Y-80039838D01*
X148168904Y-82635075D02*
X148168904Y-82063647D01*
X149168904Y-82349361D02*
X148168904Y-82349361D01*
X149168904Y-81730313D02*
X148168904Y-81730313D01*
X148645094Y-81730313D02*
X148645094Y-81158885D01*
X149168904Y-81158885D02*
X148168904Y-81158885D01*
X149168904Y-80158885D02*
X149168904Y-80730313D01*
X149168904Y-80444599D02*
X148168904Y-80444599D01*
X148168904Y-80444599D02*
X148311761Y-80539837D01*
X148311761Y-80539837D02*
X148406999Y-80635075D01*
X148406999Y-80635075D02*
X148454618Y-80730313D01*
X152013166Y-88454747D02*
X151965547Y-88502367D01*
X151965547Y-88502367D02*
X151822690Y-88549986D01*
X151822690Y-88549986D02*
X151727452Y-88549986D01*
X151727452Y-88549986D02*
X151584595Y-88502367D01*
X151584595Y-88502367D02*
X151489357Y-88407128D01*
X151489357Y-88407128D02*
X151441738Y-88311890D01*
X151441738Y-88311890D02*
X151394119Y-88121414D01*
X151394119Y-88121414D02*
X151394119Y-87978557D01*
X151394119Y-87978557D02*
X151441738Y-87788081D01*
X151441738Y-87788081D02*
X151489357Y-87692843D01*
X151489357Y-87692843D02*
X151584595Y-87597605D01*
X151584595Y-87597605D02*
X151727452Y-87549986D01*
X151727452Y-87549986D02*
X151822690Y-87549986D01*
X151822690Y-87549986D02*
X151965547Y-87597605D01*
X151965547Y-87597605D02*
X152013166Y-87645224D01*
X152870309Y-87883319D02*
X152870309Y-88549986D01*
X152632214Y-87502367D02*
X152394119Y-88216652D01*
X152394119Y-88216652D02*
X153013166Y-88216652D01*
X139866666Y-111322319D02*
X139866666Y-112036604D01*
X139866666Y-112036604D02*
X139819047Y-112179461D01*
X139819047Y-112179461D02*
X139723809Y-112274700D01*
X139723809Y-112274700D02*
X139580952Y-112322319D01*
X139580952Y-112322319D02*
X139485714Y-112322319D01*
X140247619Y-111322319D02*
X140866666Y-111322319D01*
X140866666Y-111322319D02*
X140533333Y-111703271D01*
X140533333Y-111703271D02*
X140676190Y-111703271D01*
X140676190Y-111703271D02*
X140771428Y-111750890D01*
X140771428Y-111750890D02*
X140819047Y-111798509D01*
X140819047Y-111798509D02*
X140866666Y-111893747D01*
X140866666Y-111893747D02*
X140866666Y-112131842D01*
X140866666Y-112131842D02*
X140819047Y-112227080D01*
X140819047Y-112227080D02*
X140771428Y-112274700D01*
X140771428Y-112274700D02*
X140676190Y-112322319D01*
X140676190Y-112322319D02*
X140390476Y-112322319D01*
X140390476Y-112322319D02*
X140295238Y-112274700D01*
X140295238Y-112274700D02*
X140247619Y-112227080D01*
D11*
%TO.C,C6*%
X148940428Y-89194260D02*
X149221588Y-89194260D01*
X148940428Y-90214260D02*
X149221588Y-90214260D01*
%TO.C,R2*%
X147398989Y-102782258D02*
X147398989Y-102307742D01*
X148443989Y-102782258D02*
X148443989Y-102307742D01*
%TO.C,U1*%
X139906888Y-102073414D02*
X140001888Y-102073414D01*
X139906888Y-106193414D02*
X139906888Y-102073414D01*
X140001888Y-106193414D02*
X139906888Y-106193414D01*
X144931888Y-102073414D02*
X145026888Y-102073414D01*
X145026888Y-102073414D02*
X145026888Y-106193414D01*
X145026888Y-106193414D02*
X144931888Y-106193414D01*
X145266888Y-101773414D02*
X144936888Y-101533414D01*
X145266888Y-101293414D01*
X145266888Y-101773414D01*
G36*
X145266888Y-101773414D02*
G01*
X144936888Y-101533414D01*
X145266888Y-101293414D01*
X145266888Y-101773414D01*
G37*
%TO.C,R16*%
X157577500Y-99912258D02*
X157577500Y-99437742D01*
X158622500Y-99912258D02*
X158622500Y-99437742D01*
%TO.C,C3*%
X146205547Y-89016492D02*
X146205547Y-88735332D01*
X147225547Y-89016492D02*
X147225547Y-88735332D01*
%TO.C,J2*%
X137792975Y-82335572D02*
X137792975Y-80955572D01*
X139172975Y-82335572D02*
X137792975Y-82335572D01*
X140442975Y-79575572D02*
X140552975Y-79575572D01*
X140442975Y-82335572D02*
X140442975Y-79575572D01*
X140442975Y-82335572D02*
X140552975Y-82335572D01*
X140552975Y-82335572D02*
X140552975Y-79575572D01*
%TO.C,R13*%
X146465167Y-83780626D02*
X146465167Y-84255142D01*
X147510167Y-83780626D02*
X147510167Y-84255142D01*
%TO.C,U3*%
X141838491Y-84755622D02*
X141838491Y-82755622D01*
X144118491Y-84745622D02*
X144118491Y-82745622D01*
X141908491Y-85395622D02*
X141628491Y-85115622D01*
X141908491Y-85115622D01*
X141908491Y-85395622D01*
G36*
X141908491Y-85395622D02*
G01*
X141628491Y-85115622D01*
X141908491Y-85115622D01*
X141908491Y-85395622D01*
G37*
%TO.C,J4*%
X125850000Y-80470000D02*
X131850000Y-80470000D01*
X125850000Y-81330000D02*
X125850000Y-80470000D01*
X125850000Y-83010000D02*
X131850000Y-83010000D01*
X125850000Y-83870000D02*
X125850000Y-83010000D01*
X125850000Y-85550000D02*
X131850000Y-85550000D01*
X125850000Y-86410000D02*
X125850000Y-85550000D01*
X125850000Y-88090000D02*
X131850000Y-88090000D01*
X125850000Y-88950000D02*
X125850000Y-88090000D01*
X125850000Y-90630000D02*
X131850000Y-90630000D01*
X125850000Y-91490000D02*
X125850000Y-90630000D01*
X125850000Y-93170000D02*
X131850000Y-93170000D01*
X125850000Y-94030000D02*
X125850000Y-93170000D01*
X125850000Y-95710000D02*
X131850000Y-95710000D01*
X125850000Y-96570000D02*
X125850000Y-95710000D01*
X125850000Y-98250000D02*
X131850000Y-98250000D01*
X125850000Y-99110000D02*
X125850000Y-98250000D01*
X125850000Y-100790000D02*
X131850000Y-100790000D01*
X125850000Y-101650000D02*
X125850000Y-100790000D01*
X125850000Y-103330000D02*
X131850000Y-103330000D01*
X125850000Y-104190000D02*
X125850000Y-103330000D01*
X125850000Y-105870000D02*
X131850000Y-105870000D01*
X125850000Y-106730000D02*
X125850000Y-105870000D01*
X125850000Y-108410000D02*
X131850000Y-108410000D01*
X125850000Y-109270000D02*
X125850000Y-108410000D01*
X125850000Y-110950000D02*
X131850000Y-110950000D01*
X125850000Y-111810000D02*
X125850000Y-110950000D01*
X125850000Y-113490000D02*
X131850000Y-113490000D01*
X125850000Y-114350000D02*
X125850000Y-113490000D01*
X125850000Y-116030000D02*
X131850000Y-116030000D01*
X125850000Y-116890000D02*
X125850000Y-116030000D01*
X131850000Y-79520000D02*
X131850000Y-120380000D01*
X131850000Y-81330000D02*
X125850000Y-81330000D01*
X131850000Y-83870000D02*
X125850000Y-83870000D01*
X131850000Y-86410000D02*
X125850000Y-86410000D01*
X131850000Y-88950000D02*
X125850000Y-88950000D01*
X131850000Y-91490000D02*
X125850000Y-91490000D01*
X131850000Y-94030000D02*
X125850000Y-94030000D01*
X131850000Y-96570000D02*
X125850000Y-96570000D01*
X131850000Y-99110000D02*
X125850000Y-99110000D01*
X131850000Y-101650000D02*
X125850000Y-101650000D01*
X131850000Y-104190000D02*
X125850000Y-104190000D01*
X131850000Y-106730000D02*
X125850000Y-106730000D01*
X131850000Y-109270000D02*
X125850000Y-109270000D01*
X131850000Y-111810000D02*
X125850000Y-111810000D01*
X131850000Y-114350000D02*
X125850000Y-114350000D01*
X131850000Y-116890000D02*
X125850000Y-116890000D01*
X131850000Y-120380000D02*
X134610000Y-120380000D01*
X134610000Y-79520000D02*
X131850000Y-79520000D01*
X134610000Y-82170000D02*
X131850000Y-82170000D01*
X134610000Y-84710000D02*
X131850000Y-84710000D01*
X134610000Y-87250000D02*
X131850000Y-87250000D01*
X134610000Y-89790000D02*
X131850000Y-89790000D01*
X134610000Y-92330000D02*
X131850000Y-92330000D01*
X134610000Y-94870000D02*
X131850000Y-94870000D01*
X134610000Y-97410000D02*
X131850000Y-97410000D01*
X134610000Y-99950000D02*
X131850000Y-99950000D01*
X134610000Y-102490000D02*
X131850000Y-102490000D01*
X134610000Y-105030000D02*
X131850000Y-105030000D01*
X134610000Y-107570000D02*
X131850000Y-107570000D01*
X134610000Y-110110000D02*
X131850000Y-110110000D01*
X134610000Y-112650000D02*
X131850000Y-112650000D01*
X134610000Y-115190000D02*
X131850000Y-115190000D01*
X134610000Y-117730000D02*
X131850000Y-117730000D01*
X134610000Y-120380000D02*
X134610000Y-79520000D01*
X134840000Y-118570000D02*
X134610000Y-118570000D01*
X134840000Y-119430000D02*
X134610000Y-119430000D01*
X134922642Y-80470000D02*
X134610000Y-80470000D01*
X134922642Y-81330000D02*
X134610000Y-81330000D01*
X134922642Y-83010000D02*
X134610000Y-83010000D01*
X134922642Y-83870000D02*
X134610000Y-83870000D01*
X134922642Y-85550000D02*
X134610000Y-85550000D01*
X134922642Y-86410000D02*
X134610000Y-86410000D01*
X134922642Y-88090000D02*
X134610000Y-88090000D01*
X134922642Y-88950000D02*
X134610000Y-88950000D01*
X134922642Y-90630000D02*
X134610000Y-90630000D01*
X134922642Y-91490000D02*
X134610000Y-91490000D01*
X134922642Y-93170000D02*
X134610000Y-93170000D01*
X134922642Y-94030000D02*
X134610000Y-94030000D01*
X134922642Y-95710000D02*
X134610000Y-95710000D01*
X134922642Y-96570000D02*
X134610000Y-96570000D01*
X134922642Y-98250000D02*
X134610000Y-98250000D01*
X134922642Y-99110000D02*
X134610000Y-99110000D01*
X134922642Y-100790000D02*
X134610000Y-100790000D01*
X134922642Y-101650000D02*
X134610000Y-101650000D01*
X134922642Y-103330000D02*
X134610000Y-103330000D01*
X134922642Y-104190000D02*
X134610000Y-104190000D01*
X134922642Y-105870000D02*
X134610000Y-105870000D01*
X134922642Y-106730000D02*
X134610000Y-106730000D01*
X134922642Y-108410000D02*
X134610000Y-108410000D01*
X134922642Y-109270000D02*
X134610000Y-109270000D01*
X134922642Y-110950000D02*
X134610000Y-110950000D01*
X134922642Y-111810000D02*
X134610000Y-111810000D01*
X134922642Y-113490000D02*
X134610000Y-113490000D01*
X134922642Y-114350000D02*
X134610000Y-114350000D01*
X134922642Y-116030000D02*
X134610000Y-116030000D01*
X134922642Y-116890000D02*
X134610000Y-116890000D01*
X137270000Y-119000000D02*
X137270000Y-120270000D01*
X137270000Y-120270000D02*
X136000000Y-120270000D01*
X131850000Y-119430000D02*
X125850000Y-119430000D01*
X125850000Y-118570000D01*
X131850000Y-118570000D01*
X131850000Y-119430000D01*
G36*
X131850000Y-119430000D02*
G01*
X125850000Y-119430000D01*
X125850000Y-118570000D01*
X131850000Y-118570000D01*
X131850000Y-119430000D01*
G37*
%TO.C,R15*%
X157577500Y-103012258D02*
X157577500Y-102537742D01*
X158622500Y-103012258D02*
X158622500Y-102537742D01*
%TO.C,R12*%
X147697631Y-96125071D02*
X147697631Y-95650555D01*
X148742631Y-96125071D02*
X148742631Y-95650555D01*
%TO.C,C1*%
X142572836Y-98985917D02*
X142853996Y-98985917D01*
X142572836Y-100005917D02*
X142853996Y-100005917D01*
%TO.C,R9*%
X139645360Y-93972989D02*
X140119876Y-93972989D01*
X139645360Y-95017989D02*
X140119876Y-95017989D01*
%TO.C,R10*%
X138229161Y-101291714D02*
X138229161Y-101766230D01*
X139274161Y-101291714D02*
X139274161Y-101766230D01*
%TO.C,C2*%
X139869071Y-84365614D02*
X139587911Y-84365614D01*
X139869071Y-85385614D02*
X139587911Y-85385614D01*
%TO.C,R8*%
X139677248Y-95660436D02*
X140151764Y-95660436D01*
X139677248Y-96705436D02*
X140151764Y-96705436D01*
%TO.C,F1*%
X157190000Y-107664564D02*
X157190000Y-106210436D01*
X159010000Y-107664564D02*
X159010000Y-106210436D01*
%TO.C,R7*%
X138577500Y-108137258D02*
X138577500Y-107662742D01*
X139622500Y-108137258D02*
X139622500Y-107662742D01*
%TO.C,JP1*%
X140280777Y-109476007D02*
X140280777Y-108876007D01*
X140980777Y-108176007D02*
X142380777Y-108176007D01*
X142380777Y-110176007D02*
X140980777Y-110176007D01*
X143080777Y-108876007D02*
X143080777Y-109476007D01*
X140280777Y-108876007D02*
G75*
G02*
X140980777Y-108176007I700000J0D01*
G01*
X140980777Y-110176007D02*
G75*
G02*
X140280777Y-109476007I0J700000D01*
G01*
X142380777Y-108176007D02*
G75*
G02*
X143080777Y-108876007I1J-699999D01*
G01*
X143080777Y-109476007D02*
G75*
G02*
X142380777Y-110176007I-699999J-1D01*
G01*
%TO.C,D1*%
X148840000Y-104887500D02*
X148840000Y-109187500D01*
X148840000Y-104887500D02*
X154650000Y-104887500D01*
X148840000Y-109187500D02*
X154650000Y-109187500D01*
%TO.C,U2*%
X146090000Y-90689749D02*
X146765000Y-90689749D01*
X146090000Y-90864749D02*
X146090000Y-90689749D01*
X146090000Y-93909749D02*
X146090000Y-93734749D01*
X146765000Y-93909749D02*
X146090000Y-93909749D01*
X148635000Y-90689749D02*
X149310000Y-90689749D01*
X149310000Y-90689749D02*
X149310000Y-90864749D01*
X149310000Y-93734749D02*
X149310000Y-93909749D01*
X149310000Y-93909749D02*
X148635000Y-93909749D01*
X145940000Y-91299749D02*
X145610000Y-91539749D01*
X145610000Y-91059749D01*
X145940000Y-91299749D01*
G36*
X145940000Y-91299749D02*
G01*
X145610000Y-91539749D01*
X145610000Y-91059749D01*
X145940000Y-91299749D01*
G37*
D12*
%TO.C,G\u002A\u002A\u002A*%
G36*
X156873420Y-89386573D02*
G01*
X157290326Y-89389393D01*
X157290326Y-90305388D01*
X156872741Y-90308208D01*
X156455155Y-90311029D01*
X156454644Y-90001081D01*
X156454292Y-89914995D01*
X156453562Y-89830194D01*
X156452517Y-89750739D01*
X156451219Y-89680691D01*
X156449734Y-89624113D01*
X156448139Y-89585347D01*
X156446231Y-89533414D01*
X156446185Y-89483780D01*
X156447941Y-89444249D01*
X156449329Y-89431657D01*
X156456513Y-89383754D01*
X156873420Y-89386573D01*
G37*
G36*
X157293136Y-92398580D02*
G01*
X157290326Y-92859397D01*
X156879778Y-92862489D01*
X156770308Y-92863171D01*
X156680624Y-92863383D01*
X156608963Y-92863078D01*
X156553561Y-92862211D01*
X156512655Y-92860738D01*
X156484483Y-92858613D01*
X156467282Y-92855790D01*
X156459287Y-92852226D01*
X156458837Y-92851712D01*
X156456268Y-92837543D01*
X156454041Y-92803306D01*
X156452186Y-92750488D01*
X156450735Y-92680570D01*
X156449718Y-92595036D01*
X156449169Y-92495371D01*
X156449105Y-92390623D01*
X156449766Y-91943402D01*
X157295946Y-91937764D01*
X157293136Y-92398580D01*
G37*
G36*
X156142639Y-90310776D02*
G01*
X155939843Y-90310776D01*
X155850467Y-90311570D01*
X155779503Y-90314332D01*
X155723858Y-90319626D01*
X155680437Y-90328021D01*
X155646146Y-90340079D01*
X155617889Y-90356371D01*
X155596726Y-90373583D01*
X155560458Y-90413091D01*
X155535210Y-90457243D01*
X155519187Y-90510864D01*
X155510595Y-90578780D01*
X155508888Y-90609759D01*
X155504392Y-90720155D01*
X156397359Y-90722911D01*
X157290326Y-90725668D01*
X157290326Y-91523122D01*
X156401273Y-91528510D01*
X155512219Y-91533899D01*
X155512390Y-91641663D01*
X155513039Y-91693112D01*
X155515578Y-91729353D01*
X155521185Y-91756723D01*
X155531039Y-91781554D01*
X155542473Y-91803309D01*
X155586441Y-91861839D01*
X155643316Y-91903570D01*
X155711292Y-91927181D01*
X155712260Y-91927366D01*
X155742009Y-91930940D01*
X155788317Y-91934004D01*
X155846194Y-91936337D01*
X155910645Y-91937724D01*
X155955522Y-91938014D01*
X156142639Y-91938014D01*
X156142639Y-92395374D01*
X156142454Y-92492468D01*
X156141928Y-92582689D01*
X156141098Y-92663804D01*
X156140005Y-92733574D01*
X156138687Y-92789763D01*
X156137184Y-92830131D01*
X156135535Y-92852444D01*
X156134556Y-92856222D01*
X156121579Y-92856999D01*
X156090833Y-92856922D01*
X156046084Y-92856061D01*
X155991097Y-92854479D01*
X155948663Y-92852983D01*
X155776139Y-92839442D01*
X155618157Y-92811733D01*
X155472097Y-92768729D01*
X155335344Y-92709306D01*
X155205279Y-92632337D01*
X155079286Y-92536695D01*
X154962148Y-92428685D01*
X154887083Y-92350114D01*
X154826433Y-92277834D01*
X154776373Y-92206648D01*
X154733080Y-92131364D01*
X154711977Y-92088884D01*
X154686785Y-92033521D01*
X154666650Y-91982837D01*
X154649809Y-91931084D01*
X154634498Y-91872517D01*
X154618954Y-91801386D01*
X154610027Y-91756676D01*
X154604453Y-91727372D01*
X154599791Y-91699994D01*
X154595959Y-91672343D01*
X154592878Y-91642222D01*
X154590464Y-91607431D01*
X154588637Y-91565772D01*
X154587316Y-91515048D01*
X154586418Y-91453060D01*
X154585866Y-91377609D01*
X154585573Y-91286497D01*
X154585462Y-91177527D01*
X154585447Y-91092066D01*
X154585447Y-90553245D01*
X154616141Y-90419577D01*
X154652102Y-90287830D01*
X154697088Y-90171103D01*
X154753985Y-90063758D01*
X154825673Y-89960156D01*
X154891820Y-89880457D01*
X155009867Y-89759921D01*
X155135586Y-89657314D01*
X155270335Y-89572030D01*
X155415469Y-89503466D01*
X155572347Y-89451017D01*
X155742325Y-89414079D01*
X155926761Y-89392049D01*
X155999310Y-89387537D01*
X156142639Y-89380663D01*
X156142639Y-90310776D01*
G37*
G36*
X156171450Y-87617924D02*
G01*
X156330170Y-87618283D01*
X156507974Y-87618800D01*
X156706057Y-87619437D01*
X156719598Y-87619482D01*
X158001570Y-87623712D01*
X158125498Y-87651146D01*
X158256542Y-87686151D01*
X158372799Y-87730799D01*
X158479858Y-87787715D01*
X158583313Y-87859524D01*
X158604037Y-87875883D01*
X158716397Y-87977164D01*
X158814373Y-88087914D01*
X158896014Y-88205436D01*
X158959362Y-88327030D01*
X158990374Y-88408739D01*
X159004433Y-88453584D01*
X159014796Y-88490972D01*
X159022824Y-88527454D01*
X159029882Y-88569578D01*
X159037332Y-88623896D01*
X159040815Y-88651209D01*
X159042052Y-88671784D01*
X159043253Y-88712986D01*
X159044409Y-88773891D01*
X159045515Y-88853572D01*
X159046565Y-88951105D01*
X159047554Y-89065564D01*
X159048476Y-89196023D01*
X159049325Y-89341558D01*
X159050095Y-89501243D01*
X159050781Y-89674153D01*
X159051377Y-89859362D01*
X159051877Y-90055946D01*
X159052275Y-90262977D01*
X159052566Y-90479533D01*
X159052633Y-90547856D01*
X159052838Y-90779560D01*
X159053010Y-90990706D01*
X159053142Y-91182291D01*
X159053221Y-91355311D01*
X159053233Y-91510761D01*
X159053172Y-91649637D01*
X159053025Y-91772936D01*
X159052781Y-91881653D01*
X159052429Y-91976783D01*
X159051959Y-92059323D01*
X159051360Y-92130268D01*
X159050619Y-92190615D01*
X159049728Y-92241359D01*
X159048675Y-92283496D01*
X159047448Y-92318021D01*
X159046038Y-92345931D01*
X159044432Y-92368221D01*
X159042621Y-92385888D01*
X159040594Y-92399927D01*
X159038338Y-92411333D01*
X159035845Y-92421104D01*
X159033102Y-92430233D01*
X159031996Y-92433729D01*
X158994754Y-92524365D01*
X158943879Y-92609223D01*
X158883678Y-92681380D01*
X158869435Y-92695022D01*
X158814561Y-92742064D01*
X158764158Y-92776919D01*
X158709783Y-92804661D01*
X158645660Y-92829428D01*
X158561943Y-92858711D01*
X158109333Y-92860580D01*
X158011545Y-92860866D01*
X157919610Y-92860908D01*
X157835952Y-92860723D01*
X157762995Y-92860326D01*
X157703166Y-92859732D01*
X157658888Y-92858957D01*
X157632585Y-92858015D01*
X157627089Y-92857513D01*
X157597455Y-92852577D01*
X157597455Y-91940501D01*
X157777959Y-91935800D01*
X157854233Y-91933245D01*
X157912795Y-91929463D01*
X157957484Y-91923525D01*
X157992135Y-91914503D01*
X158020589Y-91901469D01*
X158046685Y-91883496D01*
X158067502Y-91865780D01*
X158082775Y-91852254D01*
X158095793Y-91840042D01*
X158106745Y-91827398D01*
X158115818Y-91812572D01*
X158123202Y-91793815D01*
X158129083Y-91769380D01*
X158133651Y-91737518D01*
X158137093Y-91696480D01*
X158139598Y-91644519D01*
X158141353Y-91579884D01*
X158142547Y-91500829D01*
X158143367Y-91405605D01*
X158144003Y-91292462D01*
X158144642Y-91159654D01*
X158144698Y-91148364D01*
X158145225Y-90999874D01*
X158145252Y-90869278D01*
X158144785Y-90757135D01*
X158143832Y-90664002D01*
X158142399Y-90590438D01*
X158140493Y-90537001D01*
X158138121Y-90504251D01*
X158136638Y-90495325D01*
X158108610Y-90430587D01*
X158062230Y-90376933D01*
X158023767Y-90348829D01*
X158003916Y-90336927D01*
X157986123Y-90328230D01*
X157966496Y-90322111D01*
X157941142Y-90317946D01*
X157906169Y-90315109D01*
X157857686Y-90312975D01*
X157791799Y-90310920D01*
X157786889Y-90310776D01*
X157602842Y-90305388D01*
X157602842Y-89389394D01*
X157872253Y-89384005D01*
X158141663Y-89378616D01*
X158140362Y-89195417D01*
X158139624Y-89126404D01*
X158138180Y-89074252D01*
X158135501Y-89034273D01*
X158131056Y-89001775D01*
X158124316Y-88972070D01*
X158114750Y-88940466D01*
X158109935Y-88926007D01*
X158066970Y-88830383D01*
X158007010Y-88743829D01*
X157933029Y-88669548D01*
X157848002Y-88610737D01*
X157792005Y-88583838D01*
X157732159Y-88559609D01*
X155361349Y-88548833D01*
X155293148Y-88524186D01*
X155199947Y-88481914D01*
X155123817Y-88427780D01*
X155062847Y-88359817D01*
X155015125Y-88276057D01*
X154990373Y-88212409D01*
X154971487Y-88123308D01*
X154972443Y-88033334D01*
X154991866Y-87945399D01*
X155028379Y-87862410D01*
X155080606Y-87787275D01*
X155147170Y-87722901D01*
X155226695Y-87672197D01*
X155251526Y-87660661D01*
X155267538Y-87653974D01*
X155283500Y-87647978D01*
X155300609Y-87642641D01*
X155320060Y-87637929D01*
X155343049Y-87633809D01*
X155370772Y-87630246D01*
X155404425Y-87627208D01*
X155445205Y-87624660D01*
X155494303Y-87622570D01*
X155552921Y-87620903D01*
X155622251Y-87619627D01*
X155703490Y-87618707D01*
X155797833Y-87618111D01*
X155906477Y-87617804D01*
X156030617Y-87617753D01*
X156171450Y-87617924D01*
G37*
D11*
%TO.C,C5*%
X139869071Y-82690000D02*
X139587911Y-82690000D01*
X139869071Y-83710000D02*
X139587911Y-83710000D01*
%TO.C,R11*%
X140158712Y-97347062D02*
X139684196Y-97347062D01*
X140158712Y-98392062D02*
X139684196Y-98392062D01*
%TO.C,U4*%
X150941489Y-101115000D02*
X154161489Y-101115000D01*
X150941489Y-101290000D02*
X150941489Y-101115000D01*
X150941489Y-104335000D02*
X150941489Y-104160000D01*
X154161489Y-101115000D02*
X154161489Y-101290000D01*
X154161489Y-104160000D02*
X154161489Y-104335000D01*
X154161489Y-104335000D02*
X150941489Y-104335000D01*
X150391489Y-101285000D02*
X150151489Y-100955000D01*
X150631489Y-100955000D01*
X150391489Y-101285000D01*
G36*
X150391489Y-101285000D02*
G01*
X150151489Y-100955000D01*
X150631489Y-100955000D01*
X150391489Y-101285000D01*
G37*
%TO.C,R14*%
X144710381Y-84291026D02*
X144710381Y-83816510D01*
X145755381Y-84291026D02*
X145755381Y-83816510D01*
%TO.C,TH1*%
X148191585Y-84261620D02*
X148191585Y-83787104D01*
X149236585Y-84261620D02*
X149236585Y-83787104D01*
%TO.C,C4*%
X148939253Y-87585167D02*
X149220413Y-87585167D01*
X148939253Y-88605167D02*
X149220413Y-88605167D01*
%TO.C,J3*%
X138390000Y-110557500D02*
X138390000Y-119977500D01*
X138390000Y-110557500D02*
X144350000Y-110557500D01*
X138390000Y-119977500D02*
X162910000Y-119977500D01*
X143190000Y-110557500D02*
X143190000Y-119977500D01*
X143190000Y-116667500D02*
X158110000Y-116667500D01*
X145100000Y-109267500D02*
X145700000Y-109267500D01*
X145400000Y-109867500D02*
X145100000Y-109267500D01*
X145700000Y-109267500D02*
X145400000Y-109867500D01*
X146450000Y-110557500D02*
X147850000Y-110557500D01*
X149950000Y-110557500D02*
X151350000Y-110557500D01*
X153450000Y-110557500D02*
X154850000Y-110557500D01*
X158110000Y-110557500D02*
X158110000Y-119977500D01*
X162910000Y-110557500D02*
X156950000Y-110557500D01*
X162910000Y-119977500D02*
X162910000Y-110557500D01*
%TD*%
%LPC*%
%TO.C,JP1*%
G36*
X141830777Y-109926007D02*
G01*
X141530777Y-109926007D01*
X141530777Y-108426007D01*
X141830777Y-108426007D01*
X141830777Y-109926007D01*
G37*
%TD*%
D13*
%TO.C,C6*%
X148306008Y-89704260D03*
X149856008Y-89704260D03*
%TD*%
D14*
%TO.C,R2*%
X147921489Y-103370000D03*
X147921489Y-101720000D03*
%TD*%
D15*
%TO.C,U1*%
X144371888Y-101658414D03*
X143101888Y-101658414D03*
X141831888Y-101658414D03*
X140561888Y-101658414D03*
X140561888Y-106608414D03*
X141831888Y-106608414D03*
X143101888Y-106608414D03*
X144371888Y-106608414D03*
%TD*%
D14*
%TO.C,R16*%
X158100000Y-100500000D03*
X158100000Y-98850000D03*
%TD*%
D16*
%TO.C,C3*%
X146715547Y-89650912D03*
X146715547Y-88100912D03*
%TD*%
D17*
%TO.C,J2*%
X139172975Y-80955572D03*
%TD*%
D18*
%TO.C,R13*%
X146987667Y-83192884D03*
X146987667Y-84842884D03*
%TD*%
D19*
%TO.C,U3*%
X142228491Y-84695622D03*
X142728491Y-84695622D03*
X143228491Y-84695622D03*
X143728491Y-84695622D03*
X143728491Y-82795622D03*
X143228491Y-82795622D03*
X142728491Y-82795622D03*
X142228491Y-82795622D03*
D20*
X142978491Y-83745622D03*
%TD*%
D17*
%TO.C,J4*%
X136000000Y-119000000D03*
D21*
X136000000Y-116460000D03*
X136000000Y-113920000D03*
X136000000Y-111380000D03*
X136000000Y-108840000D03*
X136000000Y-106300000D03*
X136000000Y-103760000D03*
X136000000Y-101220000D03*
X136000000Y-98680000D03*
X136000000Y-96140000D03*
X136000000Y-93600000D03*
X136000000Y-91060000D03*
X136000000Y-88520000D03*
X136000000Y-85980000D03*
X136000000Y-83440000D03*
X136000000Y-80900000D03*
%TD*%
D14*
%TO.C,R15*%
X158100000Y-103600000D03*
X158100000Y-101950000D03*
%TD*%
%TO.C,R12*%
X148220131Y-96712813D03*
X148220131Y-95062813D03*
%TD*%
D13*
%TO.C,C1*%
X141938416Y-99495917D03*
X143488416Y-99495917D03*
%TD*%
D22*
%TO.C,R9*%
X139057618Y-94495489D03*
X140707618Y-94495489D03*
%TD*%
D18*
%TO.C,R10*%
X138751661Y-100703972D03*
X138751661Y-102353972D03*
%TD*%
D23*
%TO.C,C2*%
X140503491Y-84875614D03*
X138953491Y-84875614D03*
%TD*%
D22*
%TO.C,R8*%
X139089506Y-96182936D03*
X140739506Y-96182936D03*
%TD*%
D24*
%TO.C,F1*%
X158100000Y-108400000D03*
X158100000Y-105475000D03*
%TD*%
D14*
%TO.C,R7*%
X139100000Y-108725000D03*
X139100000Y-107075000D03*
%TD*%
D25*
%TO.C,JP1*%
X142330777Y-109176007D03*
D26*
X141030777Y-109176007D03*
%TD*%
D27*
%TO.C,D1*%
X150350000Y-107037500D03*
X154650000Y-107037500D03*
%TD*%
D28*
%TO.C,U2*%
X146475000Y-91299749D03*
X146475000Y-91799749D03*
X146475000Y-92299749D03*
X146475000Y-92799749D03*
X146475000Y-93299749D03*
D29*
X147200000Y-93524749D03*
X147700000Y-93524749D03*
X148200000Y-93524749D03*
D28*
X148925000Y-93299749D03*
X148925000Y-92799749D03*
X148925000Y-92299749D03*
X148925000Y-91799749D03*
X148925000Y-91299749D03*
D29*
X148200000Y-91074749D03*
X147700000Y-91074749D03*
X147200000Y-91074749D03*
%TD*%
D23*
%TO.C,C5*%
X140503491Y-83200000D03*
X138953491Y-83200000D03*
%TD*%
D30*
%TO.C,R11*%
X140746454Y-97869562D03*
X139096454Y-97869562D03*
%TD*%
D31*
%TO.C,U4*%
X150401489Y-101750000D03*
X150401489Y-102400000D03*
X150401489Y-103050000D03*
X150401489Y-103700000D03*
X154701489Y-103700000D03*
X154701489Y-103050000D03*
X154701489Y-102400000D03*
X154701489Y-101750000D03*
D32*
X152551489Y-102725000D03*
%TD*%
D14*
%TO.C,R14*%
X145232881Y-84878768D03*
X145232881Y-83228768D03*
%TD*%
%TO.C,TH1*%
X148714085Y-84849362D03*
X148714085Y-83199362D03*
%TD*%
D13*
%TO.C,C4*%
X148304833Y-88095167D03*
X149854833Y-88095167D03*
%TD*%
D33*
%TO.C,J3*%
X145400000Y-111867500D03*
D34*
X148900000Y-111867500D03*
X152400000Y-111867500D03*
X155900000Y-111867500D03*
%TD*%
%LPD*%
M02*
