M48
; DRILL file {KiCad 9.0.6} date 2026-02-23T11:34:12+1000
; FORMAT={-:-/ absolute / inch / decimal}
; #@! TF.CreationDate,2026-02-23T11:34:12+10:00
; #@! TF.GenerationSoftware,Kicad,Pcbnew,9.0.6
; #@! TF.FileFunction,Plated,1,2,PTH
FMAT,2
INCH
; #@! TA.AperFunction,Plated,PTH,ViaDrill
T1C0.0118
; #@! TA.AperFunction,Plated,PTH,ComponentDrill
T2C0.0394
; #@! TA.AperFunction,Plated,PTH,ComponentDrill
T3C0.0472
%
G90
G05
T1
X5.4376Y-3.3415
X5.4403Y-3.2933
X5.5Y-3.4134
X5.5039Y-3.374
X5.5394Y-3.4213
X5.5394Y-3.4528
X5.5709Y-3.6161
X5.5709Y-3.6836
X5.5787Y-3.7323
X5.5805Y-3.7888
X5.6063Y-3.617
X5.6063Y-3.6934
X5.6095Y-3.2986
X5.6299Y-4.1339
X5.6322Y-3.2215
X5.6378Y-3.617
X5.6378Y-3.6934
X5.6485Y-3.2982
X5.6496Y-3.878
X5.6614Y-3.5315
X5.6654Y-3.2283
X5.6929Y-3.3031
X5.6975Y-3.3611
X5.6975Y-3.4105
X5.7172Y-3.2467
X5.7205Y-3.9764
X5.7266Y-3.6772
X5.7362Y-3.4685
X5.7362Y-3.626
X5.7994Y-3.7128
X5.8194Y-3.3109
X5.8231Y-3.6183
X5.8307Y-3.9152
X5.8346Y-3.9764
X5.8541Y-3.2447
X5.8543Y-3.9449
X5.8622Y-4.2756
X5.8624Y-3.7128
X5.872Y-4.0354
X5.89Y-3.6142
X5.89Y-3.6535
X5.8976Y-3.9449
X5.9397Y-3.4686
X5.9435Y-3.5286
X5.9803Y-4.2756
X5.9887Y-4.0633
X5.9888Y-4.0224
X6.0225Y-4.0234
X6.0225Y-4.0628
X6.0888Y-4.1511
X6.1201Y-3.9843
X6.1479Y-4.0825
X6.2248Y-3.8505
T2
X5.3543Y-3.185
X5.3543Y-3.285
X5.3543Y-3.385
X5.3543Y-3.485
X5.3543Y-3.585
X5.3543Y-3.685
X5.3543Y-3.785
X5.3543Y-3.885
X5.3543Y-3.985
X5.3543Y-4.085
X5.3543Y-4.185
X5.3543Y-4.285
X5.3543Y-4.385
X5.3543Y-4.485
X5.3543Y-4.585
X5.3543Y-4.685
X5.4793Y-3.1872
T3
X5.7244Y-4.4042
X5.8622Y-4.4042
X6.0Y-4.4042
X6.1378Y-4.4042
M30
